<?xml version="1.0" encoding="UTF-8" standalone="no"?>
<svg
   xmlns:dc="http://purl.org/dc/elements/1.1/"
   xmlns:cc="http://creativecommons.org/ns#"
   xmlns:rdf="http://www.w3.org/1999/02/22-rdf-syntax-ns#"
   xmlns:svg="http://www.w3.org/2000/svg"
   xmlns="http://www.w3.org/2000/svg"
   xmlns:sodipodi="http://sodipodi.sourceforge.net/DTD/sodipodi-0.dtd"
   xmlns:inkscape="http://www.inkscape.org/namespaces/inkscape"
   width="167.28024mm"
   height="38.711617mm"
   viewBox="0 0 167.28024 38.711617"
   version="1.1"
   id="svg8"
   sodipodi:docname="logo.svg"
   inkscape:version="1.0.1 (c497b03c, 2020-09-10)">
  <defs
     id="defs2">
    <rect
       x="78.842201"
       y="175.55856"
       width="123.89489"
       height="65.620216"
       id="rect978" />
    <rect
       x="78.842201"
       y="175.55856"
       width="123.89489"
       height="65.620216"
       id="rect986" />
    <rect
       x="78.842201"
       y="175.55856"
       width="123.89489"
       height="65.620216"
       id="rect1038" />
    <rect
       x="78.842201"
       y="175.55856"
       width="123.89489"
       height="65.620216"
       id="rect1040" />
    <rect
       x="78.842201"
       y="175.55856"
       width="123.89489"
       height="65.620216"
       id="rect1103" />
    <rect
       x="78.842201"
       y="175.55856"
       width="123.89489"
       height="65.620216"
       id="rect1109" />
    <rect
       x="78.842201"
       y="175.55856"
       width="123.89489"
       height="65.620216"
       id="rect1196" />
  </defs>
  <sodipodi:namedview
     id="base"
     pagecolor="#ffffff"
     bordercolor="#666666"
     borderopacity="1.0"
     inkscape:pageopacity="0.0"
     inkscape:pageshadow="2"
     inkscape:zoom="0.18482381"
     inkscape:cx="470.49432"
     inkscape:cy="1724.3168"
     inkscape:document-units="mm"
     inkscape:current-layer="layer1"
     inkscape:document-rotation="0"
     showgrid="false"
     showguides="true"
     inkscape:guide-bbox="true"
     inkscape:snap-bbox="true"
     inkscape:object-paths="true"
     inkscape:snap-intersection-paths="true"
     inkscape:bbox-paths="true"
     inkscape:bbox-nodes="true"
     inkscape:snap-bbox-edge-midpoints="true"
     inkscape:snap-bbox-midpoints="true"
     inkscape:snap-global="true"
     inkscape:window-width="1680"
     inkscape:window-height="1050"
     inkscape:window-x="0"
     inkscape:window-y="0"
     inkscape:window-maximized="0"
     fit-margin-top="0"
     fit-margin-left="0"
     fit-margin-right="0"
     fit-margin-bottom="0" />
  <metadata
     id="metadata5">
    <rdf:RDF>
      <cc:Work
         rdf:about="">
        <dc:format>image/svg+xml</dc:format>
        <dc:type
           rdf:resource="http://purl.org/dc/dcmitype/StillImage" />
        <dc:title></dc:title>
      </cc:Work>
    </rdf:RDF>
  </metadata>
  <g
     inkscape:label="Layer 1"
     inkscape:groupmode="layer"
     id="layer1"
     transform="translate(-503.01248,101.11536)">
    <path
       id="path1364"
       style="font-style:normal;font-variant:normal;font-weight:600;font-stretch:normal;font-size:16.9333px;line-height:1.25;font-family:Poppins;-inkscape-font-specification:'Poppins, Semi-Bold';font-variant-ligatures:normal;font-variant-caps:normal;font-variant-numeric:normal;font-variant-east-asian:normal;white-space:pre;fill:#000000;fill-opacity:1;stroke:none;stroke-width:1"
       d="m 510.2663,-101.11534 -7.25382,7.253827 3.97341,-0.37828 0.2377,0.23772 1.41182,-1.4118 0.34261,0.34209 -1.41232,1.41232 0.37827,0.37775 1.08778,-1.08778 0.34314,0.34261 -1.08831,1.08779 0.43201,0.43202 1.48416,-1.48363 0.3421,0.34261 -1.48312,1.48363 9.41184,9.41235 0.36637,-0.38189 -8.39174,-8.39226 0.65786,-0.65629 8.37727,8.37727 1.83139,-1.91099 -11.42564,-11.42566 z m 13.41366,0 c -0.18836,-2.9e-4 -0.3433,0.003 -0.43254,0.01 h -5e-4 c -0.36605,0.0285 -0.86773,0.0854 -1.11879,0.12351 -0.14825,0.0254 -0.33314,0.0541 -0.40878,0.0636 -0.26919,0.0444 -0.90112,0.18092 -1.33067,0.28887 -0.42045,0.10789 -1.18288,0.32666 -1.20404,0.34572 -0.005,0.005 0.0392,0.026 0.0997,0.045 0.0877,0.0254 0.15703,0.0189 0.34158,-0.0382 0.20269,-0.0571 0.31511,-0.0667 0.86868,-0.0667 0.68971,0 0.91358,0.0284 1.55186,0.20619 0.65341,0.180907 1.20671,0.403037 1.85105,0.739487 2.41395,1.27284 3.94449,3.21536 3.86281,4.90719 -0.0212,0.40313 -0.0817,0.66347 -0.23307,0.99994 -0.18148,0.40629 -0.19638,0.46948 -0.19638,0.90434 0.004,0.45707 0.0667,0.73043 0.24805,1.07642 l 0.10594,0.20309 -4.15944,4.36459 -4.6886,4.89376 -0.0847,-0.0636 c -0.27528,-0.20314 -0.67707,-0.31709 -1.01286,-0.28216 -0.23899,0.0222 -0.5449,0.11653 -0.69918,0.21498 -0.0605,0.0413 -0.53264,0.49552 -1.04386,1.00975 -9.12651,9.18923 -12.53525,12.63734 -12.64111,12.777 -0.0696,0.092 -0.17618,0.27604 -0.23667,0.40618 -0.0999,0.22536 -0.10541,0.25412 -0.10541,0.57154 0,0.30154 0.008,0.35554 0.0904,0.55552 0.13012,0.3174 0.28726,0.54566 0.69866,1.01544 0.61105,0.69196 2.64445,2.78995 2.83808,2.92644 0.94075,0.6634 1.89637,0.68594 2.5528,0.0574 0.22992,-0.21904 12.59049,-13.94859 12.69638,-14.10095 0.27829,-0.39678 0.32946,-1.11993 0.11472,-1.60559 -0.0515,-0.11428 -0.11803,-0.23483 -0.1483,-0.26975 -0.0168,-0.0195 0.062,-0.12378 0.22426,-0.30954 l 13.3744,13.3749 c 1.67521,1.67521 6.25903,3.36723 6.25903,3.36723 0,0 -1.68013,-4.59314 -3.35637,-6.26938 l -13.45706,-13.45705 c 0.57722,-0.60503 0.75367,-0.792 1.61129,-1.69188 l 4.18319,-4.38992 0.185,0.15245 c 0.68972,0.58406 1.36411,0.74266 2.26862,0.5395 0.60198,-0.13656 0.89257,-0.10816 1.35236,0.12351 0.29041,0.14605 0.59534,0.39698 0.90692,0.74931 0.20269,0.22854 1.03819,1.30493 1.05936,1.36839 0.009,0.0222 -0.10565,0.16805 -0.25683,0.32349 -0.42349,0.43805 -0.56917,0.80584 -0.53589,1.35496 0.0786,1.30775 1.46103,2.19384 2.54093,1.62884 0.12406,-0.0635 0.48699,-0.42862 1.69397,-1.68879 1.3794,-1.44425 1.5459,-1.63166 1.6397,-1.82211 0.32366,-0.67928 0.16356,-1.49783 -0.40516,-2.08824 -0.55054,-0.56817 -1.34956,-0.71423 -1.98178,-0.35554 l -0.1478,0.0853 -0.11781,-0.14262 c -0.23294,-0.27615 -0.67795,-0.92039 -0.82011,-1.18701 -0.0816,-0.14916 -0.2304,-0.46022 -0.33022,-0.69195 -0.3116,-0.73321 -0.61958,-1.365 -0.8041,-1.66656 -0.41442,-0.66021 -0.9108,-1.30135 -1.56424,-2.00918 -1.72122,-1.86643 -4.58862,-4.91401 -4.80642,-5.1108 -1.52159,-1.371237 -3.14024,-2.116837 -5.2033,-2.399337 -0.2609,-0.0357 -1.12268,-0.0658 -1.68775,-0.0667 z m 123.36301,4.339787 c -0.4177,0 -0.76785,0.13576 -1.05005,0.4067 -0.27093,0.25964 -0.40619,0.58674 -0.40619,0.98185 0,0.39511 0.13526,0.72849 0.40619,0.99942 0.2822,0.25965 0.63235,0.38912 1.05005,0.38912 0.4177,0 0.76208,-0.12947 1.03301,-0.38912 0.28223,-0.27093 0.42323,-0.60431 0.42323,-0.99942 0,-0.39511 -0.141,-0.72221 -0.42323,-0.98185 -0.27093,-0.27094 -0.61531,-0.4067 -1.03301,-0.4067 z m -88.75117,1.30431 c -1.1289,0 -2.15053,0.25948 -3.06493,0.77877 -0.90311,0.508 -1.62018,1.22457 -2.15078,2.15026 -0.51927,0.9144 -0.77874,1.95333 -0.77874,3.11608 0,1.16276 0.25947,2.20118 0.77874,3.11558 0.5306,0.9144 1.24767,1.63148 2.15078,2.15077 0.9144,0.508 1.93603,0.76171 3.06493,0.76171 1.3321,0 2.48896,-0.33287 3.47109,-0.99891 0.99344,-0.67733 1.68746,-1.61982 2.08257,-2.82773 h -2.72593 c -0.27093,0.56444 -0.65463,0.99323 -1.15136,1.28674 -0.4854,0.28222 -1.04997,0.42323 -1.69341,0.42323 -0.68863,0 -1.30402,-0.15778 -1.84589,-0.47387 -0.5306,-0.32738 -0.94835,-0.78499 -1.25315,-1.37201 -0.29353,-0.59831 -0.44029,-1.28658 -0.44029,-2.06551 0,-0.79022 0.14676,-1.47899 0.44029,-2.06602 0.3048,-0.58702 0.72255,-1.03835 1.25315,-1.35444 0.54187,-0.32738 1.15726,-0.49144 1.84589,-0.49144 0.64344,0 1.20801,0.14152 1.69341,0.42375 0.49673,0.28222 0.88043,0.70525 1.15136,1.26968 h 2.72593 c -0.39511,-1.19661 -1.08913,-2.13335 -2.08257,-2.81068 -0.9934,-0.67733 -2.15029,-1.01596 -3.47109,-1.01596 z m 34.35604,0.0465 0.22013,3.58997 h 1.6087 l 0.20309,-3.58997 z m 12.19099,0.22428 v 2.31975 h -1.11725 v 1.94717 h 1.11725 v 4.52117 c 0,1.94169 0.9991,2.91249 2.99723,2.91249 h 1.49035 v -1.99781 h -1.1007 c -0.36126,0 -0.62074,-0.0676 -0.77877,-0.20309 -0.14677,-0.14676 -0.22014,-0.37845 -0.22014,-0.69453 v -4.53823 h 2.09961 v -1.94717 h -2.09961 v -2.31975 z m 34.79271,0 v 2.31975 h -1.11725 v 1.94717 h 1.11725 v 4.52117 c 0,1.94169 0.99909,2.91249 2.99723,2.91249 h 1.49034 v -1.99781 h -1.10069 c -0.36126,0 -0.62071,-0.0676 -0.77877,-0.20309 -0.14674,-0.14676 -0.22014,-0.37845 -0.22014,-0.69453 v -4.53823 h 2.0996 v -1.94717 h -2.0996 v -2.31975 z m -70.08667,2.16731 c -0.80153,0 -1.52961,0.19761 -2.18437,0.59273 -0.64347,0.3951 -1.15718,0.95965 -1.54099,1.69343 -0.37253,0.73378 -0.55861,1.57458 -0.55861,2.52285 0,0.95955 0.18608,1.81188 0.55861,2.55695 0.38381,0.73377 0.89752,1.30409 1.54099,1.71049 0.65476,0.4064 1.37761,0.60926 2.16784,0.60926 0.6999,0 1.31476,-0.14101 1.84536,-0.42323 0.54187,-0.29351 0.96538,-0.66044 1.27018,-1.10071 v 1.3715 h 2.38747 v -9.38083 h -2.38747 v 1.33791 c -0.31607,-0.42898 -0.73961,-0.7849 -1.27018,-1.06712 -0.5193,-0.28223 -1.12893,-0.42323 -1.82883,-0.42323 z m 29.11502,0 c -0.75637,0 -1.41685,0.12423 -1.98128,0.37259 -0.55317,0.24835 -0.98195,0.58698 -1.28675,1.01595 -0.2935,0.42899 -0.44029,0.90337 -0.44029,1.42266 0,0.63218 0.15779,1.13436 0.47389,1.50688 0.32737,0.37253 0.71107,0.6493 1.15134,0.82992 0.45156,0.18063 1.02764,0.35519 1.72754,0.52452 0.67733,0.18062 1.16798,0.34993 1.47278,0.50798 0.31609,0.14675 0.47439,0.37268 0.47439,0.67748 0,0.28222 -0.12999,0.5139 -0.38965,0.69453 -0.24834,0.18062 -0.59798,0.27078 -1.04955,0.27078 -0.46283,0 -0.8523,-0.11846 -1.1684,-0.35553 -0.3048,-0.23707 -0.4799,-0.53637 -0.52501,-0.89762 h -2.38747 c 0.0339,0.57573 0.22572,1.10096 0.57568,1.5751 0.36124,0.47413 0.84664,0.85208 1.45624,1.13429 0.6096,0.27094 1.29786,0.40618 2.0655,0.40618 0.74507,0 1.39454,-0.11847 1.9477,-0.35553 0.56444,-0.24836 0.99322,-0.58698 1.28675,-1.01596 0.3048,-0.42897 0.45733,-0.91438 0.45733,-1.45624 -0.0113,-0.62089 -0.1806,-1.1173 -0.508,-1.48983 -0.31607,-0.38382 -0.69453,-0.66635 -1.13479,-0.84698 -0.44027,-0.18062 -0.99907,-0.3557 -1.6764,-0.52503 -0.66604,-0.16934 -1.15668,-0.33289 -1.47278,-0.49093 -0.31607,-0.16933 -0.47437,-0.41203 -0.47437,-0.72812 0,-0.28222 0.11268,-0.50239 0.33848,-0.66042 0.23707,-0.15805 0.57044,-0.2372 0.99941,-0.2372 0.46286,0 0.82979,0.11322 1.10072,0.339 0.2822,0.21448 0.44,0.50803 0.47387,0.88056 h 2.26912 c -0.0677,-0.94826 -0.43469,-1.6989 -1.10072,-2.25205 -0.66604,-0.56445 -1.55771,-0.84698 -2.67528,-0.84698 z m 34.44285,0 c -0.90311,0 -1.70458,0.20338 -2.40451,0.60978 -0.6999,0.39511 -1.24717,0.95966 -1.64227,1.69344 -0.3951,0.72248 -0.59272,1.56905 -0.59272,2.53989 0,0.97084 0.19762,1.82317 0.59272,2.55695 0.3951,0.72249 0.94237,1.28704 1.64227,1.69344 0.69993,0.39511 1.5014,0.59221 2.40451,0.59221 1.15146,0 2.11124,-0.29879 2.8789,-0.8971 0.76764,-0.59831 1.28135,-1.40556 1.54099,-2.42156 h -2.55696 c -0.2935,0.85796 -0.92044,1.28674 -1.87997,1.28674 -0.67734,0 -1.21306,-0.2427 -1.60819,-0.72812 -0.39511,-0.4967 -0.59272,-1.19074 -0.59272,-2.08256 0,-0.90311 0.19761,-1.59765 0.59272,-2.08307 0.39513,-0.49671 0.93085,-0.74466 1.60819,-0.74466 0.47413,0 0.86936,0.11847 1.18544,0.35553 0.32737,0.22578 0.55906,0.54187 0.69453,0.94827 h 2.55696 c -0.25964,-1.04987 -0.77335,-1.86288 -1.54099,-2.43862 -0.75636,-0.58702 -1.71614,-0.88056 -2.8789,-0.88056 z m 21.66741,0 c -0.90313,0 -1.72138,0.20338 -2.45515,0.60978 -0.73379,0.39511 -1.31511,0.95966 -1.74408,1.69344 -0.41769,0.73378 -0.62632,1.58034 -0.62632,2.53989 0,0.95956 0.20289,1.80613 0.60926,2.5399 0.4177,0.73378 0.98801,1.30409 1.7105,1.71049 0.72247,0.39511 1.53498,0.59221 2.43809,0.59221 0.9144,0 1.73844,-0.1971 2.47221,-0.59221 0.74507,-0.4064 1.33215,-0.97671 1.76112,-1.71049 0.44027,-0.73377 0.66043,-1.58034 0.66043,-2.5399 0,-0.95955 -0.2144,-1.80611 -0.64336,-2.53989 -0.4177,-0.73378 -0.99325,-1.29833 -1.72705,-1.69344 -0.73377,-0.4064 -1.55254,-0.60978 -2.45565,-0.60978 z m -72.29274,0.017 c -0.57573,0 -1.10622,0.11271 -1.59165,0.33848 -0.47413,0.22578 -0.8636,0.53662 -1.1684,0.93173 v -1.13482 h -2.3704 v 9.38083 h 2.3704 v -5.18108 c 0,-0.73378 0.18661,-1.29308 0.55914,-1.6769 0.38384,-0.39511 0.90279,-0.59222 1.55753,-0.59222 0.64346,0 1.15141,0.19711 1.52394,0.59222 0.37254,0.38382 0.55915,0.94312 0.55915,1.6769 v 5.18108 h 2.3704 v -5.18108 c 0,-0.73378 0.18658,-1.29308 0.55912,-1.6769 0.38383,-0.39511 0.89701,-0.59222 1.54048,-0.59222 0.64347,0 1.15192,0.19711 1.52445,0.59222 0.37253,0.38382 0.55862,0.94312 0.55862,1.6769 v 5.18108 h 2.3704 v -5.50303 c 0,-1.26435 -0.35539,-2.24668 -1.06659,-2.94659 -0.69993,-0.71119 -1.62563,-1.0666 -2.77709,-1.0666 -0.67734,0 -1.30951,0.16355 -1.89654,0.49093 -0.57573,0.32738 -1.01605,0.76192 -1.32085,1.30379 -0.31607,-0.57573 -0.76216,-1.01605 -1.33789,-1.32085 -0.57573,-0.31608 -1.23045,-0.47387 -1.96422,-0.47387 z m 33.82016,0 c -0.6322,0 -1.19674,0.14101 -1.69344,0.42323 -0.48543,0.28222 -0.88067,0.67169 -1.18547,1.1684 v -1.45624 h -2.3704 v 9.38083 h 2.3704 v -4.6731 c 0,-0.86925 0.18611,-1.47887 0.55864,-1.82883 0.38381,-0.34996 0.94835,-0.52504 1.69342,-0.52504 h 0.62685 z m 50.25273,0 c -0.587,0 -1.12903,0.11847 -1.62573,0.35553 -0.48543,0.22578 -0.8859,0.54187 -1.202,0.94827 v -1.16841 h -2.37091 v 9.38083 h 2.37091 v -5.18108 c 0,-0.74507 0.18608,-1.31539 0.55864,-1.7105 0.3838,-0.4064 0.90326,-0.60977 1.55802,-0.60977 0.64347,0 1.15142,0.20337 1.52395,0.60977 0.37254,0.39511 0.55862,0.96543 0.55862,1.7105 v 5.18108 h 2.37093 v -5.50303 c 0,-1.26435 -0.34441,-2.24668 -1.03301,-2.94659 -0.68864,-0.71119 -1.59182,-1.0666 -2.70942,-1.0666 z m -48.74069,0.13539 v 5.50354 c 0,0.83538 0.1578,1.55771 0.47387,2.16731 0.32739,0.59831 0.77348,1.0554 1.33792,1.37149 0.56443,0.3048 1.21337,0.45734 1.94717,0.45734 0.57573,0 1.1062,-0.11271 1.59163,-0.33848 0.4967,-0.23707 0.8977,-0.55892 1.2025,-0.96532 v 1.18495 h 2.38744 v -9.38083 h -2.38744 v 5.16454 c 0,0.74507 -0.18608,1.32115 -0.55861,1.72755 -0.37254,0.3951 -0.88625,0.59221 -1.54099,0.59221 -0.64347,0 -1.15141,-0.19711 -1.52395,-0.59221 -0.37253,-0.4064 -0.55914,-0.98248 -0.55914,-1.72755 v -5.16454 z m 28.03086,0 v 9.38083 h 2.3709 v -9.38083 z m 8.89608,1.91358 c 0.67733,0 1.24714,0.2427 1.70998,0.72812 0.47413,0.47413 0.71159,1.15715 0.71159,2.04897 0,0.59831 -0.11324,1.10625 -0.33901,1.52394 -0.22577,0.41769 -0.53033,0.73378 -0.91416,0.94826 -0.37253,0.2032 -0.77351,0.30489 -1.2025,0.30489 -0.67734,0 -1.24138,-0.23745 -1.69291,-0.71158 -0.44027,-0.48542 -0.66043,-1.17369 -0.66043,-2.06551 0,-0.89182 0.2254,-1.57483 0.67696,-2.04897 0.46284,-0.48542 1.03315,-0.72812 1.71048,-0.72812 z m -84.58192,0.017 c 0.44027,0 0.8523,0.1127 1.23611,0.33848 0.38383,0.21449 0.68889,0.53058 0.91469,0.94826 0.22577,0.4064 0.33845,0.89757 0.33845,1.4733 0,0.57573 -0.11268,1.07214 -0.33845,1.48983 -0.2258,0.4064 -0.53086,0.72249 -0.91469,0.94826 -0.38381,0.2145 -0.79584,0.32195 -1.23611,0.32195 -0.42897,0 -0.83521,-0.1127 -1.21904,-0.33848 -0.37253,-0.22578 -0.6776,-0.54763 -0.91466,-0.96532 -0.22577,-0.42897 -0.33849,-0.9259 -0.33849,-1.49035 0,-0.56444 0.11272,-1.04984 0.33849,-1.45624 0.23706,-0.41769 0.54213,-0.73377 0.91466,-0.94826 0.37253,-0.21449 0.77877,-0.32143 1.21904,-0.32143 z m -52.42832,9.71259 c -0.0167,0.0352 -0.47517,1.00188 -0.68728,1.449 -0.10589,0.15237 -11.38852,11.61953 -11.61841,11.83856 -0.65644,0.62855 -0.37672,1.51717 1.21957,3.90157 -0.19363,-0.13649 -1.14906,-1.1038 -1.76012,-1.79576 -0.4114,-0.46978 -0.56853,-0.69804 -0.69866,-1.01544 -0.0822,-0.19998 -0.091,-0.25398 -0.091,-0.55552 0,-0.31742 0.006,-0.34618 0.10594,-0.57154 0.0605,-0.13014 0.16658,-0.31417 0.23617,-0.40618 0.10586,-0.13966 2.43713,-2.45658 11.56364,-11.6458 0.51122,-0.51423 0.98332,-0.96851 1.04386,-1.00976 0.11099,-0.0709 0.53901,-0.14961 0.68625,-0.18913 z m 5.34852,1.02371 13.69529,13.69528 c 1.46351,1.68329 4.1951,3.36621 4.1951,3.36621 -3e-5,0 -3.27565,-1.1326 -4.85191,-2.70888 l -13.67618,-13.67565 c 0.13076,-0.14071 0.44027,-0.4683 0.6377,-0.67696 z m 132.43893,0.73483 -1.9487,5.02812 -5.38417,0.29921 4.1801,3.40754 -1.37925,5.21312 4.53202,-2.9223 4.53203,2.9223 -1.37872,-5.21312 4.1801,-3.40754 -5.38467,-0.29921 z m -37.11503,0.43771 v 1.7446 h 1.71151 v -1.7446 z m -66.60007,0.86816 v 1.0418 l 1.34771,0.23151 v 9.48366 l -1.34771,0.23151 v 1.0418 h 4.32427 v -1.0418 l -1.34771,-0.23151 v -4.10104 l 2.55334,-0.047 2.41586,5.42137 h 2.00919 v -1.0666 l -0.83511,-0.14883 -2.03398,-4.40076 c 0.2054,-0.055 0.40389,-0.11736 0.58706,-0.19637 0.56224,-0.24805 0.99494,-0.61185 1.2981,-1.09141 0.30868,-0.47955 0.46302,-1.07212 0.46302,-1.77767 0,-0.71658 -0.15709,-1.32292 -0.47128,-1.81901 -0.31419,-0.49609 -0.77446,-0.87368 -1.38081,-1.13275 -0.60081,-0.26458 -1.33945,-0.39687 -2.21588,-0.39687 z m 60.34101,0.92605 v 2.158 h -1.41335 v 1.20716 h 1.41335 v 5.43223 c 0,0.85438 0.19343,1.47725 0.5793,1.86862 0.39135,0.38585 0.91726,0.57878 1.57872,0.57878 0.29765,0 0.61735,-0.0276 0.95911,-0.0827 0.34727,-0.0551 0.63939,-0.11851 0.87643,-0.19017 l -0.22325,-1.0666 c -0.13229,0.0275 -0.31695,0.0606 -0.55396,0.0992 -0.23704,0.0331 -0.45199,0.0496 -0.64492,0.0496 -0.28662,0 -0.51538,-0.10197 -0.68628,-0.30593 -0.17087,-0.20394 -0.2563,-0.5209 -0.2563,-0.95084 v -5.43223 h 1.94302 v -1.20716 h -1.94302 v -2.15801 z m -57.36445,0.34726 h 2.38951 c 0.83235,0 1.44695,0.18466 1.84383,0.55397 0.39687,0.36932 0.59531,0.87093 0.59531,1.50482 0,0.66697 -0.20672,1.17409 -0.62013,1.52135 -0.41341,0.34727 -1.07487,0.5209 -1.98438,0.5209 h -2.22414 z m 12.23698,1.64538 c -0.68903,0 -1.32567,0.19568 -1.90997,0.58704 -0.57878,0.38586 -1.04455,0.91502 -1.39732,1.5875 -0.34727,0.66697 -0.52091,1.42489 -0.52091,2.27377 v 0.3638 c 0,0.88194 0.16539,1.65915 0.49609,2.33164 0.33626,0.67248 0.81029,1.19889 1.42214,1.57923 0.61185,0.37482 1.3312,0.56224 2.15802,0.56224 0.73864,0 1.36977,-0.10473 1.89341,-0.31419 0.52917,-0.21498 0.95361,-0.4768 1.27331,-0.78548 l -0.63664,-1.05834 c -0.30316,0.27561 -0.66421,0.49334 -1.08315,0.65319 -0.41339,0.15434 -0.89573,0.23151 -1.44693,0.23151 -0.5016,0 -0.93155,-0.12677 -1.28985,-0.38034 -0.35829,-0.25356 -0.63388,-0.60082 -0.82682,-1.04179 -0.18743,-0.44649 -0.28665,-0.95637 -0.29765,-1.52962 l 0.0248,-0.0413 h 5.80429 v -1.017 c 0,-0.81028 -0.13779,-1.51308 -0.41341,-2.1084 -0.27559,-0.60082 -0.68625,-1.06659 -1.23195,-1.39733 -0.5402,-0.33072 -1.21267,-0.49609 -2.01745,-0.49609 z m 10.50891,0 c -0.57325,0 -1.08588,0.13229 -1.53789,0.39687 -0.44646,0.25908 -0.81854,0.62563 -1.1162,1.09968 l -0.11576,-1.33119 h -2.80294 v 1.05007 l 1.34774,0.23151 v 6.39134 l -1.34774,0.23151 v 1.0418 h 4.3243 v -1.0418 l -1.34774,-0.23151 v -5.25033 c 0.21498,-0.39136 0.50163,-0.70004 0.8599,-0.92604 0.3638,-0.226 0.77999,-0.33899 1.24852,-0.33899 0.63939,0 1.11344,0.16535 1.42213,0.49609 0.31419,0.33073 0.47128,0.89022 0.47128,1.67845 v 4.34082 l -1.34771,0.23151 v 1.0418 h 4.32427 v -1.0418 l -1.34771,-0.23151 v -4.37389 c 0,-1.1796 -0.26458,-2.05053 -0.79375,-2.61276 -0.52917,-0.56776 -1.27606,-0.85163 -2.2407,-0.85163 z m 9.43406,0 c -0.81579,0 -1.52411,0.19568 -2.12495,0.58704 -0.59531,0.39137 -1.05558,0.93156 -1.38078,1.62058 -0.32522,0.6835 -0.48784,1.46623 -0.48784,2.34817 v 0.1819 c 0,0.88195 0.16262,1.66743 0.48784,2.35645 0.3252,0.68351 0.78547,1.22094 1.38078,1.6123 0.60084,0.38585 1.31466,0.57878 2.14149,0.57878 0.82129,0 1.52961,-0.19293 2.12492,-0.57878 0.59531,-0.38585 1.05558,-0.92053 1.38081,-1.60403 0.32522,-0.68902 0.48781,-1.47726 0.48781,-2.36472 v -0.1819 c 0,-0.88746 -0.16259,-1.67294 -0.48781,-2.35644 -0.32523,-0.68351 -0.78825,-1.22094 -1.38907,-1.61231 -0.59531,-0.39136 -1.30638,-0.58704 -2.1332,-0.58704 z m 18.54562,0 c -0.65042,0 -1.24298,0.0854 -1.77765,0.25631 -0.53467,0.16536 -1.00322,0.41066 -1.4056,0.73588 v 2.05052 h 1.25677 l 0.17362,-1.24851 c 0.22601,-0.15985 0.47681,-0.28387 0.75242,-0.37207 0.27562,-0.0937 0.60082,-0.14056 0.97565,-0.14056 0.59532,0 1.05558,0.14883 1.38078,0.44649 0.33073,0.29765 0.4961,0.71658 0.4961,1.25677 v 0.87643 h -1.59576 c -0.82132,0 -1.52688,0.11852 -2.11666,0.35554 -0.58981,0.2315 -1.0418,0.55948 -1.35599,0.98392 -0.30869,0.41892 -0.46302,0.91225 -0.46302,1.48001 0,0.82682 0.24254,1.46899 0.7276,1.9265 0.48498,0.4519 1.19364,0.67791 2.12492,0.67799 0.53449,-9e-5 1.03592,-0.13238 1.50432,-0.39687 0.47402,-0.2701 0.86815,-0.60634 1.18234,-1.00873 0.0111,0.19292 0.0303,0.38585 0.0579,0.57878 0.0276,0.19292 0.0661,0.41065 0.11576,0.65319 h 2.33989 v -1.0418 l -0.86815,-0.0909 c -0.0112,-0.11025 -0.019,-0.22049 -0.0243,-0.33073 v -0.339 -4.30774 c 0,-0.96463 -0.30869,-1.70602 -0.92604,-2.22416 -0.61735,-0.51814 -1.46899,-0.77721 -2.5549,-0.77721 z m 21.10828,0 c -0.81579,0 -1.52411,0.19568 -2.12492,0.58704 -0.59532,0.39137 -1.05559,0.93156 -1.38081,1.62058 -0.3252,0.6835 -0.48781,1.46623 -0.48781,2.34817 v 0.1819 c 0,0.88195 0.16261,1.66743 0.48781,2.35645 0.32522,0.68351 0.78549,1.22094 1.38081,1.6123 0.60081,0.38585 1.31463,0.57878 2.14145,0.57878 0.82132,0 1.52964,-0.19293 2.12495,-0.57878 0.59531,-0.38585 1.05558,-0.92053 1.38078,-1.60403 0.32523,-0.68902 0.48784,-1.47726 0.48784,-2.36472 v -0.1819 c 0,-0.88746 -0.16261,-1.67294 -0.48784,-2.35644 -0.3252,-0.68351 -0.78822,-1.22094 -1.38906,-1.61231 -0.59531,-0.39136 -1.30638,-0.58704 -2.1332,-0.58704 z m 10.83966,0 c -0.57327,0 -1.0859,0.13229 -1.53789,0.39687 -0.44649,0.25908 -0.81854,0.62563 -1.11623,1.09968 l -0.11575,-1.33119 h -2.80292 v 1.05007 l 1.34771,0.23151 v 6.39134 l -1.34771,0.23151 v 1.0418 h 4.32427 v -1.0418 l -1.3477,-0.23151 v -5.25033 c 0.21497,-0.39136 0.50159,-0.70004 0.85989,-0.92604 0.3638,-0.226 0.77997,-0.33899 1.24849,-0.33899 0.63942,0 1.11347,0.16535 1.42214,0.49609 0.31419,0.33073 0.4713,0.89022 0.4713,1.67845 v 4.34082 l -1.34774,0.23151 v 1.0418 h 4.3243 v -1.0418 l -1.34773,-0.23151 v -4.37389 c 0,-1.1796 -0.26459,-2.05053 -0.79375,-2.61276 -0.52917,-0.56776 -1.27606,-0.85163 -2.24068,-0.85163 z m -45.92124,0.16536 v 1.05007 l 0.92604,0.12402 3.18328,7.77214 h 1.43039 l 3.02617,-7.77214 0.94258,-0.12402 v -1.05007 h -3.74549 v 1.05007 l 1.19888,0.16536 -1.84381,5.09323 -0.26458,0.71934 h -0.0496 l -0.23151,-0.71934 -1.98437,-5.09323 1.1658,-0.16536 v -1.05007 z m 25.60619,0 v 1.05007 l 1.34773,0.23151 v 6.39134 l -1.34773,0.23151 v 1.0418 h 4.32429 v -1.0418 l -1.34773,-0.23151 v -7.67292 z m -50.12148,1.11621 c 0.45199,0 0.82682,0.0992 1.12448,0.29766 0.30316,0.19293 0.52917,0.46026 0.678,0.80202 0.15433,0.33624 0.23151,0.71934 0.23151,1.14928 v 0.21498 h -4.12586 l -0.0165,-0.0413 c 0.0606,-0.46302 0.18743,-0.87644 0.38034,-1.24024 0.19293,-0.3638 0.43823,-0.65043 0.73588,-0.85989 0.29766,-0.21498 0.62839,-0.32246 0.99219,-0.32246 z m 19.94297,0 c 0.52366,0 0.96187,0.14332 1.31464,0.42995 0.35279,0.28112 0.61737,0.66973 0.79375,1.16582 0.1819,0.49058 0.27286,1.05007 0.27286,1.67845 v 0.1819 c 0,0.62838 -0.091,1.19063 -0.27286,1.68672 -0.17638,0.49058 -0.44096,0.87919 -0.79375,1.16582 -0.34727,0.28112 -0.77997,0.42168 -1.2981,0.42168 -0.52367,0 -0.96465,-0.14056 -1.32292,-0.42168 -0.3528,-0.28663 -0.61738,-0.67524 -0.79375,-1.16582 -0.1764,-0.49609 -0.26458,-1.05834 -0.26458,-1.68672 v -0.1819 c 0,-0.62838 0.0882,-1.18787 0.26458,-1.67845 0.17637,-0.49609 0.44095,-0.8847 0.79375,-1.16582 0.35277,-0.28663 0.78825,-0.42995 1.30638,-0.42995 z m 39.6539,0 c 0.52366,0 0.96186,0.14332 1.31466,0.42995 0.35277,0.28112 0.61735,0.66973 0.79375,1.16582 0.1819,0.49058 0.27284,1.05007 0.27284,1.67845 v 0.1819 c 0,0.62838 -0.0909,1.19063 -0.27284,1.68672 -0.1764,0.49058 -0.44098,0.87919 -0.79375,1.16582 -0.34727,0.28112 -0.77997,0.42168 -1.29813,0.42168 -0.52363,0 -0.96461,-0.14056 -1.32291,-0.42168 -0.35277,-0.28663 -0.61735,-0.67524 -0.79375,-1.16582 -0.17637,-0.49609 -0.26459,-1.05834 -0.26459,-1.68672 v -0.1819 c 0,-0.62838 0.0882,-1.18787 0.26459,-1.67845 0.1764,-0.49609 0.44098,-0.8847 0.79375,-1.16582 0.35279,-0.28663 0.78824,-0.42995 1.30638,-0.42995 z m -20.90984,3.6959 h 1.65365 v 1.62058 c -0.19291,0.3638 -0.51263,0.67524 -0.95912,0.93431 -0.44648,0.25907 -0.93982,0.3886 -1.48,0.3886 -0.49059,0 -0.85714,-0.10197 -1.09968,-0.30592 -0.24252,-0.20946 -0.36381,-0.50988 -0.36381,-0.90124 0,-0.44097 0.18743,-0.84061 0.56224,-1.19889 0.37484,-0.3583 0.93708,-0.53744 1.68672,-0.53744 z"
       inkscape:export-filename="/Users/raymond/Desktop/cam.png"
       inkscape:export-xdpi="96"
       inkscape:export-ydpi="96" />
  </g>
</svg>
