<?xml version="1.0" encoding="UTF-8" standalone="no"?>
<svg
   xmlns:dc="http://purl.org/dc/elements/1.1/"
   xmlns:cc="http://creativecommons.org/ns#"
   xmlns:rdf="http://www.w3.org/1999/02/22-rdf-syntax-ns#"
   xmlns:svg="http://www.w3.org/2000/svg"
   xmlns="http://www.w3.org/2000/svg"
   xmlns:sodipodi="http://sodipodi.sourceforge.net/DTD/sodipodi-0.dtd"
   xmlns:inkscape="http://www.inkscape.org/namespaces/inkscape"
   width="99.413582mm"
   height="97.283997mm"
   viewBox="0 0 99.413582 97.283997"
   version="1.1"
   id="svg8"
   sodipodi:docname="logo-circle-white.svg"
   inkscape:version="1.0.1 (c497b03c, 2020-09-10)">
  <defs
     id="defs2">
    <rect
       x="78.842201"
       y="175.55856"
       width="123.89489"
       height="65.620216"
       id="rect978" />
    <rect
       x="78.842201"
       y="175.55856"
       width="123.89489"
       height="65.620216"
       id="rect986" />
    <rect
       x="78.842201"
       y="175.55856"
       width="123.89489"
       height="65.620216"
       id="rect1038" />
    <rect
       x="78.842201"
       y="175.55856"
       width="123.89489"
       height="65.620216"
       id="rect1040" />
    <rect
       x="78.842201"
       y="175.55856"
       width="123.89489"
       height="65.620216"
       id="rect1103" />
    <rect
       x="78.842201"
       y="175.55856"
       width="123.89489"
       height="65.620216"
       id="rect1109" />
    <rect
       x="78.842201"
       y="175.55856"
       width="123.89489"
       height="65.620216"
       id="rect1196" />
  </defs>
  <sodipodi:namedview
     id="base"
     pagecolor="#ffffff"
     bordercolor="#666666"
     borderopacity="1.0"
     inkscape:pageopacity="0.0"
     inkscape:pageshadow="2"
     inkscape:zoom="0.68635104"
     inkscape:cx="97.244876"
     inkscape:cy="150.12882"
     inkscape:document-units="mm"
     inkscape:current-layer="layer1"
     inkscape:document-rotation="0"
     showgrid="false"
     showguides="true"
     inkscape:guide-bbox="true"
     inkscape:snap-bbox="true"
     inkscape:object-paths="true"
     inkscape:snap-intersection-paths="true"
     inkscape:bbox-paths="true"
     inkscape:bbox-nodes="true"
     inkscape:snap-bbox-edge-midpoints="true"
     inkscape:snap-bbox-midpoints="true"
     inkscape:snap-global="true"
     inkscape:window-width="1680"
     inkscape:window-height="1050"
     inkscape:window-x="0"
     inkscape:window-y="0"
     inkscape:window-maximized="0"
     fit-margin-top="0"
     fit-margin-left="0"
     fit-margin-right="0"
     fit-margin-bottom="0" />
  <metadata
     id="metadata5">
    <rdf:RDF>
      <cc:Work
         rdf:about="">
        <dc:format>image/svg+xml</dc:format>
        <dc:type
           rdf:resource="http://purl.org/dc/dcmitype/StillImage" />
        <dc:title></dc:title>
      </cc:Work>
    </rdf:RDF>
  </metadata>
  <g
     inkscape:label="Layer 1"
     inkscape:groupmode="layer"
     id="layer1"
     transform="translate(-289.98715,-224.52774)">
    <path
       id="path1233"
       style="font-style:normal;font-variant:normal;font-weight:normal;font-stretch:normal;font-size:16.93329999999999913px;line-height:1.25;font-family:'Roboto Slab';-inkscape-font-specification:'Roboto Slab, @wght=400';font-variant-ligatures:normal;font-variant-caps:normal;font-variant-numeric:normal;font-variant-east-asian:normal;font-variation-settings:'wght' 400;letter-spacing:0.92339599999999999px;white-space:pre;fill:#ffffff;fill-opacity:1;stroke:none;stroke-width:1"
       d="m 336.03396,224.52774 -2.37919,0.20203 0.19637,2.31151 -1.11363,0.0946 0.16537,1.94045 1.11363,-0.0946 0.3829,4.50514 c 0.16455,1.93469 1.24246,2.81721 3.2334,2.6479 l 1.48468,-0.1261 -0.16952,-1.99107 -1.09656,0.093 c -0.35994,0.0306 -0.62426,-0.0148 -0.79323,-0.13642 -0.15864,-0.1338 -0.25175,-0.35787 -0.27855,-0.67283 l -0.38446,-4.52168 2.09237,-0.17828 -0.16483,-1.94045 -2.09238,0.17828 z m 4.89169,2.16627 -0.73535,9.35239 2.36315,0.18552 0.36639,-4.65915 c 0.0681,-0.86656 0.30189,-1.45955 0.70073,-1.77922 0.41007,-0.31877 0.98631,-0.44907 1.7291,-0.39068 l 0.62476,0.0491 0.19481,-2.4815 c -0.63023,-0.0496 -1.20351,0.047 -1.72082,0.28937 -0.50604,0.24331 -0.93051,0.6005 -1.27331,1.07177 l 0.11422,-1.45158 z m -18.7906,0.49763 -1.69497,1.12088 2.16421,2.87269 1.34202,-0.88781 z m 25.97827,0.11216 -1.52032,5.28907 c -0.2308,0.80285 -0.2785,1.54062 -0.14314,2.21382 0.14933,0.66548 0.45125,1.22801 0.90638,1.68775 0.45829,0.44887 1.04043,0.77499 1.74565,0.97772 0.55332,0.15907 1.09426,0.19709 1.62316,0.11419 0.54287,-0.0906 1.01693,-0.28892 1.42214,-0.59531 l -0.32764,1.13895 2.29495,0.65993 2.59156,-9.016 -2.29441,-0.6599 -1.42732,4.96351 c -0.20585,0.71607 -0.54356,1.21819 -1.01388,1.50585 -0.46721,0.2768 -1.01561,0.32456 -1.64487,0.14367 -0.61841,-0.17778 -1.05182,-0.50798 -1.30069,-0.99063 -0.24572,-0.49353 -0.2658,-1.09831 -0.06,-1.81438 l 1.42679,-4.9635 z m -19.37401,0.64698 c -0.36406,0.0144 -0.74834,0.0755 -1.15342,0.18294 -0.73107,0.19394 -1.33765,0.48336 -1.81954,0.86815 -0.47096,0.3819 -0.79878,0.81928 -0.9834,1.31207 -0.17368,0.4899 -0.19413,0.98583 -0.061,1.48777 0.16211,0.61103 0.44386,1.05577 0.84489,1.3348 0.41196,0.27615 0.85365,0.44527 1.32551,0.50694 0.48279,0.0588 1.08461,0.0804 1.80454,0.0646 0.70101,9e-4 1.21877,0.0386 1.55392,0.11319 0.34314,0.0608 0.55383,0.23817 0.63199,0.53276 0.0724,0.27279 0.006,0.52986 -0.19844,0.77102 -0.19373,0.23826 -0.50869,0.41545 -0.94515,0.53123 -0.44738,0.1187 -0.85431,0.10417 -1.2206,-0.0439 -0.35541,-0.15097 -0.60116,-0.39571 -0.73742,-0.73329 l -2.30788,0.61238 c 0.18037,0.54779 0.5003,1.00605 0.96015,1.37459 0.47074,0.36565 1.03703,0.60648 1.6986,0.72295 0.6587,0.10554 1.35919,0.0599 2.10118,-0.13695 0.72015,-0.19106 1.31723,-0.47186 1.7911,-0.84283 0.48189,-0.38481 0.80971,-0.82217 0.9834,-1.31207 0.18463,-0.49279 0.20717,-1.00124 0.0682,-1.52498 -0.17012,-0.59722 -0.46138,-1.03386 -0.87333,-1.30998 -0.40394,-0.28996 -0.84175,-0.46545 -1.31361,-0.5271 -0.47185,-0.0617 -1.05682,-0.0875 -1.75492,-0.0775 -0.68721,0.007 -1.20375,-0.0255 -1.5498,-0.0972 -0.34893,-0.0826 -0.56385,-0.27689 -0.64492,-0.5824 -0.0724,-0.27279 -0.0196,-0.51435 0.15814,-0.72501 0.18862,-0.21355 0.49022,-0.37523 0.90485,-0.48525 0.44735,-0.11866 0.83055,-0.10379 1.15033,0.045 0.32776,0.13496 0.55591,0.37827 0.68418,0.72969 l 2.19316,-0.5819 c -0.30864,-0.89919 -0.85564,-1.53059 -1.64126,-1.89444 -0.49282,-0.23424 -1.04273,-0.33936 -1.6495,-0.31523 z m -9.38651,3.46181 c -0.72914,0.001 -1.45402,0.23993 -2.17506,0.7152 -0.56552,0.37274 -1.00314,0.85725 -1.3131,1.45364 -0.30054,0.59018 -0.42924,1.19574 -0.3855,1.81592 -0.58076,-0.30673 -1.19539,-0.42923 -1.84383,-0.3669 -0.65466,0.0529 -1.28799,0.28141 -1.90066,0.68522 -0.4807,0.31686 -0.86151,0.70294 -1.14255,1.15858 -0.2716,0.44945 -0.42595,0.92298 -0.46302,1.4206 l -0.62479,-0.94723 -1.97919,1.30482 5.16247,7.83262 1.97972,-1.30485 -2.85149,-4.32636 c -0.40384,-0.61264 -0.55613,-1.18136 -0.4563,-1.70685 0.103,-0.54113 0.42791,-0.99206 0.97462,-1.35239 0.53723,-0.35412 1.07037,-0.4685 1.59885,-0.34364 0.52228,0.11546 0.98525,0.47926 1.38906,1.09193 l 2.85152,4.32634 1.97919,-1.30482 -2.8515,-4.32584 c -0.40383,-0.61266 -0.55559,-1.18189 -0.45579,-1.70738 0.10303,-0.54112 0.42291,-0.98896 0.96014,-1.34308 0.53727,-0.35411 1.0704,-0.46852 1.59888,-0.34364 0.52229,0.11544 0.98523,0.47924 1.38906,1.09191 l 2.85152,4.32636 1.97919,-1.30431 -3.02874,-4.59508 c -0.69582,-1.05566 -1.53299,-1.68028 -2.512,-1.87327 -0.24395,-0.0522 -0.48766,-0.078 -0.7307,-0.0775 z m 41.46931,0.90123 c -0.80365,-0.0121 -1.56083,0.19888 -2.27222,0.63304 -0.70567,0.42439 -1.30381,1.05576 -1.79369,1.89394 h 5e-4 c -0.48987,0.83817 -0.74961,1.67341 -0.77874,2.50629 -0.0234,0.82315 0.16459,1.58679 0.56377,2.29082 0.40492,0.69429 0.99695,1.26925 1.77665,1.72497 0.99412,0.58103 1.97366,0.80719 2.93833,0.678 0.96465,-0.1292 1.81547,-0.56695 2.55228,-1.3131 l -2.20761,-1.29038 c -0.68633,0.59262 -1.44377,0.64699 -2.27221,0.1628 -0.58478,-0.34179 -0.92546,-0.82177 -1.02164,-1.44023 -0.0905,-0.6282 0.0895,-1.32757 0.53949,-2.09754 0.45572,-0.7797 0.97666,-1.27942 1.56271,-1.49913 0.59176,-0.22947 1.17996,-0.17333 1.76474,0.16846 0.40934,0.23924 0.69062,0.54118 0.84389,0.90538 0.1687,0.3601 0.20902,0.7497 0.12091,1.1689 l 2.20761,1.29038 c 0.30559,-1.03743 0.27199,-1.99861 -0.10025,-2.88304 -0.35679,-0.88847 -1.03682,-1.62605 -2.04071,-2.21279 -0.7797,-0.456 -1.57448,-0.68476 -2.38381,-0.68677 z m 9.45367,2.9166 -1.52239,1.7503 -0.84336,-0.73382 -1.27794,1.46918 0.84283,0.73379 -2.96725,3.41117 c -1.27439,1.46495 -1.15768,2.85316 0.34984,4.1646 l 1.12397,0.97771 1.31154,-1.50738 -0.83045,-0.72245 c -0.27252,-0.23709 -0.42389,-0.45863 -0.45423,-0.66455 -0.0144,-0.20707 0.0819,-0.42971 0.2894,-0.66818 l 2.97862,-3.42408 1.58441,1.37821 1.27796,-1.46917 -1.5844,-1.37819 1.52289,-1.7503 z m 6.33346,4.55994 c -0.31872,9.8e-4 -0.60947,0.11475 -0.87125,0.34054 -0.29922,0.25808 -0.46273,0.57804 -0.49093,0.96015 -0.0123,0.3833 0.11787,0.73276 0.39068,1.04905 0.27279,0.31625 0.5964,0.49252 0.96996,0.52813 0.3895,0.0368 0.7338,-0.0737 1.03302,-0.33176 0.29921,-0.25807 0.45487,-0.57893 0.46714,-0.96224 0.0282,-0.38211 -0.0941,-0.73117 -0.36689,-1.04746 -0.27281,-0.31633 -0.60426,-0.49297 -0.99375,-0.52969 -0.0467,-0.004 -0.0925,-0.007 -0.13798,-0.007 z m -2.60292,2.16937 -7.10398,6.12727 1.54876,1.79525 7.10343,-6.12727 z m -69.20404,0.0274 -1.41542,1.92286 1.07693,0.79272 c -0.53287,1.8e-4 -1.06994,0.13025 -1.61178,0.39015 -0.53518,0.25083 -1.01026,0.65855 -1.42524,1.22217 -0.47524,0.64542 -0.748,1.34842 -0.81803,2.10994 -0.0634,0.75242 0.0868,1.50067 0.45008,2.24483 0.37002,0.73504 0.93657,1.38388 1.70016,1.94612 0.77269,0.56893 1.56969,0.92432 2.39056,1.06609 0.81846,0.12599 1.58202,0.0504 2.29082,-0.22686 0.71546,-0.28628 1.30757,-0.74755 1.77612,-1.3839 0.41497,-0.56362 0.66611,-1.14276 0.75343,-1.73736 0.0849,-0.61037 0.0405,-1.16888 -0.13333,-1.67534 l 1.10432,0.81338 1.41594,-1.92236 z m 0.62838,4.07675 c 0.11316,9.8e-4 0.22868,0.01 0.34623,0.0264 0.46112,0.0591 0.92337,0.2591 1.38698,0.60047 0.46363,0.34136 0.79645,0.72705 0.9989,1.15652 0.19336,0.42278 0.26745,0.85569 0.2217,1.29863 -0.0549,0.43624 -0.21283,0.83142 -0.47387,1.18596 -0.25434,0.34544 -0.58642,0.60564 -0.99581,0.78084 -0.4027,0.16608 -0.84238,0.22106 -1.31929,0.16434 -0.4793,-0.0725 -0.94592,-0.27615 -1.40044,-0.61082 -0.4545,-0.33467 -0.77865,-0.71361 -0.97203,-1.13636 -0.19576,-0.43857 -0.26982,-0.87148 -0.22169,-1.29863 0.0482,-0.42717 0.20301,-0.81801 0.46405,-1.17255 0.26106,-0.35452 0.59624,-0.61905 1.00563,-0.79425 0.30022,-0.13645 0.62007,-0.20347 0.95964,-0.20051 z m 69.94663,0.66456 c -0.84405,0.0218 -1.67664,0.28064 -2.49804,0.77668 -0.8214,0.49604 -1.44129,1.10784 -1.85933,1.83505 -0.41217,0.73686 -0.6054,1.5196 -0.57981,2.34817 0.0353,0.8227 0.28659,1.62058 0.75345,2.39364 0.47271,0.78274 1.06789,1.38583 1.78541,1.80972 0.73305,0.4277 1.52416,0.63534 2.37403,0.62323 0.85571,-0.002 1.6942,-0.25173 2.5156,-0.74777 0.8214,-0.49604 1.43539,-1.11691 1.84177,-1.86346 0.41222,-0.73687 0.59766,-1.52149 0.55655,-2.35387 -0.0315,-0.8382 -0.28038,-1.64433 -0.74726,-2.41741 -0.46686,-0.77309 -1.06389,-1.36843 -1.7911,-1.78644 -0.71755,-0.42389 -1.50141,-0.62969 -2.35127,-0.61754 z m -51.21857,1.87947 -9.23613,9.23612 5.05962,-0.48112 0.30232,0.30232 1.79781,-1.79782 0.43614,0.43511 -1.79832,1.79885 0.48213,0.48112 1.38443,-1.38544 0.43667,0.43614 -1.38494,1.38543 0.54983,0.54986 1.88982,-1.88931 0.4351,0.43667 -1.88825,1.88931 11.98428,11.98478 0.46664,-0.48678 -10.68564,-10.68565 0.83817,-0.83614 10.66654,10.66705 2.33164,-2.43342 -14.54845,-14.54796 z m 17.07956,0 c -0.23981,-4e-4 -0.43672,0.004 -0.55036,0.0124 h -5e-4 c -0.46609,0.0362 -1.10506,0.10907 -1.42473,0.15762 -0.18875,0.0323 -0.42407,0.0689 -0.52038,0.0811 -0.34277,0.0565 -1.14803,0.22995 -1.69497,0.36742 -0.53539,0.13735 -1.5063,0.41601 -1.53326,0.44027 -0.006,0.006 0.0506,0.0326 0.12766,0.0569 0.11165,0.0323 0.1996,0.0246 0.43458,-0.0481 0.25807,-0.0727 0.401,-0.0853 1.10587,-0.0853 0.87821,0 1.1634,0.0361 1.97612,0.26252 0.83199,0.23034 1.53655,0.51366 2.35697,0.94205 3.07371,1.6207 5.02255,4.0945 4.91855,6.24871 -0.0269,0.51329 -0.10388,0.84384 -0.29663,1.27228 -0.23108,0.51731 -0.25011,0.59867 -0.25011,1.15239 0.005,0.58198 0.0847,0.9294 0.31576,1.36993 l 0.13485,0.2589 -5.29629,5.55728 -5.96966,6.23115 -0.10801,-0.0811 c -0.35052,-0.25866 -0.8623,-0.40362 -1.28984,-0.35917 -0.3043,0.0283 -0.69345,0.14853 -0.88987,0.27389 -0.077,0.0526 -0.67818,0.63093 -1.32914,1.28572 -11.62079,11.70067 -15.96138,16.09143 -16.09616,16.26928 -0.0886,0.11713 -0.22426,0.35108 -0.30128,0.51676 -0.12722,0.28697 -0.13486,0.32395 -0.13486,0.72813 0,0.38394 0.0105,0.45228 0.11522,0.70694 0.16571,0.40413 0.36653,0.69527 0.89038,1.29344 0.77806,0.88107 3.36672,3.55212 3.61323,3.72589 1.19787,0.84471 2.41461,0.87331 3.25046,0.0729 0.29273,-0.27887 16.0316,-17.7605 16.16644,-17.95447 0.35435,-0.50524 0.41965,-1.42644 0.14623,-2.04483 -0.0656,-0.14552 -0.15057,-0.29869 -0.18912,-0.34314 -0.0214,-0.0248 0.0792,-0.15779 0.28577,-0.39428 l 17.02996,17.03046 c 2.13307,2.13307 7.96954,4.2871 7.96954,4.2871 0,0 -2.13926,-5.84864 -4.27363,-7.98298 L 342.79168,272.7811 c 0.73488,-0.77031 0.95975,-1.0088 2.05155,-2.15439 l 5.3268,-5.58882 0.23514,0.1938 c 0.87821,0.74367 1.73755,0.94546 2.88922,0.68678 0.76653,-0.17391 1.13642,-0.1374 1.72186,0.15761 0.36978,0.18595 0.75824,0.50531 1.15498,0.95393 0.25808,0.29099 1.32178,1.66124 1.34874,1.74202 0.0115,0.0283 -0.13514,0.21444 -0.32763,0.41238 -0.53925,0.55779 -0.72451,1.02576 -0.68212,1.72495 0.10004,1.66515 1.86039,2.79321 3.23546,2.07378 0.15795,-0.0809 0.62063,-0.54515 2.15749,-2.14974 1.75641,-1.83896 1.96781,-2.07727 2.08722,-2.31974 0.41214,-0.86495 0.20844,-1.90801 -0.51573,-2.6598 -0.70101,-0.72342 -1.71834,-0.90937 -2.52336,-0.45268 l -0.18812,0.10851 -0.15036,-0.18137 c -0.29657,-0.35161 -0.86283,-1.17208 -1.04386,-1.51154 -0.10393,-0.18994 -0.29303,-0.58603 -0.42013,-0.88109 -0.39674,-0.93361 -0.78928,-1.73786 -1.02423,-2.12182 -0.52771,-0.84067 -1.15962,-1.65722 -1.99162,-2.5585 -2.19163,-2.37654 -5.84272,-6.25652 -6.12003,-6.50711 -1.93744,-1.74598 -3.99801,-2.69589 -6.62493,-3.05562 -0.33221,-0.0455 -1.43023,-0.0836 -2.14974,-0.0847 z m 34.49712,0.42632 c 0.16759,-0.002 0.3311,0.0143 0.49093,0.0496 0.65479,0.14528 1.15726,0.50797 1.50739,1.08778 0.35015,0.57981 0.43725,1.19306 0.26098,1.8402 -0.16076,0.65098 -0.62306,1.20708 -1.38649,1.66812 -0.51216,0.3093 -1.00523,0.47551 -1.4795,0.49816 -0.47424,0.0226 -0.90265,-0.0748 -1.28466,-0.29247 -0.36653,-0.21386 -0.66037,-0.50459 -0.88212,-0.8718 -0.35015,-0.57981 -0.43908,-1.18531 -0.26665,-1.81695 0.18794,-0.6278 0.66337,-1.17245 1.4268,-1.63348 0.57255,-0.34576 1.11058,-0.52229 1.61332,-0.52917 z m -76.9121,3.63286 c -1.25979,-0.0307 -2.3759,0.30747 -3.34811,1.01492 -0.97221,0.70744 -1.68033,1.68325 -2.12494,2.92695 -0.38001,1.06301 -0.47935,2.1123 -0.29817,3.14814 0.17434,1.0214 0.60763,1.93797 1.30069,2.74918 0.68624,0.7968 1.57678,1.39092 2.67168,1.78232 1.0949,0.39139 2.16035,0.49641 3.19619,0.31522 1.03963,-0.1918 1.9562,-0.62561 2.74918,-1.30122 0.78616,-0.69001 1.36925,-1.56628 1.74924,-2.62927 0.44842,-1.25436 0.52396,-2.45647 0.22739,-3.60548 -0.3034,-1.16345 -0.95724,-2.13434 -1.96165,-2.91301 l -0.91776,2.56731 c 0.44029,0.44511 0.71506,0.95067 0.82423,1.5172 0.10234,0.5521 0.0456,1.13146 -0.17105,1.73736 -0.23181,0.64844 -0.58759,1.17438 -1.06762,1.57821 -0.48689,0.38941 -1.05823,0.62889 -1.7136,0.71829 -0.6622,0.075 -1.35994,-0.0189 -2.09341,-0.28112 -0.74412,-0.26601 -1.34335,-0.636 -1.79732,-1.11001 -0.45015,-0.48461 -0.73465,-1.02954 -0.85369,-1.63554 -0.12586,-0.62045 -0.0731,-1.25482 0.15865,-1.90326 0.2166,-0.60592 0.53978,-1.09 0.96894,-1.45211 0.43294,-0.37269 0.96065,-0.59166 1.58337,-0.6568 z m 84.12096,3.20032 -8.99739,2.65462 0.67077,2.27375 4.96972,-1.46606 c 0.71462,-0.21082 1.31398,-0.19381 1.79835,0.0517 0.49839,0.25313 0.84047,0.6939 1.02576,1.32189 0.18209,0.61717 0.13089,1.16171 -0.15346,1.63401 -0.27355,0.46914 -0.76747,0.80926 -1.48209,1.0201 l -4.97025,1.46606 0.67128,2.27375 5.27825,-1.55699 c 1.21266,-0.3578 2.05727,-0.96616 2.53368,-1.8247 0.48728,-0.86172 0.57258,-1.8287 0.25632,-2.9006 -0.16613,-0.56304 -0.43304,-1.049 -0.801,-1.45831 -0.3539,-0.40169 -0.77028,-0.69654 -1.24952,-0.88471 l 1.12035,-0.33073 z m -86.05004,17.85316 -1.83555,4.73615 -5.07152,0.28215 3.93723,3.20913 -1.29863,4.9108 4.26847,-2.75281 4.269,2.75281 -1.29863,-4.9108 3.93671,-3.20913 -5.07153,-0.28215 z m 85.59943,0 -1.83555,4.73615 -5.07153,0.28215 3.93671,3.20913 -1.29863,4.9108 4.269,-2.75281 4.26847,2.75281 -1.29863,-4.9108 3.93724,-3.20913 -5.07153,-0.28215 z m -48.83578,0.1969 c -0.0207,0.0437 -0.60516,1.27577 -0.8754,1.84536 -0.13481,0.19402 -14.50068,14.79616 -14.79341,15.07506 -0.83585,0.80031 -0.48017,1.93106 1.55236,4.96713 -0.24651,-0.17378 -1.46315,-1.4051 -2.24121,-2.28616 -0.52385,-0.59819 -0.72416,-0.88881 -0.88987,-1.29294 -0.10464,-0.25466 -0.11472,-0.32348 -0.11472,-0.70747 0,-0.40415 0.007,-0.44061 0.13435,-0.7276 0.077,-0.16566 0.21214,-0.40013 0.30075,-0.51726 0.13481,-0.17783 3.10338,-3.12841 14.72417,-14.82908 0.65096,-0.65476 1.25204,-1.23319 1.32914,-1.28571 0.14139,-0.0903 0.6867,-0.19103 0.87384,-0.24133 z m 6.80992,1.30432 17.43871,17.43821 c 1.86352,2.14333 5.34181,4.28604 5.34181,4.28604 -3e-5,0 -4.17187,-1.44233 -6.17895,-3.4494 l -17.41392,-17.41342 c 0.1665,-0.17918 0.56092,-0.59571 0.81235,-0.86143 z m -33.03519,17.45371 -0.80253,0.66456 0.68159,1.18596 -7.30445,6.04822 -1.03818,-0.89037 -0.80203,0.66455 2.75746,3.33055 0.80254,-0.66458 -0.68109,-1.18544 3.15846,-2.61536 1.66449,1.93633 -2.63445,5.31852 1.28156,1.54721 0.82166,-0.68006 -0.41806,-0.73795 2.09187,-4.37285 c 0.1733,0.12303 0.34795,0.23543 0.52554,0.32607 0.54967,0.27512 1.10596,0.37651 1.66862,0.30385 0.56624,-0.0681 1.1211,-0.32721 1.66452,-0.77721 0.5519,-0.45702 0.91898,-0.96449 1.1007,-1.52289 0.18184,-0.5584 0.17891,-1.15372 -0.008,-1.78594 -0.17941,-0.63151 -0.54845,-1.28505 -1.10744,-1.96008 z m 65.88797,2.06034 c -0.0987,-5.6e-4 -0.19568,0.005 -0.29146,0.017 -0.77076,0.0911 -1.44145,0.5253 -2.01176,1.30328 -0.33891,0.46234 -0.53525,0.95441 -0.58912,1.47537 -0.055,0.51327 0.0205,1.02997 0.22685,1.5503 l -1.14205,-0.6935 -1.65674,2.26031 0.84646,0.62063 0.98393,-0.9498 5.15422,3.7786 -0.60979,1.2237 0.84024,0.61597 2.55645,-3.48766 -0.84026,-0.61544 -0.9834,0.9498 -4.23437,-3.1042 c -0.18851,-0.40476 -0.26828,-0.81817 -0.23876,-1.24076 0.0328,-0.42701 0.1881,-0.82979 0.46509,-1.20767 0.37801,-0.51599 0.7915,-0.80057 1.24076,-0.8537 0.45249,-0.0579 0.99674,0.14634 1.63245,0.61238 l 3.50057,2.56624 -0.60978,1.2242 0.84026,0.61601 2.55643,-3.48766 -0.84026,-0.61598 -0.9834,0.9498 -3.52743,-2.58588 c -0.83246,-0.61042 -1.59441,-0.91749 -2.28513,-0.92138 z m -64.97021,1.04436 1.52395,1.84074 c 0.53086,0.64105 0.78063,1.23232 0.7493,1.77352 -0.0313,0.54124 -0.29104,1.01373 -0.77928,1.41801 -0.51368,0.42537 -1.03621,0.58992 -1.56733,0.493 -0.53116,-0.0969 -1.08649,-0.4958 -1.66659,-1.19631 l -1.41901,-1.71307 z m 58.69565,6.41927 c -0.17651,-0.002 -0.35351,0.009 -0.53123,0.0325 -0.70673,0.0899 -1.37388,0.40381 -2.00195,0.94155 -0.61968,0.5306 -1.03063,1.14028 -1.23248,1.82832 -0.19775,0.68445 -0.19592,1.39364 0.005,2.12855 0.19751,0.7307 0.58293,1.43124 1.15652,2.10116 l 0.11835,0.13798 c 0.57359,0.66993 1.20809,1.16092 1.90323,1.47278 0.69159,0.30766 1.3908,0.41648 2.09756,0.3266 0.7072,-0.0977 1.37448,-0.41534 2.00245,-0.95292 0,0 5.2e-4,0 5.2e-4,0 0.62371,-0.53409 1.0359,-1.14141 1.23714,-1.82161 0.20148,-0.68027 0.20371,-1.38594 0.006,-2.11666 -0.20108,-0.73488 -0.59018,-1.43944 -1.16736,-2.11355 l -0.11835,-0.13798 c -0.57716,-0.67413 -1.21166,-1.16512 -1.90323,-1.47277 -0.51871,-0.23098 -1.04296,-0.34899 -1.57252,-0.35399 z m -9.21494,1.21645 -1.46865,0.87953 0.8966,1.49656 1.46812,-0.87953 z m 8.79327,0.20309 c 0.4508,-0.0159 0.9045,0.10684 1.36115,0.36896 0.45723,0.25435 0.88995,0.62029 1.29863,1.09763 l 0.11834,0.13798 c 0.40868,0.47731 0.70538,0.96366 0.88985,1.45881 0.1851,0.48736 0.23712,0.95482 0.15555,1.402 -0.0809,0.43939 -0.31851,0.82727 -0.7121,1.16424 -0.39777,0.3406 -0.82399,0.52107 -1.279,0.54055 -0.45436,0.0117 -0.9081,-0.11155 -1.36114,-0.36949 -0.45665,-0.2621 -0.88943,-0.63217 -1.2981,-1.10948 l -0.11835,-0.13798 c -0.40868,-0.47734 -0.7053,-0.95957 -0.89038,-1.44696 -0.18867,-0.49154 -0.24069,-0.95898 -0.15555,-1.40197 0.0815,-0.44715 0.31904,-0.83915 0.71261,-1.17615 0.39777,-0.34055 0.82409,-0.51642 1.27849,-0.52814 z m -53.86753,0.33486 c -0.60676,0.001 -1.2111,0.1424 -1.81332,0.42323 -0.68051,0.31993 -1.27804,0.81732 -1.79266,1.49243 l -0.22066,0.28938 c -0.53464,0.70138 -0.87439,1.41959 -1.01904,2.1549 -0.14028,0.73866 -0.0824,1.44483 0.17362,2.11822 0.25937,0.66903 0.71808,1.25421 1.37562,1.75546 0.58743,0.44778 1.1526,0.74726 1.69603,0.89813 0.55116,0.1497 1.04738,0.19881 1.48879,0.14727 l 0.13541,-1.22783 c -0.4082,0.0354 -0.82722,-0.0101 -1.2573,-0.13695 -0.42235,-0.12787 -0.85251,-0.3588 -1.29088,-0.69297 -0.39891,-0.30408 -0.66407,-0.66582 -0.79531,-1.08468 -0.13123,-0.41887 -0.14025,-0.86199 -0.0264,-1.32964 0.12163,-0.46868 0.35216,-0.93422 0.69093,-1.39682 l 0.045,-0.0181 4.61573,3.51866 0.61651,-0.80875 c 0.49122,-0.64439 0.80759,-1.28698 0.9493,-1.92751 0.14504,-0.64493 0.10117,-1.26392 -0.1323,-1.85778 -0.22912,-0.59049 -0.66378,-1.13011 -1.30381,-1.61798 -0.54795,-0.41769 -1.17287,-0.64793 -1.87481,-0.69093 -0.0868,-0.006 -0.17378,-0.008 -0.26046,-0.008 z m 0.37362,1.37305 c 0.36706,0.009 0.69512,0.12465 0.98444,0.34521 0.35946,0.274 0.59774,0.58002 0.71416,0.91829 0.12417,0.33721 0.14155,0.68701 0.0527,1.04902 -0.0811,0.36097 -0.25199,0.71225 -0.51263,1.0542 l -0.13023,0.17106 -3.28093,-2.50116 0.0119,-0.0434 c 0.32893,-0.33147 0.68022,-0.58314 1.05421,-0.75551 0.37396,-0.17235 0.74269,-0.25157 1.10638,-0.23771 z m 46.73153,1.4795 -2.55386,1.52961 0.53951,0.90072 1.27537,-0.49403 3.28403,5.48339 -1.03714,0.8909 0.53536,0.894 3.70986,-2.22208 -0.53536,-0.894 -1.27537,0.49403 z m -42.01864,0.42892 -0.43614,0.95496 1.13017,0.77052 -2.65515,5.81358 -1.32238,-0.3488 -0.43254,0.94721 3.93361,1.79679 0.43254,-0.94774 -1.12966,-0.7705 2.18074,-4.77594 c 0.35814,-0.26656 0.74761,-0.42836 1.16737,-0.48524 0.42482,-0.0544 0.85021,0.0157 1.27641,0.21034 0.58163,0.26562 0.94387,0.61272 1.08727,1.0418 0.14844,0.43135 0.0592,1.00587 -0.2682,1.72289 l -1.80351,3.94858 -1.32188,-0.34932 -0.43305,0.94773 3.93362,1.79629 0.43304,-0.94774 -1.13017,-0.7705 1.81695,-3.97859 c 0.49003,-1.07299 0.61108,-1.97503 0.3633,-2.70629 -0.24551,-0.73625 -0.80669,-1.30513 -1.68416,-1.70582 -0.52144,-0.2381 -1.04264,-0.33038 -1.56371,-0.27752 -0.51377,0.0502 -1.0046,0.22884 -1.47227,0.53642 l 0.44751,-1.25884 z m 35.8221,0.39634 -1.4981,0.63977 0.84751,1.98437 -1.30018,0.55552 0.47386,1.11001 1.30019,-0.55499 2.13321,4.99554 c 0.33546,0.78576 0.75753,1.28297 1.26605,1.49138 0.51144,0.20119 1.07117,0.17187 1.6795,-0.0878 0.27374,-0.1169 0.55689,-0.26781 0.84955,-0.45268 0.29774,-0.18706 0.54139,-0.35988 0.73123,-0.51885 l -0.62373,-0.89347 c -0.11086,0.0773 -0.26794,0.18045 -0.47077,0.30901 -0.205,0.12351 -0.39619,0.22296 -0.57362,0.29869 -0.2636,0.11255 -0.51414,0.10861 -0.75136,-0.0119 -0.23725,-0.12047 -0.43993,-0.37817 -0.60876,-0.77359 l -2.1332,-4.99608 1.78697,-0.76274 -0.47387,-1.11053 -1.78697,0.76327 z m -5.28392,4.01164 c -0.34895,0.005 -0.72233,0.0534 -1.11929,0.14417 -0.63407,0.14502 -1.19221,0.36021 -1.67537,0.64598 -0.48434,0.28038 -0.88685,0.62371 -1.20663,1.03042 l 0.45733,1.99935 1.22526,-0.28059 -0.10903,-1.25573 c 0.18465,-0.20622 0.40158,-0.3828 0.65061,-0.5302 0.24778,-0.15277 0.55443,-0.27094 0.91982,-0.35452 0.58034,-0.13269 1.06201,-0.0905 1.44539,0.12713 0.38876,0.21643 0.64336,0.58807 0.76378,1.11467 l 0.19534,0.85473 -1.55546,0.35552 c -0.80066,0.1831 -1.46225,0.45604 -1.98438,0.81857 -0.52334,0.35716 -0.89058,0.77761 -1.10225,1.2614 -0.20754,0.47721 -0.24852,0.99219 -0.12197,1.54565 0.18433,0.80602 0.56412,1.37832 1.13895,1.71619 0.57362,0.33247 1.3145,0.3947 2.22261,0.18706 0.52122,-0.1192 0.98096,-0.35954 1.37874,-0.72192 0.4019,-0.36898 0.71099,-0.78464 0.92758,-1.24695 0.0538,0.1856 0.11564,0.36893 0.18552,0.55086 0.0699,0.18193 0.15595,0.38598 0.25839,0.61135 l 2.28098,-0.52195 -0.23202,-1.01544 -0.86661,0.10491 c -0.0353,-0.10502 -0.0683,-0.21053 -0.0982,-0.31679 -0.0246,-0.10747 -0.0496,-0.21788 -0.0754,-0.33073 l -0.96018,-4.19923 c -0.21502,-0.94035 -0.68154,-1.59414 -1.39887,-1.96162 -0.44831,-0.22968 -0.96298,-0.3407 -1.54462,-0.33229 z m -18.34874,0.15505 c -0.46853,-0.004 -0.9117,0.0766 -1.32911,0.23976 -0.66247,0.26215 -1.22304,0.69737 -1.68156,1.30588 -0.45739,0.60309 -0.77563,1.33633 -0.95496,2.19985 l -0.0372,0.17778 c -0.17965,0.86352 -0.17986,1.66581 -0.002,2.40657 0.17944,0.73535 0.52041,1.35506 1.0237,1.8593 0.50982,0.49996 1.16967,0.83389 1.97921,1.00201 0.80415,0.167 1.53697,0.12239 2.19832,-0.13436 0.66133,-0.25672 1.22052,-0.68672 1.67793,-1.28984 0.45853,-0.60849 0.77814,-1.34697 0.95859,-2.21589 l 0.0372,-0.17827 c 0.18079,-0.86892 0.181,-1.67122 0.002,-2.40657 -0.17944,-0.73536 -0.52329,-1.35552 -1.03198,-1.86087 -0.50329,-0.50424 -1.15983,-0.84061 -1.96937,-1.00873 -0.29954,-0.0622 -0.58963,-0.0944 -0.87077,-0.0966 z m 13.88909,1.02783 -3.74552,0.0274 0.008,1.05008 1.20044,0.15658 -1.8066,5.10667 -0.25943,0.72138 h -0.0496 l -0.23667,-0.71725 -2.02157,-5.07876 1.16427,-0.17415 -0.008,-1.04955 -3.75378,0.0274 0.008,1.05007 0.92657,0.11729 3.24062,7.74838 1.43041,-0.0103 2.96881,-7.79383 0.94155,-0.13126 z m -13.82811,0.2713 c 0.17569,-0.005 0.35857,0.0132 0.5488,0.0527 0.51271,0.1065 0.91281,0.33544 1.19994,0.68782 0.28824,0.347 0.46818,0.78171 0.54001,1.30328 0.0784,0.51734 0.0534,1.08336 -0.0744,1.69862 l -0.0367,0.17828 c -0.12777,0.61526 -0.33134,1.14702 -0.61032,1.59576 -0.27244,0.44447 -0.61021,0.77139 -1.01388,0.9803 -0.39717,0.20466 -0.84971,0.25419 -1.35702,0.14883 -0.51271,-0.10647 -0.9161,-0.33403 -1.20976,-0.68212 -0.28712,-0.35237 -0.46707,-0.78658 -0.54001,-1.30276 -0.0718,-0.5216 -0.0435,-1.09008 0.0842,-1.70534 l 0.0367,-0.17775 c 0.1278,-0.61526 0.32803,-1.14512 0.6005,-1.58956 0.27358,-0.44987 0.61185,-0.77679 1.01441,-0.98031 0.25231,-0.13055 0.52472,-0.19995 0.81751,-0.20775 z m 20.08354,3.12901 0.36121,1.57975 c -0.10697,0.39764 -0.34909,0.77293 -0.72657,1.12498 -0.37751,0.35209 -0.82939,0.58809 -1.35599,0.70851 -0.47823,0.10935 -0.8586,0.0915 -1.14051,-0.0532 -0.28311,-0.15012 -0.46826,-0.41584 -0.55552,-0.79737 -0.0983,-0.42987 -0.004,-0.86114 0.28112,-1.29397 0.28554,-0.43284 0.79367,-0.73258 1.52448,-0.89969 z" />
  </g>
</svg>
