<?xml version="1.0" encoding="UTF-8" standalone="no"?>
<svg
   xmlns:dc="http://purl.org/dc/elements/1.1/"
   xmlns:cc="http://creativecommons.org/ns#"
   xmlns:rdf="http://www.w3.org/1999/02/22-rdf-syntax-ns#"
   xmlns:svg="http://www.w3.org/2000/svg"
   xmlns="http://www.w3.org/2000/svg"
   xmlns:sodipodi="http://sodipodi.sourceforge.net/DTD/sodipodi-0.dtd"
   xmlns:inkscape="http://www.inkscape.org/namespaces/inkscape"
   width="29.671177mm"
   height="29.894934mm"
   viewBox="0 0 29.671177 29.894934"
   version="1.1"
   id="svg8"
   inkscape:version="1.0.1 (c497b03c, 2020-09-10)"
   sodipodi:docname="plusdrain.svg">
  <defs
     id="defs2">
    <inkscape:path-effect
       effect="fillet_chamfer"
       id="path-effect1040"
       is_visible="true"
       lpeversion="1"
       satellites_param="F,0,0,1,0,3.96875,0,1 @ F,0,1,1,0,3.96875,0,1 @ F,0,0,1,0,0,0,1 @ F,0,0,1,0,0,0,1 @ F,0,0,1,0,3.96875,0,1 | F,0,0,1,0,0,0,1 @ F,0,0,1,0,0,0,1 @ F,0,0,1,0,0,0,1 @ F,0,0,1,0,0,0,1 @ F,0,0,1,0,0,0,1 @ F,0,0,1,0,0,0,1 @ F,0,0,1,0,0,0,1 @ F,0,0,1,0,0,0,1 @ F,0,0,1,0,0,0,1 @ F,0,0,1,0,0,0,1 | F,0,0,1,0,0,0,1 @ F,0,0,1,0,0,0,1 @ F,0,0,1,0,0,0,1 @ F,0,0,1,0,0,0,1 @ F,0,0,1,0,0,0,1 @ F,0,0,1,0,0,0,1 @ F,0,0,1,0,0,0,1 @ F,0,0,1,0,0,0,1 @ F,0,0,1,0,0,0,1 @ F,0,0,1,0,0,0,1 | F,0,0,1,0,0,0,1 @ F,0,0,1,0,0,0,1 @ F,0,0,1,0,0,0,1 @ F,0,0,1,0,0,0,1 @ F,0,0,1,0,0,0,1 @ F,0,0,1,0,0,0,1 @ F,0,0,1,0,0,0,1 @ F,0,0,1,0,0,0,1 @ F,0,0,1,0,0,0,1 @ F,0,0,1,0,0,0,1 | F,0,0,1,0,0,0,1 @ F,0,0,1,0,0,0,1 @ F,0,0,1,0,0,0,1 @ F,0,0,1,0,0,0,1 @ F,0,0,1,0,0,0,1 @ F,0,0,1,0,0,0,1 @ F,0,0,1,0,0,0,1 @ F,0,0,1,0,0,0,1 @ F,0,0,1,0,0,0,1 @ F,0,0,1,0,0,0,1 | F,0,0,1,0,0,0,1 @ F,0,0,1,0,0,0,1 @ F,0,0,1,0,0,0,1 @ F,0,0,1,0,0,0,1 @ F,0,0,1,0,0,0,1 @ F,0,0,1,0,0,0,1 @ F,0,0,1,0,0,0,1 @ F,0,0,1,0,0,0,1 | F,0,0,1,0,0,0,1 @ F,0,0,1,0,0,0,1 @ F,0,0,1,0,0,0,1 @ F,0,0,1,0,0,0,1 @ F,0,0,1,0,0,0,1 @ F,0,0,1,0,0,0,1 @ F,0,0,1,0,0,0,1 @ F,0,0,1,0,0,0,1 | F,0,0,1,0,0,0,1 @ F,0,0,1,0,0,0,1 @ F,0,0,1,0,0,0,1 @ F,0,0,1,0,0,0,1 @ F,0,0,1,0,0,0,1 @ F,0,0,1,0,0,0,1 @ F,0,0,1,0,0,0,1 @ F,0,0,1,0,0,0,1 | F,0,0,1,0,0,0,1 @ F,0,0,1,0,0,0,1 @ F,0,0,1,0,0,0,1 @ F,0,0,1,0,0,0,1 @ F,0,0,1,0,0,0,1 @ F,0,0,1,0,0,0,1 @ F,0,0,1,0,0,0,1 @ F,0,0,1,0,0,0,1"
       unit="px"
       method="auto"
       mode="F"
       radius="15"
       chamfer_steps="1"
       flexible="false"
       use_knot_distance="true"
       apply_no_radius="true"
       apply_with_radius="true"
       only_selected="true"
       hide_knots="false" />
    <inkscape:path-effect
       effect="fillet_chamfer"
       id="path-effect1036"
       is_visible="true"
       lpeversion="1"
       satellites_param="F,0,0,1,0,3.96875,0,1 @ F,0,1,1,0,3.96875,0,1 @ F,0,0,1,0,0,0,1 @ F,0,0,1,0,0,0,1 @ F,0,0,1,0,3.96875,0,1 | F,0,0,1,0,0,0,1 @ F,0,0,1,0,0,0,1 @ F,0,0,1,0,0,0,1 @ F,0,0,1,0,0,0,1 @ F,0,0,1,0,0,0,1 @ F,0,0,1,0,0,0,1 @ F,0,0,1,0,0,0,1 @ F,0,0,1,0,0,0,1 @ F,0,0,1,0,0,0,1 @ F,0,0,1,0,0,0,1 | F,0,0,1,0,0,0,1 @ F,0,0,1,0,0,0,1 @ F,0,0,1,0,0,0,1 @ F,0,0,1,0,0,0,1 @ F,0,0,1,0,0,0,1 @ F,0,0,1,0,0,0,1 @ F,0,0,1,0,0,0,1 @ F,0,0,1,0,0,0,1 @ F,0,0,1,0,0,0,1 @ F,0,0,1,0,0,0,1 | F,0,0,1,0,0,0,1 @ F,0,0,1,0,0,0,1 @ F,0,0,1,0,0,0,1 @ F,0,0,1,0,0,0,1 @ F,0,0,1,0,0,0,1 @ F,0,0,1,0,0,0,1 @ F,0,0,1,0,0,0,1 @ F,0,0,1,0,0,0,1 @ F,0,0,1,0,0,0,1 @ F,0,0,1,0,0,0,1 | F,0,0,1,0,0,0,1 @ F,0,0,1,0,0,0,1 @ F,0,0,1,0,0,0,1 @ F,0,0,1,0,0,0,1 @ F,0,0,1,0,0,0,1 @ F,0,0,1,0,0,0,1 @ F,0,0,1,0,0,0,1 @ F,0,0,1,0,0,0,1 @ F,0,0,1,0,0,0,1 @ F,0,0,1,0,0,0,1 | F,0,0,1,0,0,0,1 @ F,0,0,1,0,0,0,1 @ F,0,0,1,0,0,0,1 @ F,0,0,1,0,0,0,1 @ F,0,0,1,0,0,0,1 @ F,0,0,1,0,0,0,1 @ F,0,0,1,0,0,0,1 @ F,0,0,1,0,0,0,1 | F,0,0,1,0,0,0,1 @ F,0,0,1,0,0,0,1 @ F,0,0,1,0,0,0,1 @ F,0,0,1,0,0,0,1 @ F,0,0,1,0,0,0,1 @ F,0,0,1,0,0,0,1 @ F,0,0,1,0,0,0,1 @ F,0,0,1,0,0,0,1 | F,0,0,1,0,0,0,1 @ F,0,0,1,0,0,0,1 @ F,0,0,1,0,0,0,1 @ F,0,0,1,0,0,0,1 @ F,0,0,1,0,0,0,1 @ F,0,0,1,0,0,0,1 @ F,0,0,1,0,0,0,1 @ F,0,0,1,0,0,0,1 | F,0,0,1,0,0,0,1 @ F,0,0,1,0,0,0,1 @ F,0,0,1,0,0,0,1 @ F,0,0,1,0,0,0,1 @ F,0,0,1,0,0,0,1 @ F,0,0,1,0,0,0,1 @ F,0,0,1,0,0,0,1 @ F,0,0,1,0,0,0,1"
       unit="px"
       method="auto"
       mode="F"
       radius="15"
       chamfer_steps="1"
       flexible="false"
       use_knot_distance="true"
       apply_no_radius="true"
       apply_with_radius="true"
       only_selected="true"
       hide_knots="false" />
    <inkscape:path-effect
       effect="fillet_chamfer"
       id="path-effect1032"
       is_visible="true"
       lpeversion="1"
       satellites_param="F,0,0,1,0,2.6458333,0,1 @ F,0,0,1,0,2.6458333,0,1 @ F,0,0,1,0,2.6458333,0,1 @ F,0,0,1,0,2.6458333,0,1 | F,0,0,1,0,2.6458333,0,1 @ F,0,0,1,0,2.6458333,0,1 @ F,0,0,1,0,2.6458333,0,1 @ F,0,0,1,0,2.6458333,0,1 @ F,0,0,1,0,2.6458333,0,1 @ F,0,0,1,0,2.6458333,0,1 @ F,0,0,1,0,2.6458333,0,1 @ F,0,0,1,0,2.6458333,0,1 @ F,0,0,1,0,2.6458333,0,1 @ F,0,0,1,0,2.6458333,0,1 @ F,0,0,1,0,2.6458333,0,1 @ F,0,0,1,0,2.6458333,0,1"
       unit="px"
       method="auto"
       mode="F"
       radius="10"
       chamfer_steps="1"
       flexible="false"
       use_knot_distance="true"
       apply_no_radius="true"
       apply_with_radius="true"
       only_selected="false"
       hide_knots="false" />
    <inkscape:path-effect
       effect="fillet_chamfer"
       id="path-effect1007"
       is_visible="true"
       lpeversion="1"
       satellites_param="F,0,0,1,0,3.96875,0,1 @ F,0,1,1,0,3.96875,0,1 @ F,0,0,1,0,0,0,1 @ F,0,0,1,0,0,0,1 @ F,0,0,1,0,3.96875,0,1 | F,0,0,1,0,0,0,1 @ F,0,0,1,0,0,0,1 @ F,0,0,1,0,0,0,1 @ F,0,0,1,0,0,0,1 @ F,0,0,1,0,0,0,1 @ F,0,0,1,0,0,0,1 @ F,0,0,1,0,0,0,1 @ F,0,0,1,0,0,0,1 @ F,0,0,1,0,0,0,1 @ F,0,0,1,0,0,0,1 | F,0,0,1,0,0,0,1 @ F,0,0,1,0,0,0,1 @ F,0,0,1,0,0,0,1 @ F,0,0,1,0,0,0,1 @ F,0,0,1,0,0,0,1 @ F,0,0,1,0,0,0,1 @ F,0,0,1,0,0,0,1 @ F,0,0,1,0,0,0,1 @ F,0,0,1,0,0,0,1 @ F,0,0,1,0,0,0,1 | F,0,0,1,0,0,0,1 @ F,0,0,1,0,0,0,1 @ F,0,0,1,0,0,0,1 @ F,0,0,1,0,0,0,1 @ F,0,0,1,0,0,0,1 @ F,0,0,1,0,0,0,1 @ F,0,0,1,0,0,0,1 @ F,0,0,1,0,0,0,1 @ F,0,0,1,0,0,0,1 @ F,0,0,1,0,0,0,1 | F,0,0,1,0,0,0,1 @ F,0,0,1,0,0,0,1 @ F,0,0,1,0,0,0,1 @ F,0,0,1,0,0,0,1 @ F,0,0,1,0,0,0,1 @ F,0,0,1,0,0,0,1 @ F,0,0,1,0,0,0,1 @ F,0,0,1,0,0,0,1 @ F,0,0,1,0,0,0,1 @ F,0,0,1,0,0,0,1 | F,0,0,1,0,0,0,1 @ F,0,0,1,0,0,0,1 @ F,0,0,1,0,0,0,1 @ F,0,0,1,0,0,0,1 @ F,0,0,1,0,0,0,1 @ F,0,0,1,0,0,0,1 @ F,0,0,1,0,0,0,1 @ F,0,0,1,0,0,0,1 | F,0,0,1,0,0,0,1 @ F,0,0,1,0,0,0,1 @ F,0,0,1,0,0,0,1 @ F,0,0,1,0,0,0,1 @ F,0,0,1,0,0,0,1 @ F,0,0,1,0,0,0,1 @ F,0,0,1,0,0,0,1 @ F,0,0,1,0,0,0,1 | F,0,0,1,0,0,0,1 @ F,0,0,1,0,0,0,1 @ F,0,0,1,0,0,0,1 @ F,0,0,1,0,0,0,1 @ F,0,0,1,0,0,0,1 @ F,0,0,1,0,0,0,1 @ F,0,0,1,0,0,0,1 @ F,0,0,1,0,0,0,1 | F,0,0,1,0,0,0,1 @ F,0,0,1,0,0,0,1 @ F,0,0,1,0,0,0,1 @ F,0,0,1,0,0,0,1 @ F,0,0,1,0,0,0,1 @ F,0,0,1,0,0,0,1 @ F,0,0,1,0,0,0,1 @ F,0,0,1,0,0,0,1"
       unit="px"
       method="auto"
       mode="F"
       radius="15"
       chamfer_steps="1"
       flexible="false"
       use_knot_distance="true"
       apply_no_radius="true"
       apply_with_radius="true"
       only_selected="true"
       hide_knots="false" />
    <inkscape:path-effect
       effect="fillet_chamfer"
       id="path-effect999"
       is_visible="true"
       lpeversion="1"
       satellites_param="F,0,0,1,0,3.96875,0,1 @ F,0,1,1,0,3.96875,0,1 @ F,0,0,1,0,0,0,1 @ F,0,0,1,0,0,0,1 @ F,0,0,1,0,3.96875,0,1 | F,0,0,1,0,0,0,1 @ F,0,0,1,0,0,0,1 @ F,0,0,1,0,0,0,1 @ F,0,0,1,0,0,0,1 @ F,0,0,1,0,0,0,1 @ F,0,0,1,0,0,0,1 @ F,0,0,1,0,0,0,1 @ F,0,0,1,0,0,0,1 @ F,0,0,1,0,0,0,1 @ F,0,0,1,0,0,0,1 | F,0,0,1,0,0,0,1 @ F,0,0,1,0,0,0,1 @ F,0,0,1,0,0,0,1 @ F,0,0,1,0,0,0,1 @ F,0,0,1,0,0,0,1 @ F,0,0,1,0,0,0,1 @ F,0,0,1,0,0,0,1 @ F,0,0,1,0,0,0,1 @ F,0,0,1,0,0,0,1 @ F,0,0,1,0,0,0,1 | F,0,0,1,0,0,0,1 @ F,0,0,1,0,0,0,1 @ F,0,0,1,0,0,0,1 @ F,0,0,1,0,0,0,1 @ F,0,0,1,0,0,0,1 @ F,0,0,1,0,0,0,1 @ F,0,0,1,0,0,0,1 @ F,0,0,1,0,0,0,1 @ F,0,0,1,0,0,0,1 @ F,0,0,1,0,0,0,1 | F,0,0,1,0,0,0,1 @ F,0,0,1,0,0,0,1 @ F,0,0,1,0,0,0,1 @ F,0,0,1,0,0,0,1 @ F,0,0,1,0,0,0,1 @ F,0,0,1,0,0,0,1 @ F,0,0,1,0,0,0,1 @ F,0,0,1,0,0,0,1 @ F,0,0,1,0,0,0,1 @ F,0,0,1,0,0,0,1 | F,0,0,1,0,0,0,1 @ F,0,0,1,0,0,0,1 @ F,0,0,1,0,0,0,1 @ F,0,0,1,0,0,0,1 @ F,0,0,1,0,0,0,1 @ F,0,0,1,0,0,0,1 @ F,0,0,1,0,0,0,1 @ F,0,0,1,0,0,0,1 | F,0,0,1,0,0,0,1 @ F,0,0,1,0,0,0,1 @ F,0,0,1,0,0,0,1 @ F,0,0,1,0,0,0,1 @ F,0,0,1,0,0,0,1 @ F,0,0,1,0,0,0,1 @ F,0,0,1,0,0,0,1 @ F,0,0,1,0,0,0,1 | F,0,0,1,0,0,0,1 @ F,0,0,1,0,0,0,1 @ F,0,0,1,0,0,0,1 @ F,0,0,1,0,0,0,1 @ F,0,0,1,0,0,0,1 @ F,0,0,1,0,0,0,1 @ F,0,0,1,0,0,0,1 @ F,0,0,1,0,0,0,1 | F,0,0,1,0,0,0,1 @ F,0,0,1,0,0,0,1 @ F,0,0,1,0,0,0,1 @ F,0,0,1,0,0,0,1 @ F,0,0,1,0,0,0,1 @ F,0,0,1,0,0,0,1 @ F,0,0,1,0,0,0,1 @ F,0,0,1,0,0,0,1"
       unit="px"
       method="auto"
       mode="F"
       radius="15"
       chamfer_steps="1"
       flexible="false"
       use_knot_distance="true"
       apply_no_radius="true"
       apply_with_radius="true"
       only_selected="true"
       hide_knots="false" />
    <inkscape:path-effect
       effect="fillet_chamfer"
       id="path-effect965"
       is_visible="true"
       lpeversion="1"
       satellites_param="F,0,0,1,0,2.6458333,0,1 @ F,0,0,1,0,2.6458333,0,1 @ F,0,0,1,0,2.6458333,0,1 @ F,0,0,1,0,2.6458333,0,1 | F,0,0,1,0,2.6458333,0,1 @ F,0,0,1,0,2.6458333,0,1 @ F,0,0,1,0,2.6458333,0,1 @ F,0,0,1,0,2.6458333,0,1 @ F,0,0,1,0,2.6458333,0,1 @ F,0,0,1,0,2.6458333,0,1 @ F,0,0,1,0,2.6458333,0,1 @ F,0,0,1,0,2.6458333,0,1 @ F,0,0,1,0,2.6458333,0,1 @ F,0,0,1,0,2.6458333,0,1 @ F,0,0,1,0,2.6458333,0,1 @ F,0,0,1,0,2.6458333,0,1"
       unit="px"
       method="auto"
       mode="F"
       radius="10"
       chamfer_steps="1"
       flexible="false"
       use_knot_distance="true"
       apply_no_radius="true"
       apply_with_radius="true"
       only_selected="false"
       hide_knots="false" />
    <inkscape:path-effect
       effect="fillet_chamfer"
       id="path-effect896"
       is_visible="true"
       lpeversion="1"
       satellites_param="F,0,0,1,0,2.6458333,0,41 @ F,0,0,1,0,2.6458333,0,41 @ F,0,0,1,0,2.6458333,0,41 @ F,0,0,1,0,2.6458333,0,41 | F,0,0,1,0,2.6458333,0,41 @ F,0,0,1,0,2.6458333,0,41 @ F,0,0,1,0,2.6458333,0,41 @ F,0,0,1,0,2.6458333,0,41 | F,0,0,1,0,2.6458333,0,41 @ F,0,0,1,0,2.6458333,0,41 @ F,0,0,1,0,2.6458333,0,41 @ F,0,0,1,0,2.6458333,0,41 | F,0,0,1,0,2.6458333,0,41 @ F,0,0,1,0,2.6458333,0,41 @ F,0,0,1,0,2.6458333,0,41 @ F,0,0,1,0,2.6458333,0,41 | F,0,0,1,0,2.6458333,0,41 @ F,0,0,1,0,2.6458333,0,41 @ F,0,0,1,0,2.6458333,0,41 @ F,0,0,1,0,2.6458333,0,41 | F,0,0,1,0,2.6458333,0,41 @ F,0,0,1,0,2.6458333,0,41 @ F,0,0,1,0,2.6458333,0,41 @ F,0,0,1,0,2.6458333,0,41 | F,0,0,1,0,2.6458333,0,41 @ F,0,0,1,0,2.6458333,0,41 @ F,0,0,1,0,2.6458333,0,41 @ F,0,0,1,0,2.6458333,0,41 | F,0,0,1,0,2.6458333,0,41 @ F,0,0,1,0,2.6458333,0,41 @ F,0,0,1,0,2.6458333,0,41 @ F,0,0,1,0,2.6458333,0,41 | F,0,0,1,0,2.6458333,0,41 @ F,0,0,1,0,2.6458333,0,41 @ F,0,0,1,0,2.6458333,0,41 @ F,0,0,1,0,2.6458333,0,41 | F,0,0,1,0,2.6458333,0,41 @ F,0,0,1,0,2.6458333,0,41 @ F,0,0,1,0,2.6458333,0,41 @ F,0,0,1,0,2.6458333,0,41 | F,0,0,1,0,2.6458333,0,41 @ F,0,0,1,0,2.6458333,0,41 @ F,0,0,1,0,2.6458333,0,41 @ F,0,0,1,0,2.6458333,0,41 | F,0,0,1,0,2.6458333,0,41 @ F,0,0,1,0,2.6458333,0,41 @ F,0,0,1,0,2.6458333,0,41 @ F,0,0,1,0,2.6458333,0,41"
       unit="px"
       method="auto"
       mode="F"
       radius="10"
       chamfer_steps="42"
       flexible="false"
       use_knot_distance="true"
       apply_no_radius="true"
       apply_with_radius="true"
       only_selected="false"
       hide_knots="false" />
  </defs>
  <sodipodi:namedview
     id="base"
     pagecolor="#ffffff"
     bordercolor="#666666"
     borderopacity="1.0"
     inkscape:pageopacity="0.0"
     inkscape:pageshadow="2"
     inkscape:zoom="3.3411718"
     inkscape:cx="64.984371"
     inkscape:cy="3.0317758"
     inkscape:document-units="mm"
     inkscape:current-layer="layer1"
     inkscape:document-rotation="0"
     showgrid="false"
     inkscape:snap-bbox="true"
     inkscape:bbox-paths="true"
     inkscape:bbox-nodes="true"
     inkscape:snap-bbox-midpoints="false"
     inkscape:snap-bbox-edge-midpoints="false"
     inkscape:object-paths="false"
     inkscape:snap-midpoints="true"
     inkscape:snap-smooth-nodes="true"
     inkscape:snap-nodes="false"
     fit-margin-top="0"
     fit-margin-left="0"
     fit-margin-right="0"
     fit-margin-bottom="0"
     inkscape:window-width="1680"
     inkscape:window-height="1050"
     inkscape:window-x="0"
     inkscape:window-y="0"
     inkscape:window-maximized="0" />
  <metadata
     id="metadata5">
    <rdf:RDF>
      <cc:Work
         rdf:about="">
        <dc:format>image/svg+xml</dc:format>
        <dc:type
           rdf:resource="http://purl.org/dc/dcmitype/StillImage" />
        <dc:title></dc:title>
      </cc:Work>
    </rdf:RDF>
  </metadata>
  <g
     inkscape:label="Layer 1"
     inkscape:groupmode="layer"
     id="layer1"
     transform="translate(-82.411505,-250.902)">
    <path
       id="rect987"
       style="fill:#000000;fill-opacity:1;stroke:none;stroke-width:14.2408;stroke-linecap:round;stroke-linejoin:round;stroke-miterlimit:4;stroke-dasharray:none;stroke-opacity:1"
       d="m 434.48633,463.82227 v 112.98828 h 28.03564 55.62863 l 28.47831,-28.47831 v -84.50997 z m 48.97851,13.98242 c 1.18933,0.0509 2.0918,1.02024 2.0918,2.29883 v 4.77929 c 0,1.46128 -1.17402,2.80904 -2.59766,3.13672 -12.42459,2.86171 -22.16101,12.5972 -25.02343,25.02149 -0.32799,1.42359 -1.67544,2.59765 -3.13672,2.59765 h -4.77735 c -1.46124,0 -2.51759,-1.17877 -2.26171,-2.61719 3.17748,-17.86476 17.3151,-32.00201 35.17968,-35.17968 0.17981,-0.032 0.35549,-0.0444 0.52539,-0.0371 z m 14.1836,0 c 0.1699,-0.007 0.34558,0.005 0.52539,0.0371 17.86492,3.17767 32.00577,17.31492 35.18359,35.17968 0.25588,1.43842 -0.80048,2.61719 -2.26172,2.61719 h -4.77929 c -1.46128,0 -2.80866,-1.17406 -3.13672,-2.59765 -2.86243,-12.42429 -12.59885,-22.15978 -25.02344,-25.02149 -1.4236,-0.32787 -2.59961,-1.67544 -2.59961,-3.13672 v -4.77929 c 0,-1.27859 0.90248,-2.24793 2.0918,-2.29883 z m -14.13672,19.70312 c 1.15218,-0.1048 2.04492,0.78392 2.04492,2.0625 v 5.08985 c 0,1.46124 -1.13078,3.03843 -2.38086,3.79101 -1.97091,1.18651 -3.62209,2.83569 -4.80859,4.80664 -0.75258,1.25008 -2.32782,2.38086 -3.78907,2.38086 h -5.09179 c -1.46124,0 -2.41365,-1.16606 -1.95508,-2.55273 2.40797,-7.28153 8.19079,-13.06334 15.47266,-15.47071 0.17333,-0.0573 0.34321,-0.0924 0.50781,-0.10742 z m 14.08984,0 c 0.1646,0.015 0.33448,0.0501 0.50782,0.10742 7.28186,2.40737 13.06663,8.18918 15.4746,15.47071 0.45857,1.38667 -0.4938,2.55273 -1.95507,2.55273 h -5.0918 c -1.46124,0 -3.03844,-1.13078 -3.79102,-2.38086 -1.1865,-1.97095 -2.83768,-3.62013 -4.80859,-4.80664 -1.25008,-0.75258 -2.38086,-2.32977 -2.38086,-3.79101 v -5.08985 c 0,-1.27858 0.89276,-2.1673 2.04492,-2.0625 z m -47.58008,28.13086 h 4.77735 c 1.46128,0 2.80903,1.17601 3.13672,2.59961 2.86182,12.42542 12.5982,22.16334 25.02343,25.02539 1.42356,0.32791 2.59766,1.67548 2.59766,3.13672 v 4.77539 c 0,1.46124 -1.17874,2.51759 -2.61719,2.26172 -17.86518,-3.17749 -32.00479,-17.31634 -35.18164,-35.18164 -0.2558,-1.43849 0.80243,-2.61719 2.26367,-2.61719 z m 19.46485,0 h 5.08984 c 1.46124,0 3.03667,1.13067 3.78906,2.38086 1.18681,1.97197 2.83854,3.62378 4.81055,4.81055 1.25016,0.75239 2.38086,2.32977 2.38086,3.79101 v 5.08985 c 0,1.46124 -1.16603,2.41349 -2.55273,1.95508 -7.28244,-2.4076 -13.0651,-8.19218 -15.47266,-15.47461 -0.45846,-1.38671 0.49384,-2.55274 1.95508,-2.55274 z m 37.05273,0 h 5.08985 c 1.46127,0 2.41349,1.16603 1.95507,2.55274 -2.40755,7.28243 -8.19217,13.06701 -15.4746,15.47461 -1.38668,0.45841 -2.55274,-0.49384 -2.55274,-1.95508 v -5.08985 c 0,-1.46124 1.13071,-3.03858 2.38086,-3.79101 1.97189,-1.18685 3.62374,-2.83869 4.81055,-4.81055 0.75243,-1.25015 2.32977,-2.38086 3.79101,-2.38086 z m 19.77735,0 h 4.77929 c 1.46124,0 2.5176,1.17874 2.26172,2.61719 -3.17714,17.86533 -17.31811,32.00415 -35.18359,35.18164 -1.43845,0.25584 -2.61719,-0.80048 -2.61719,-2.26172 v -4.77539 c 0,-1.46124 1.17601,-2.80866 2.59961,-3.13672 12.4252,-2.86205 22.16162,-12.6 25.02344,-25.02539 0.32791,-1.42363 1.67544,-2.59961 3.13672,-2.59961 z"
       transform="scale(0.26458333)"
       sodipodi:nodetypes="cccccccssscssscssssssscsssssscsssssssscsssssssssssssscsssssssscssssssssssssscssscsssc" />
    <circle
       style="fill:#ff0000;fill-opacity:1;stroke:none;stroke-width:2.19337;stroke-linecap:round;stroke-linejoin:round;stroke-miterlimit:4;stroke-dasharray:none;stroke-opacity:1"
       id="path952"
       cx="122.98936"
       cy="84.565559"
       r="8.4953556" />
    <circle
       style="fill:none;stroke:#000000;stroke-width:2.64583;stroke-linecap:round;stroke-linejoin:round;stroke-miterlimit:4;stroke-dasharray:none;stroke-opacity:1"
       id="circle835"
       cx="57.083065"
       cy="80.116364"
       r="15.272449" />
    <circle
       style="fill:none;stroke:#000000;stroke-width:2.64583;stroke-linecap:round;stroke-linejoin:round;stroke-miterlimit:4;stroke-dasharray:none;stroke-opacity:1"
       id="circle839"
       cx="57.083065"
       cy="80.116364"
       r="10.181633" />
    <circle
       style="fill:none;stroke:#000000;stroke-width:2.64583;stroke-linecap:round;stroke-linejoin:round;stroke-miterlimit:4;stroke-dasharray:none;stroke-opacity:1"
       id="circle841"
       cx="57.083065"
       cy="80.116364"
       r="5.0908165" />
    <rect
       style="fill:#000000;fill-opacity:1;stroke:none;stroke-width:1.8375;stroke-linecap:round;stroke-linejoin:round;stroke-miterlimit:4;stroke-dasharray:none;stroke-opacity:1"
       id="rect845"
       width="2.6458333"
       height="52.916668"
       x="10.051483"
       y="44.278816" />
    <path
       id="path863"
       style="color:#000000;font-style:normal;font-variant:normal;font-weight:normal;font-stretch:normal;font-size:medium;line-height:normal;font-family:sans-serif;font-variant-ligatures:normal;font-variant-position:normal;font-variant-caps:normal;font-variant-numeric:normal;font-variant-alternates:normal;font-variant-east-asian:normal;font-feature-settings:normal;font-variation-settings:normal;text-indent:0;text-align:start;text-decoration:none;text-decoration-line:none;text-decoration-style:solid;text-decoration-color:#000000;letter-spacing:normal;word-spacing:normal;text-transform:none;writing-mode:lr-tb;direction:ltr;text-orientation:mixed;dominant-baseline:auto;baseline-shift:baseline;text-anchor:start;white-space:normal;shape-padding:0;shape-margin:0;inline-size:0;clip-rule:nonzero;display:inline;overflow:visible;visibility:visible;opacity:1;isolation:auto;mix-blend-mode:normal;color-interpolation:sRGB;color-interpolation-filters:linearRGB;solid-color:#000000;solid-opacity:1;vector-effect:none;fill:#000000;fill-opacity:1;fill-rule:nonzero;stroke:none;stroke-width:2.64583;stroke-linecap:round;stroke-linejoin:round;stroke-miterlimit:4;stroke-dasharray:none;stroke-dashoffset:0;stroke-opacity:1;color-rendering:auto;image-rendering:auto;shape-rendering:auto;text-rendering:auto;enable-background:accumulate;stop-color:#000000;stop-opacity:1"
       d="m 24.540402,106.01975 c -7.537668,0.91919 -13.529185,6.9109 -14.448545,14.44856 -0.04681,0.38375 0.24335,0.69647 0.629973,0.69647 h 1.252982 c 0.386623,0 0.727443,-0.31246 0.782608,-0.69508 0.879401,-6.09954 5.684866,-10.90564 11.784376,-11.78491 0.382627,-0.0552 0.695084,-0.39597 0.695084,-0.78259 v -1.25246 c 0,-0.38663 -0.312726,-0.67679 -0.696478,-0.62999 z m 3.342311,0.62999 v 1.25246 c 0,0.38662 0.312458,0.72743 0.695087,0.78259 6.099581,0.87926 10.905413,5.68537 11.78488,11.78491 0.05517,0.38263 0.395991,0.69508 0.782615,0.69508 h 1.252983 c 0.386623,0 0.676777,-0.31272 0.629967,-0.69647 -0.919425,-7.53757 -6.911449,-13.52925 -14.44906,-14.44855 -0.383749,-0.0468 -0.696472,0.24335 -0.696472,0.62998 z m -3.33838,4.51424 c -4.72667,0.84076 -8.467545,4.58154 -9.308262,9.30826 -0.06769,0.38058 0.212002,0.69254 0.598626,0.69254 h 1.263833 c 0.386623,0 0.743315,-0.31101 0.830093,-0.68767 0.757351,-3.28726 3.333237,-5.86295 6.620577,-6.62011 0.376661,-0.0867 0.68768,-0.44342 0.68768,-0.83005 v -1.26435 c 0,-0.38662 -0.311958,-0.66632 -0.692547,-0.59862 z m 3.33838,0.59862 v 1.26435 c 0,0.38663 0.311019,0.7433 0.68768,0.83005 3.287339,0.75716 5.863223,3.33285 6.620575,6.62011 0.08678,0.37666 0.44347,0.68767 0.830094,0.68767 h 1.264349 c 0.386623,0 0.666316,-0.31196 0.598616,-0.69254 -0.840799,-4.72672 -4.582014,-8.4675 -9.308769,-9.30826 -0.380588,-0.0677 -0.692545,0.212 -0.692545,0.59862 z m -3.321258,4.63321 c -1.926661,0.63695 -3.456897,2.16699 -4.094012,4.09356 -0.121328,0.36689 0.130703,0.67541 0.517327,0.67541 h 1.347032 c 0.386623,0 0.803867,-0.29922 1.002981,-0.62997 0.313936,-0.52148 0.75064,-0.95822 1.272114,-1.27215 0.33075,-0.19912 0.629983,-0.61633 0.629983,-1.00295 v -1.34652 c 0,-0.38662 -0.308528,-0.63868 -0.675425,-0.51738 z m 3.321258,0.51738 v 1.34652 c 0,0.38662 0.299232,0.80383 0.629982,1.00295 0.521473,0.31393 0.958177,0.75067 1.272112,1.27215 0.199114,0.33075 0.616358,0.62997 1.002982,0.62997 h 1.347031 c 0.386624,0 0.638655,-0.30852 0.517326,-0.67541 -0.637114,-1.92657 -2.167348,-3.45661 -4.094008,-4.09356 -0.366897,-0.1213 -0.675425,0.13076 -0.675425,0.51738 z m -17.790887,7.5939 c 0.919059,7.53797 6.91067,13.52991 14.44858,14.44909 0.38375,0.0468 0.696474,-0.24337 0.696474,-0.63 v -1.25246 c 0,-0.38663 -0.312459,-0.72743 -0.695087,-0.78259 -6.099861,-0.87925 -10.905881,-5.6855 -11.784936,-11.78543 -0.05514,-0.38263 -0.395939,-0.69508 -0.782562,-0.69508 H 10.72183 c -0.386623,0 -0.676792,0.31272 -0.630004,0.69647 z m 5.144216,-0.004 c 0.840539,4.72686 4.58146,8.46755 9.308291,9.30826 0.38059,0.0677 0.692547,-0.21201 0.692547,-0.59863 v -1.26332 c 0,-0.38662 -0.31102,-0.74329 -0.687679,-0.83005 -3.287503,-0.75725 -5.863424,-3.33358 -6.62062,-6.62114 -0.08675,-0.37666 -0.443428,-0.68767 -0.830051,-0.68767 h -1.263833 c -0.386624,0 -0.666333,0.31195 -0.598655,0.69255 z m 5.231344,-0.0171 c 0.637002,1.92681 2.16726,3.45706 4.094069,4.09407 0.366897,0.12129 0.675425,-0.13076 0.675425,-0.51738 v -1.34652 c 0,-0.38662 -0.299251,-0.80379 -0.630027,-1.00286 -0.521758,-0.314 -0.958668,-0.75097 -1.272675,-1.27272 -0.19907,-0.33078 -0.616269,-0.63001 -1.002892,-0.63001 H 20.98477 c -0.386624,0 -0.63868,0.30852 -0.517384,0.67542 z m 9.318013,-0.0454 c -0.314013,0.52172 -0.750943,0.95868 -1.272673,1.2727 -0.330769,0.19908 -0.630013,0.61627 -0.630013,1.00289 v 1.34652 c 0,0.38662 0.308528,0.63867 0.675425,0.51738 1.926807,-0.63701 3.457065,-2.16726 4.094066,-4.09407 0.121296,-0.3669 -0.13076,-0.67542 -0.517384,-0.67542 h -1.346515 c -0.386624,0 -0.803825,0.29923 -1.002906,0.63 z m 5.405611,0.0577 c -0.757197,3.28755 -3.333117,5.86388 -6.620619,6.62113 -0.376659,0.0868 -0.687678,0.44343 -0.687678,0.83005 v 1.26332 c 0,0.38662 0.311958,0.66632 0.692548,0.59863 4.726916,-0.84071 8.468178,-4.5814 9.308796,-9.30827 0.06768,-0.38059 -0.212023,-0.69254 -0.598646,-0.69254 h -1.264349 c -0.386624,0 -0.743298,0.31101 -0.830052,0.68768 z m 5.172235,0.007 c -0.879126,6.09993 -5.685515,10.90619 -11.785447,11.78544 -0.382628,0.0551 -0.695085,0.39595 -0.695085,0.78258 v 1.25246 c 0,0.38663 0.312725,0.67679 0.696477,0.62998 7.537853,-0.91929 13.529966,-6.9112 14.449087,-14.44907 0.04679,-0.38375 -0.243376,-0.69647 -0.629999,-0.69647 h -1.252465 c -0.386623,0 -0.727423,0.31245 -0.782568,0.69508 z" />
    <path
       id="path898"
       style="color:#000000;font-style:normal;font-variant:normal;font-weight:normal;font-stretch:normal;font-size:medium;line-height:normal;font-family:sans-serif;font-variant-ligatures:normal;font-variant-position:normal;font-variant-caps:normal;font-variant-numeric:normal;font-variant-alternates:normal;font-variant-east-asian:normal;font-feature-settings:normal;font-variation-settings:normal;text-indent:0;text-align:start;text-decoration:none;text-decoration-line:none;text-decoration-style:solid;text-decoration-color:#000000;letter-spacing:normal;word-spacing:normal;text-transform:none;writing-mode:lr-tb;direction:ltr;text-orientation:mixed;dominant-baseline:auto;baseline-shift:baseline;text-anchor:start;white-space:normal;shape-padding:0;shape-margin:0;inline-size:0;clip-rule:nonzero;display:inline;overflow:visible;visibility:visible;opacity:1;isolation:auto;mix-blend-mode:normal;color-interpolation:sRGB;color-interpolation-filters:linearRGB;solid-color:#000000;solid-opacity:1;vector-effect:none;fill:#000000;fill-opacity:1;fill-rule:nonzero;stroke:none;stroke-width:2.64583;stroke-linecap:round;stroke-linejoin:round;stroke-miterlimit:4;stroke-dasharray:none;stroke-dashoffset:0;stroke-opacity:1;color-rendering:auto;image-rendering:auto;shape-rendering:auto;text-rendering:auto;enable-background:accumulate;stop-color:#000000;stop-opacity:1"
       d="m 21.551077,141.84481 a 18.577112,18.577103 0 0 0 -18.5771617,18.57716 18.577112,18.577103 0 0 0 18.5771617,18.57716 18.577112,18.577103 0 0 0 18.57716,-18.57716 18.577112,18.577103 0 0 0 -18.57716,-18.57716 z m -1.879473,2.10685 c 0.316941,0.0295 0.556037,0.2937 0.556037,0.632 v 1.25264 c 0,0.38662 -0.31242,0.7277 -0.695047,0.7829 -6.099511,0.87926 -10.9048917,5.68526 -11.7842927,11.7848 -0.05517,0.38263 -0.395758,0.69505 -0.782381,0.69505 h -1.253154 c -0.386623,0 -0.676746,-0.31284 -0.629936,-0.6966 0.91936,-7.53765 6.9110627,-13.52954 14.4487297,-14.44872 0.04797,-0.006 0.09477,-0.006 0.140044,-0.002 z m 3.758427,0 c 0.04527,-0.004 0.09207,-0.004 0.140041,0.002 7.537612,0.9193 13.529823,6.91116 14.449248,14.44872 0.04681,0.38376 -0.243311,0.6966 -0.629936,0.6966 h -1.253151 c -0.386625,0 -0.727213,-0.31242 -0.782384,-0.69505 -0.879467,-6.09954 -5.685745,-10.90555 -11.785325,-11.7848 -0.382629,-0.0552 -0.695049,-0.39628 -0.695049,-0.7829 v -1.25264 c 0,-0.3383 0.239617,-0.60253 0.556556,-0.632 z m -3.755845,5.13715 c 0.314677,0.0135 0.553455,0.26942 0.553455,0.60772 v 1.26452 c 0,0.38663 -0.310634,0.74322 -0.687295,0.82992 -3.287342,0.75716 -5.863433,3.33301 -6.620785,6.62027 -0.08678,0.37666 -0.443301,0.68781 -0.829924,0.68781 h -1.264004 c -0.386625,0 -0.666104,-0.31188 -0.598413,-0.69246 0.840716,-4.72672 4.581286,-8.46772 9.307956,-9.30848 0.04758,-0.008 0.09406,-0.0112 0.13901,-0.009 z m 3.752744,0 c 0.04495,-0.002 0.09195,8.4e-4 0.139525,0.009 4.726755,0.84076 8.467678,4.58176 9.308476,9.30848 0.0677,0.38058 -0.211789,0.69246 -0.598414,0.69246 h -1.26452 c -0.386625,0 -0.743143,-0.31115 -0.829924,-0.68781 -0.757351,-3.28726 -3.333446,-5.86311 -6.620785,-6.62027 -0.376661,-0.0867 -0.687813,-0.44329 -0.687813,-0.82992 v -1.26452 c 0,-0.3383 0.238781,-0.59425 0.553455,-0.60772 z m -3.74034,5.2126 c 0.304847,-0.0277 0.541051,0.20741 0.541051,0.54571 v 1.34668 c 0,0.38662 -0.299185,0.80392 -0.629936,1.00304 -0.521472,0.31393 -0.95782,0.7508 -1.271756,1.27228 -0.199113,0.33075 -0.616416,0.62993 -1.003038,0.62993 h -1.347206 c -0.386625,0 -0.638609,-0.30852 -0.517281,-0.67541 0.637114,-1.92657 2.167146,-3.45685 4.093807,-4.0938 0.04586,-0.0152 0.09081,-0.0245 0.134359,-0.0284 z m 3.727936,0 c 0.04355,0.004 0.0885,0.0133 0.134361,0.0284 1.926659,0.63695 3.45721,2.16723 4.094324,4.0938 0.121327,0.36689 -0.130659,0.67541 -0.517282,0.67541 h -1.347205 c -0.386625,0 -0.803926,-0.29918 -1.003038,-0.62993 -0.313936,-0.52148 -0.750803,-0.95835 -1.272276,-1.27228 -0.33075,-0.19912 -0.629935,-0.61642 -0.629935,-1.00304 v -1.34668 c 0,-0.3383 0.236206,-0.57344 0.541051,-0.54571 z m 12.722223,7.44296 h 1.252635 c 0.386625,0 0.676727,0.31285 0.629936,0.6966 -0.91912,7.53787 -6.911393,13.52944 -14.449248,14.44873 -0.383751,0.0468 -0.696597,-0.24331 -0.696597,-0.62994 v -1.25212 c 0,-0.38663 0.31242,-0.72779 0.695049,-0.78289 6.099932,-0.87925 10.906718,-5.6854 11.785844,-11.78533 0.05514,-0.38263 0.395758,-0.69505 0.782381,-0.69505 z m -30.4239827,5.2e-4 h 1.252636 c 0.386622,0 0.727242,0.31241 0.782381,0.69504 0.879057,6.09993 5.6849507,10.90608 11.7848107,11.78533 0.382627,0.0552 0.695047,0.39575 0.695047,0.78238 v 1.25264 c 0,0.38663 -0.31233,0.67674 -0.696081,0.62993 -7.537911,-0.91917 -13.5296707,-6.91076 -14.4487297,-14.44872 -0.04679,-0.38375 0.243313,-0.6966 0.629936,-0.6966 z m 5.1128667,0 h 1.264004 c 0.386623,0 0.743173,0.31063 0.829924,0.68729 0.757195,3.28756 3.333282,5.86406 6.620785,6.6213 0.376659,0.0868 0.687295,0.44331 0.687295,0.82993 v 1.26349 c 0,0.38662 -0.311875,0.66611 -0.692465,0.59841 -4.726828,-0.84071 -8.467418,-4.5811 -9.307956,-9.30796 -0.06768,-0.3806 0.211788,-0.69246 0.598413,-0.69246 z m 5.150072,0 h 1.346687 c 0.386625,0 0.803455,0.29915 1.002525,0.62993 0.314005,0.52175 0.75103,0.95879 1.272788,1.27279 0.330777,0.19907 0.629936,0.6159 0.629936,1.00253 v 1.34668 c 0,0.38662 -0.308514,0.63858 -0.67541,0.51729 -1.926809,-0.63702 -3.456805,-2.167 -4.093807,-4.09381 -0.121296,-0.3669 0.130656,-0.67541 0.517281,-0.67541 z m 9.803535,0 h 1.346689 c 0.386623,0 0.638577,0.30851 0.517282,0.67541 -0.637003,1.92681 -2.167517,3.45679 -4.094324,4.09381 -0.366898,0.12129 -0.675412,-0.13067 -0.675412,-0.51729 v -1.34668 c 0,-0.38663 0.299167,-0.80345 0.629935,-1.00253 0.52173,-0.31402 0.958779,-0.75107 1.272792,-1.27279 0.19908,-0.33077 0.616415,-0.62993 1.003038,-0.62993 z m 5.232757,0 h 1.26452 c 0.386625,0 0.666094,0.31187 0.598414,0.69246 -0.840618,4.72687 -4.58156,8.46777 -9.308476,9.30848 -0.38059,0.0677 -0.69298,-0.21231 -0.69298,-0.59893 v -1.26349 c 0,-0.38662 0.311155,-0.74312 0.687813,-0.82993 3.287503,-0.75724 5.863587,-3.33323 6.620785,-6.62078 0.08675,-0.37667 0.443299,-0.68781 0.829924,-0.68781 z" />
    <path
       id="path908"
       style="color:#000000;font-style:normal;font-variant:normal;font-weight:normal;font-stretch:normal;font-size:medium;line-height:normal;font-family:sans-serif;font-variant-ligatures:normal;font-variant-position:normal;font-variant-caps:normal;font-variant-numeric:normal;font-variant-alternates:normal;font-variant-east-asian:normal;font-feature-settings:normal;font-variation-settings:normal;text-indent:0;text-align:start;text-decoration:none;text-decoration-line:none;text-decoration-style:solid;text-decoration-color:#000000;letter-spacing:normal;word-spacing:normal;text-transform:none;writing-mode:lr-tb;direction:ltr;text-orientation:mixed;dominant-baseline:auto;baseline-shift:baseline;text-anchor:start;white-space:normal;shape-padding:0;shape-margin:0;inline-size:0;clip-rule:nonzero;display:inline;overflow:visible;visibility:visible;opacity:1;isolation:auto;mix-blend-mode:normal;color-interpolation:sRGB;color-interpolation-filters:linearRGB;solid-color:#000000;solid-opacity:1;vector-effect:none;fill:#000000;fill-opacity:1;fill-rule:nonzero;stroke:none;stroke-width:2.64583;stroke-linecap:round;stroke-linejoin:round;stroke-miterlimit:4;stroke-dasharray:none;stroke-dashoffset:0;stroke-opacity:1;color-rendering:auto;image-rendering:auto;shape-rendering:auto;text-rendering:auto;enable-background:accumulate;stop-color:#000000;stop-opacity:1"
       d="m 24.441242,184.55717 a 13.914201,13.914201 0 0 0 -13.839465,13.91388 13.914201,13.914201 0 0 0 13.914397,13.91439 13.914201,13.914201 0 0 0 13.914395,-13.91439 13.914201,13.914201 0 0 0 -13.914395,-13.91388 13.914201,13.914201 0 0 0 -0.07493,0 z m -1.801956,2.58072 c 0.314677,0.0135 0.553453,0.26941 0.553453,0.60771 v 1.26453 c 0,0.38663 -0.310634,0.74322 -0.687295,0.82992 -3.287343,0.75716 -5.863433,3.33301 -6.620785,6.62027 -0.08678,0.37666 -0.4433,0.68781 -0.829923,0.68781 H 13.79073 c -0.386625,0 -0.666104,-0.31188 -0.598413,-0.69246 0.840716,-4.72672 4.581289,-8.46772 9.30796,-9.30848 0.04758,-0.008 0.09406,-0.011 0.139009,-0.009 z m 3.752742,0 c 0.04495,-0.002 0.09195,0.001 0.139525,0.009 4.726755,0.84076 8.46768,4.58176 9.308476,9.30848 0.0677,0.38058 -0.211786,0.69246 -0.598411,0.69246 h -1.264523 c -0.386625,0 -0.743143,-0.31115 -0.829924,-0.68781 -0.757351,-3.28726 -3.333446,-5.86311 -6.620785,-6.62027 -0.376661,-0.0867 -0.687814,-0.44329 -0.687814,-0.82992 v -1.26453 c 0,-0.3383 0.238782,-0.59424 0.553456,-0.60771 z m -3.740341,5.2126 c 0.304848,-0.0277 0.541052,0.2074 0.541052,0.5457 v 1.34669 c 0,0.38662 -0.299183,0.80392 -0.629936,1.00304 -0.52147,0.31393 -0.95782,0.7508 -1.271756,1.27228 -0.199113,0.33075 -0.616417,0.62993 -1.003039,0.62993 h -1.347205 c -0.386625,0 -0.638609,-0.30852 -0.517281,-0.67541 0.637114,-1.92657 2.167146,-3.45686 4.093807,-4.09381 0.04586,-0.0152 0.09081,-0.0245 0.134358,-0.0284 z m 3.72794,0 c 0.04355,0.004 0.0885,0.0133 0.134358,0.0284 1.926659,0.63695 3.45721,2.16724 4.094324,4.09381 0.121327,0.36689 -0.130659,0.67541 -0.517282,0.67541 h -1.347205 c -0.386625,0 -0.803926,-0.29918 -1.003038,-0.62993 -0.313936,-0.52148 -0.750803,-0.95835 -1.272276,-1.27228 -0.33075,-0.19912 -0.629936,-0.61642 -0.629936,-1.00304 v -1.34669 c 0,-0.3383 0.236207,-0.57343 0.541055,-0.5457 z m -12.588897,7.44347 h 1.264006 c 0.386623,0 0.743172,0.31064 0.829923,0.6873 0.757195,3.28756 3.333282,5.86406 6.620785,6.6213 0.376658,0.0868 0.687295,0.4433 0.687295,0.82992 v 1.26349 c 0,0.38662 -0.311872,0.66612 -0.692462,0.59842 -4.726829,-0.84071 -8.467422,-4.5811 -9.30796,-9.30796 -0.06768,-0.3806 0.211788,-0.69247 0.598413,-0.69247 z m 5.150073,0 h 1.346688 c 0.386625,0 0.803453,0.29916 1.002523,0.62994 0.314005,0.52175 0.751034,0.95879 1.272789,1.27279 0.330777,0.19907 0.629936,0.61589 0.629936,1.00252 v 1.34669 c 0,0.38662 -0.308515,0.63857 -0.67541,0.51728 -1.926809,-0.63702 -3.456805,-2.167 -4.093807,-4.09381 -0.121296,-0.3669 0.130656,-0.67541 0.517281,-0.67541 z m 9.803537,0 h 1.346687 c 0.386623,0 0.638575,0.30851 0.517282,0.67541 -0.637003,1.92681 -2.167517,3.45679 -4.094324,4.09381 -0.366898,0.12129 -0.675413,-0.13066 -0.675413,-0.51728 v -1.34669 c 0,-0.38663 0.29917,-0.80344 0.629936,-1.00252 0.521732,-0.31402 0.958779,-0.75107 1.272792,-1.27279 0.19908,-0.33077 0.616415,-0.62994 1.00304,-0.62994 z m 5.232755,0 h 1.264523 c 0.386625,0 0.666091,0.31188 0.598411,0.69247 -0.840616,4.72687 -4.58156,8.46776 -9.308476,9.30848 -0.38059,0.0677 -0.692981,-0.21232 -0.692981,-0.59894 v -1.26349 c 0,-0.38662 0.311156,-0.74311 0.687814,-0.82992 3.287503,-0.75724 5.863587,-3.33323 6.620785,-6.62078 0.08675,-0.37667 0.443299,-0.68782 0.829924,-0.68782 z" />
    <path
       id="path944"
       style="color:#000000;font-style:normal;font-variant:normal;font-weight:normal;font-stretch:normal;font-size:medium;line-height:normal;font-family:sans-serif;font-variant-ligatures:normal;font-variant-position:normal;font-variant-caps:normal;font-variant-numeric:normal;font-variant-alternates:normal;font-variant-east-asian:normal;font-feature-settings:normal;font-variation-settings:normal;text-indent:0;text-align:start;text-decoration:none;text-decoration-line:none;text-decoration-style:solid;text-decoration-color:#000000;letter-spacing:normal;word-spacing:normal;text-transform:none;writing-mode:lr-tb;direction:ltr;text-orientation:mixed;dominant-baseline:auto;baseline-shift:baseline;text-anchor:start;white-space:normal;shape-padding:0;shape-margin:0;inline-size:0;clip-rule:nonzero;display:inline;overflow:visible;visibility:visible;opacity:1;isolation:auto;mix-blend-mode:normal;color-interpolation:sRGB;color-interpolation-filters:linearRGB;solid-color:#000000;solid-opacity:1;vector-effect:none;fill:#000000;fill-opacity:1;fill-rule:nonzero;stroke:none;stroke-width:2.64583;stroke-linecap:round;stroke-linejoin:round;stroke-miterlimit:4;stroke-dasharray:none;stroke-dashoffset:0;stroke-opacity:1;color-rendering:auto;image-rendering:auto;shape-rendering:auto;text-rendering:auto;enable-background:accumulate;stop-color:#000000;stop-opacity:1"
       d="m 76.755713,123.094 c -4.72667,0.84076 -8.467545,4.58154 -9.308262,9.30826 -0.06769,0.38058 0.212002,0.69254 0.598626,0.69254 h 1.263833 c 0.386623,0 0.743315,-0.31101 0.830093,-0.68767 0.757351,-3.28726 3.333237,-5.86295 6.620577,-6.62011 0.376661,-0.0867 0.68768,-0.44342 0.68768,-0.83005 v -1.26435 c 0,-0.38662 -0.311958,-0.66632 -0.692547,-0.59862 z m 3.33838,0.59862 v 1.26435 c 0,0.38663 0.311019,0.7433 0.68768,0.83005 3.287339,0.75716 5.863223,3.33285 6.620575,6.62011 0.08678,0.37666 0.44347,0.68767 0.830094,0.68767 h 1.264349 c 0.386623,0 0.666316,-0.31196 0.598616,-0.69254 -0.840799,-4.72672 -4.582014,-8.4675 -9.308769,-9.30826 -0.380588,-0.0677 -0.692545,0.212 -0.692545,0.59862 z m -3.321258,4.63321 c -1.926661,0.63695 -3.456897,2.16699 -4.094012,4.09356 -0.121328,0.36689 0.130703,0.67541 0.517327,0.67541 h 1.347032 c 0.386623,0 0.803867,-0.29922 1.002981,-0.62997 0.313936,-0.52148 0.75064,-0.95822 1.272114,-1.27215 0.33075,-0.19912 0.629983,-0.61633 0.629983,-1.00295 v -1.34652 c 0,-0.38662 -0.308528,-0.63868 -0.675425,-0.51738 z m 3.321258,0.51738 v 1.34652 c 0,0.38662 0.299232,0.80383 0.629982,1.00295 0.521473,0.31393 0.958177,0.75067 1.272112,1.27215 0.199114,0.33075 0.616358,0.62997 1.002982,0.62997 H 84.3462 c 0.386624,0 0.638655,-0.30852 0.517326,-0.67541 -0.637114,-1.92657 -2.167348,-3.45661 -4.094008,-4.09356 -0.366897,-0.1213 -0.675425,0.13076 -0.675425,0.51738 z m -12.646671,7.5899 c 0.840539,4.72686 4.58146,8.46755 9.308291,9.30826 0.38059,0.0677 0.692547,-0.21201 0.692547,-0.59863 v -1.26332 c 0,-0.38662 -0.31102,-0.74329 -0.687679,-0.83005 -3.287503,-0.75725 -5.863424,-3.33358 -6.62062,-6.62114 -0.08675,-0.37666 -0.443428,-0.68767 -0.830051,-0.68767 h -1.263833 c -0.386624,0 -0.666333,0.31195 -0.598655,0.69255 z m 5.231344,-0.0171 c 0.637002,1.92681 2.16726,3.45706 4.094069,4.09407 0.366897,0.12129 0.675425,-0.13076 0.675425,-0.51738 v -1.34652 c 0,-0.38662 -0.299251,-0.80379 -0.630027,-1.00286 -0.521758,-0.314 -0.958668,-0.75097 -1.272675,-1.27272 -0.19907,-0.33078 -0.616269,-0.63001 -1.002892,-0.63001 H 73.19615 c -0.386624,0 -0.63868,0.30852 -0.517384,0.67542 z m 9.318013,-0.0454 c -0.314013,0.52172 -0.750943,0.95868 -1.272673,1.2727 -0.330769,0.19908 -0.630013,0.61627 -0.630013,1.00289 v 1.34652 c 0,0.38662 0.308528,0.63867 0.675425,0.51738 1.926807,-0.63701 3.457065,-2.16726 4.094066,-4.09407 0.121296,-0.3669 -0.13076,-0.67542 -0.517384,-0.67542 h -1.346515 c -0.386624,0 -0.803825,0.29923 -1.002906,0.63 z m 5.405611,0.0577 c -0.757197,3.28755 -3.333117,5.86388 -6.620619,6.62113 -0.376659,0.0868 -0.687678,0.44343 -0.687678,0.83005 v 1.26332 c 0,0.38662 0.311958,0.66632 0.692548,0.59863 4.726916,-0.84071 8.468178,-4.5814 9.308796,-9.30827 0.06768,-0.38059 -0.212023,-0.69254 -0.598646,-0.69254 h -1.264349 c -0.386624,0 -0.743298,0.31101 -0.830052,0.68768 z"
       sodipodi:nodetypes="csssscsscsscsssssssssssssssssssssssssssssssssssssssssssssscssssscsssssss" />
    <rect
       style="fill:#000000;fill-opacity:1;stroke:none;stroke-width:0.821755;stroke-linecap:round;stroke-linejoin:round;stroke-miterlimit:4;stroke-dasharray:none;stroke-opacity:1"
       id="rect948"
       width="2.6458333"
       height="10.583333"
       x="121.66645"
       y="79.273888" />
    <rect
       style="fill:#000000;fill-opacity:1;stroke:none;stroke-width:0.821755;stroke-linecap:round;stroke-linejoin:round;stroke-miterlimit:4;stroke-dasharray:none;stroke-opacity:1"
       id="rect950"
       width="10.583333"
       height="2.6458333"
       x="-128.28104"
       y="-85.888474"
       transform="scale(-1)" />
    <g
       id="g971"
       transform="translate(4.729517,-8.8678435)">
      <circle
         style="fill:#ffffff;fill-opacity:1;stroke:none;stroke-width:2.66607;stroke-linecap:round;stroke-linejoin:round;stroke-miterlimit:4;stroke-dasharray:none;stroke-opacity:1"
         id="path967"
         cx="82.41243"
         cy="177.29245"
         r="11.244" />
      <path
         id="circle954"
         style="fill:#000000;fill-opacity:1;stroke:none;stroke-width:2.64583;stroke-linecap:round;stroke-linejoin:round;stroke-miterlimit:4;stroke-dasharray:none;stroke-opacity:1"
         d="m 81.712912,167.06799 c -5.102413,0.34389 -9.181055,4.42254 -9.524947,9.52495 -0.02601,0.38567 -0.02601,1.01335 0,1.39903 0.343895,5.10241 4.422537,9.18105 9.524947,9.52494 0.385675,0.026 1.013357,0.026 1.399032,0 5.10241,-0.34389 9.18105,-4.42253 9.524945,-9.52494 0.02601,-0.38568 0.02601,-1.01336 0,-1.39903 -0.343893,-5.10241 -4.422535,-9.18106 -9.524945,-9.52495 -0.385675,-0.026 -1.013357,-0.026 -1.399032,0 z m 0.07664,3.60988 H 83.0353 a 0.70004339,0.70004339 0 0 1 0.700043,0.70004 v 3.89158 a 0.70004339,0.70004339 0 0 0 0.700042,0.70005 h 3.891582 a 0.70004339,0.70004339 0 0 1 0.700042,0.70004 v 1.24575 a 0.70004339,0.70004339 0 0 1 -0.700042,0.70004 h -3.891582 a 0.70004339,0.70004339 0 0 0 -0.700042,0.70004 v 3.89158 a 0.70004339,0.70004339 0 0 1 -0.700043,0.70005 h -1.245748 a 0.70004339,0.70004339 0 0 1 -0.700042,-0.70005 v -3.89158 a 0.70004339,0.70004339 0 0 0 -0.700043,-0.70004 h -3.891581 a 0.70004339,0.70004339 0 0 1 -0.700043,-0.70004 v -1.24575 a 0.70004339,0.70004339 0 0 1 0.700043,-0.70004 h 3.891581 a 0.70004339,0.70004339 0 0 0 0.700043,-0.70005 v -3.89158 a 0.70004339,0.70004339 0 0 1 0.700042,-0.70004 z" />
    </g>
    <g
       id="g977"
       transform="matrix(0.52679598,0,0,0.52679598,-10.907262,113.0652)">
      <circle
         style="fill:#ffffff;fill-opacity:1;stroke:none;stroke-width:2.66607;stroke-linecap:round;stroke-linejoin:round;stroke-miterlimit:4;stroke-dasharray:none;stroke-opacity:1"
         id="circle973"
         cx="82.41243"
         cy="177.29245"
         r="11.244" />
      <path
         id="path975"
         style="fill:#000000;fill-opacity:1;stroke:none;stroke-width:2.64583;stroke-linecap:round;stroke-linejoin:round;stroke-miterlimit:4;stroke-dasharray:none;stroke-opacity:1"
         d="m 81.712912,167.06799 c -5.102413,0.34389 -9.181055,4.42254 -9.524947,9.52495 -0.02601,0.38567 -0.02601,1.01335 0,1.39903 0.343895,5.10241 4.422537,9.18105 9.524947,9.52494 0.385675,0.026 1.013357,0.026 1.399032,0 5.10241,-0.34389 9.18105,-4.42253 9.524945,-9.52494 0.02601,-0.38568 0.02601,-1.01336 0,-1.39903 -0.343893,-5.10241 -4.422535,-9.18106 -9.524945,-9.52495 -0.385675,-0.026 -1.013357,-0.026 -1.399032,0 z m 0.07664,3.60988 H 83.0353 a 0.70004339,0.70004339 0 0 1 0.700043,0.70004 v 3.89158 a 0.70004339,0.70004339 0 0 0 0.700042,0.70005 h 3.891582 a 0.70004339,0.70004339 0 0 1 0.700042,0.70004 v 1.24575 a 0.70004339,0.70004339 0 0 1 -0.700042,0.70004 h -3.891582 a 0.70004339,0.70004339 0 0 0 -0.700042,0.70004 v 3.89158 a 0.70004339,0.70004339 0 0 1 -0.700043,0.70005 h -1.245748 a 0.70004339,0.70004339 0 0 1 -0.700042,-0.70005 v -3.89158 a 0.70004339,0.70004339 0 0 0 -0.700043,-0.70004 h -3.891581 a 0.70004339,0.70004339 0 0 1 -0.700043,-0.70004 v -1.24575 a 0.70004339,0.70004339 0 0 1 0.700043,-0.70004 h 3.891581 a 0.70004339,0.70004339 0 0 0 0.700043,-0.70005 v -3.89158 a 0.70004339,0.70004339 0 0 1 0.700042,-0.70004 z" />
    </g>
    <g
       id="g983"
       transform="matrix(0.73694705,0,0,0.73694705,76.360416,14.424423)">
      <circle
         style="fill:#ffffff;fill-opacity:1;stroke:none;stroke-width:2.66607;stroke-linecap:round;stroke-linejoin:round;stroke-miterlimit:4;stroke-dasharray:none;stroke-opacity:1"
         id="circle979"
         cx="82.41243"
         cy="177.29245"
         r="11.244" />
      <path
         id="path981"
         style="fill:#000000;fill-opacity:1;stroke:none;stroke-width:2.64583;stroke-linecap:round;stroke-linejoin:round;stroke-miterlimit:4;stroke-dasharray:none;stroke-opacity:1"
         d="m 81.712912,167.06799 c -5.102413,0.34389 -9.181055,4.42254 -9.524947,9.52495 -0.02601,0.38567 -0.02601,1.01335 0,1.39903 0.343895,5.10241 4.422537,9.18105 9.524947,9.52494 0.385675,0.026 1.013357,0.026 1.399032,0 5.10241,-0.34389 9.18105,-4.42253 9.524945,-9.52494 0.02601,-0.38568 0.02601,-1.01336 0,-1.39903 -0.343893,-5.10241 -4.422535,-9.18106 -9.524945,-9.52495 -0.385675,-0.026 -1.013357,-0.026 -1.399032,0 z m 0.07664,3.60988 H 83.0353 a 0.70004339,0.70004339 0 0 1 0.700043,0.70004 v 3.89158 a 0.70004339,0.70004339 0 0 0 0.700042,0.70005 h 3.891582 a 0.70004339,0.70004339 0 0 1 0.700042,0.70004 v 1.24575 a 0.70004339,0.70004339 0 0 1 -0.700042,0.70004 h -3.891582 a 0.70004339,0.70004339 0 0 0 -0.700042,0.70004 v 3.89158 a 0.70004339,0.70004339 0 0 1 -0.700043,0.70005 h -1.245748 a 0.70004339,0.70004339 0 0 1 -0.700042,-0.70005 v -3.89158 a 0.70004339,0.70004339 0 0 0 -0.700043,-0.70004 h -3.891581 a 0.70004339,0.70004339 0 0 1 -0.700043,-0.70004 v -1.24575 a 0.70004339,0.70004339 0 0 1 0.700043,-0.70004 h 3.891581 a 0.70004339,0.70004339 0 0 0 0.700043,-0.70005 v -3.89158 a 0.70004339,0.70004339 0 0 1 0.700042,-0.70004 z" />
    </g>
    <path
       id="path991"
       style="fill:#000000;fill-opacity:1;stroke:none;stroke-width:3.76788;stroke-linecap:round;stroke-linejoin:round;stroke-miterlimit:4;stroke-dasharray:none;stroke-opacity:1"
       d="m 143.54762,172.00849 v 21.95732 a 3.96875,3.96875 45 0 0 3.96875,3.96875 h 18.16742 l 7.53489,-7.53489 v -18.39118 a 3.96875,3.96875 45 0 0 -3.96875,-3.96875 l -21.73356,0 a 3.96875,3.96875 135 0 0 -3.96875,3.96875 z m 12.9589,-0.26923 c 0.31468,0.0135 0.55346,0.26994 0.55346,0.60823 v 1.26452 c 0,0.38663 -0.31063,0.74322 -0.6873,0.82992 -3.28734,0.75716 -5.86344,3.33301 -6.62078,6.62027 -0.0868,0.37666 -0.4433,0.6873 -0.82993,0.6873 h -1.264 c -0.38662,0 -0.66612,-0.31189 -0.59842,-0.69247 0.84071,-4.72672 4.58129,-8.4672 9.30796,-9.30795 0.0476,-0.008 0.0941,-0.0118 0.13901,-0.01 z m 3.75274,0 c 0.045,-0.002 0.0914,0.001 0.13901,0.01 4.72676,0.84076 8.4682,4.58124 9.309,9.30796 0.0677,0.38058 -0.2118,0.69246 -0.59842,0.69246 h -1.26452 c -0.38663,0 -0.74312,-0.31063 -0.82992,-0.68729 -0.75735,-3.28726 -3.33345,-5.86311 -6.62079,-6.62027 -0.37666,-0.0868 -0.68781,-0.44329 -0.68781,-0.82992 v -1.26452 c 0,-0.3383 0.23878,-0.59477 0.55345,-0.60824 z m -3.74034,5.21311 c 0.30485,-0.0277 0.54106,0.20742 0.54106,0.54571 v 1.34669 c 0,0.38662 -0.29919,0.80391 -0.62994,1.00303 -0.52147,0.31394 -0.95834,0.75028 -1.27227,1.27176 -0.19912,0.33075 -0.6159,0.62994 -1.00253,0.62994 h -1.3472 c -0.38662,0 -0.63861,-0.30852 -0.51728,-0.67541 0.63711,-1.92657 2.16714,-3.45634 4.09381,-4.09329 0.0459,-0.0152 0.0908,-0.0245 0.13435,-0.0284 z m 3.72794,0 c 0.0436,0.004 0.0885,0.0133 0.13436,0.0284 1.92666,0.63695 3.45721,2.16672 4.09432,4.09329 0.12133,0.36689 -0.13065,0.67541 -0.51728,0.67541 h -1.3472 c -0.38662,0 -0.80392,-0.29919 -1.00304,-0.62994 -0.31393,-0.52148 -0.7508,-0.95782 -1.27227,-1.27176 -0.33076,-0.19912 -0.62994,-0.61641 -0.62994,-1.00303 v -1.34669 c 0,-0.33829 0.23621,-0.57343 0.54105,-0.54571 z m -12.58889,7.44296 h 1.264 c 0.38663,0 0.74322,0.31115 0.82993,0.68781 0.75719,3.28756 3.33327,5.86405 6.62078,6.62131 0.37665,0.0867 0.6873,0.4433 0.6873,0.82992 v 1.26349 c 0,0.38662 -0.31188,0.66611 -0.69247,0.59841 -4.72683,-0.84071 -8.46793,-4.58161 -9.30847,-9.30847 -0.0677,-0.3806 0.21231,-0.69247 0.59893,-0.69247 z m 5.15007,0 h 1.34669 c 0.38662,0 0.80345,0.29916 1.00252,0.62994 0.31401,0.52175 0.75103,0.95879 1.27279,1.27279 0.33077,0.19907 0.62994,0.61642 0.62994,1.00304 v 1.34669 c 0,0.38662 -0.30852,0.63856 -0.67541,0.51728 -1.92682,-0.63701 -3.45681,-2.16752 -4.09381,-4.09433 -0.1213,-0.3669 0.13066,-0.67541 0.51728,-0.67541 z m 9.80353,0 h 1.34669 c 0.38663,0 0.63857,0.30851 0.51728,0.67541 -0.63699,1.92681 -2.16751,3.45732 -4.09432,4.09433 -0.36689,0.12128 -0.67541,-0.13066 -0.67541,-0.51728 v -1.34669 c 0,-0.38662 0.29917,-0.80396 0.62994,-1.00304 0.52172,-0.31402 0.95878,-0.75107 1.27279,-1.27279 0.19908,-0.33077 0.61641,-0.62994 1.00303,-0.62994 z m 5.23276,0 h 1.26452 c 0.38662,0 0.66612,0.31188 0.59842,0.69247 -0.84062,4.72686 -4.58209,8.46776 -9.309,9.30847 -0.38059,0.0677 -0.69246,-0.21179 -0.69246,-0.59841 v -1.26349 c 0,-0.38662 0.31115,-0.74313 0.68781,-0.82992 3.2875,-0.75726 5.8636,-3.33375 6.62079,-6.62131 0.0868,-0.37666 0.44329,-0.68781 0.82992,-0.68781 z"
       sodipodi:nodetypes="ccccccssscssscssssssscssssssssssssssscsssssssssssssscsssssssscssssssssssssscssscssscss"
       inkscape:path-effect="#path-effect999"
       inkscape:original-d="m 143.54762,168.03974 v 29.89482 h 22.13617 l 7.53489,-7.53489 v -22.35993 z m 12.9589,3.69952 c 0.31468,0.0135 0.55346,0.26994 0.55346,0.60823 v 1.26452 c 0,0.38663 -0.31063,0.74322 -0.6873,0.82992 -3.28734,0.75716 -5.86344,3.33301 -6.62078,6.62027 -0.0868,0.37666 -0.4433,0.6873 -0.82993,0.6873 h -1.264 c -0.38662,0 -0.66612,-0.31189 -0.59842,-0.69247 0.84071,-4.72672 4.58129,-8.4672 9.30796,-9.30795 0.0476,-0.008 0.0941,-0.0118 0.13901,-0.01 z m 3.75274,0 c 0.045,-0.002 0.0914,0.001 0.13901,0.01 4.72676,0.84076 8.4682,4.58124 9.309,9.30796 0.0677,0.38058 -0.2118,0.69246 -0.59842,0.69246 h -1.26452 c -0.38663,0 -0.74312,-0.31063 -0.82992,-0.68729 -0.75735,-3.28726 -3.33345,-5.86311 -6.62079,-6.62027 -0.37666,-0.0868 -0.68781,-0.44329 -0.68781,-0.82992 v -1.26452 c 0,-0.3383 0.23878,-0.59477 0.55345,-0.60824 z m -3.74034,5.21311 c 0.30485,-0.0277 0.54106,0.20742 0.54106,0.54571 v 1.34669 c 0,0.38662 -0.29919,0.80391 -0.62994,1.00303 -0.52147,0.31394 -0.95834,0.75028 -1.27227,1.27176 -0.19912,0.33075 -0.6159,0.62994 -1.00253,0.62994 h -1.3472 c -0.38662,0 -0.63861,-0.30852 -0.51728,-0.67541 0.63711,-1.92657 2.16714,-3.45634 4.09381,-4.09329 0.0459,-0.0152 0.0908,-0.0245 0.13435,-0.0284 z m 3.72794,0 c 0.0436,0.004 0.0885,0.0133 0.13436,0.0284 1.92666,0.63695 3.45721,2.16672 4.09432,4.09329 0.12133,0.36689 -0.13065,0.67541 -0.51728,0.67541 h -1.3472 c -0.38662,0 -0.80392,-0.29919 -1.00304,-0.62994 -0.31393,-0.52148 -0.7508,-0.95782 -1.27227,-1.27176 -0.33076,-0.19912 -0.62994,-0.61641 -0.62994,-1.00303 v -1.34669 c 0,-0.33829 0.23621,-0.57343 0.54105,-0.54571 z m -12.58889,7.44296 h 1.264 c 0.38663,0 0.74322,0.31115 0.82993,0.68781 0.75719,3.28756 3.33327,5.86405 6.62078,6.62131 0.37665,0.0867 0.6873,0.4433 0.6873,0.82992 v 1.26349 c 0,0.38662 -0.31188,0.66611 -0.69247,0.59841 -4.72683,-0.84071 -8.46793,-4.58161 -9.30847,-9.30847 -0.0677,-0.3806 0.21231,-0.69247 0.59893,-0.69247 z m 5.15007,0 h 1.34669 c 0.38662,0 0.80345,0.29916 1.00252,0.62994 0.31401,0.52175 0.75103,0.95879 1.27279,1.27279 0.33077,0.19907 0.62994,0.61642 0.62994,1.00304 v 1.34669 c 0,0.38662 -0.30852,0.63856 -0.67541,0.51728 -1.92682,-0.63701 -3.45681,-2.16752 -4.09381,-4.09433 -0.1213,-0.3669 0.13066,-0.67541 0.51728,-0.67541 z m 9.80353,0 h 1.34669 c 0.38663,0 0.63857,0.30851 0.51728,0.67541 -0.63699,1.92681 -2.16751,3.45732 -4.09432,4.09433 -0.36689,0.12128 -0.67541,-0.13066 -0.67541,-0.51728 v -1.34669 c 0,-0.38662 0.29917,-0.80396 0.62994,-1.00304 0.52172,-0.31402 0.95878,-0.75107 1.27279,-1.27279 0.19908,-0.33077 0.61641,-0.62994 1.00303,-0.62994 z m 5.23276,0 h 1.26452 c 0.38662,0 0.66612,0.31188 0.59842,0.69247 -0.84062,4.72686 -4.58209,8.46776 -9.309,9.30847 -0.38059,0.0677 -0.69246,-0.21179 -0.69246,-0.59841 v -1.26349 c 0,-0.38662 0.31115,-0.74313 0.68781,-0.82992 3.2875,-0.75726 5.8636,-3.33375 6.62079,-6.62131 0.0868,-0.37666 0.44329,-0.68781 0.82992,-0.68781 z" />
    <g
       id="g997"
       transform="matrix(0.73694705,0,0,0.73694705,104.9502,59.744524)">
      <circle
         style="fill:#ffffff;fill-opacity:1;stroke:none;stroke-width:2.66607;stroke-linecap:round;stroke-linejoin:round;stroke-miterlimit:4;stroke-dasharray:none;stroke-opacity:1"
         id="circle993"
         cx="82.41243"
         cy="177.29245"
         r="11.244" />
      <path
         id="path995"
         style="fill:#000000;fill-opacity:1;stroke:none;stroke-width:2.64583;stroke-linecap:round;stroke-linejoin:round;stroke-miterlimit:4;stroke-dasharray:none;stroke-opacity:1"
         d="m 81.712912,167.06799 c -5.102413,0.34389 -9.181055,4.42254 -9.524947,9.52495 -0.02601,0.38567 -0.02601,1.01335 0,1.39903 0.343895,5.10241 4.422537,9.18105 9.524947,9.52494 0.385675,0.026 1.013357,0.026 1.399032,0 5.10241,-0.34389 9.18105,-4.42253 9.524945,-9.52494 0.02601,-0.38568 0.02601,-1.01336 0,-1.39903 -0.343893,-5.10241 -4.422535,-9.18106 -9.524945,-9.52495 -0.385675,-0.026 -1.013357,-0.026 -1.399032,0 z m 0.07664,3.60988 H 83.0353 a 0.70004339,0.70004339 0 0 1 0.700043,0.70004 v 3.89158 a 0.70004339,0.70004339 0 0 0 0.700042,0.70005 h 3.891582 a 0.70004339,0.70004339 0 0 1 0.700042,0.70004 v 1.24575 a 0.70004339,0.70004339 0 0 1 -0.700042,0.70004 h -3.891582 a 0.70004339,0.70004339 0 0 0 -0.700042,0.70004 v 3.89158 a 0.70004339,0.70004339 0 0 1 -0.700043,0.70005 h -1.245748 a 0.70004339,0.70004339 0 0 1 -0.700042,-0.70005 v -3.89158 a 0.70004339,0.70004339 0 0 0 -0.700043,-0.70004 h -3.891581 a 0.70004339,0.70004339 0 0 1 -0.700043,-0.70004 v -1.24575 a 0.70004339,0.70004339 0 0 1 0.700043,-0.70004 h 3.891581 a 0.70004339,0.70004339 0 0 0 0.700043,-0.70005 v -3.89158 a 0.70004339,0.70004339 0 0 1 0.700042,-0.70004 z" />
    </g>
    <path
       id="path1034"
       style="fill:#000000;fill-opacity:1;stroke:none;stroke-width:3.76788;stroke-linecap:round;stroke-linejoin:round;stroke-miterlimit:4;stroke-dasharray:none;stroke-opacity:1"
       d="m 74.17009,204.48088 v 21.95732 a 3.96875,3.96875 45 0 0 3.96875,3.96875 l 18.16742,0 7.53489,-7.53489 0,-18.39118 a 3.96875,3.96875 45 0 0 -3.96875,-3.96875 l -21.73356,0 a 3.96875,3.96875 135 0 0 -3.96875,3.96875 z m 12.9589,-0.26923 c 0.31468,0.0135 0.55346,0.26994 0.55346,0.60823 v 1.26452 c 0,0.38663 -0.31063,0.74322 -0.6873,0.82992 -3.28734,0.75716 -5.86344,3.33301 -6.62078,6.62027 -0.0868,0.37666 -0.4433,0.6873 -0.82993,0.6873 h -1.264 c -0.38662,0 -0.66612,-0.31189 -0.59842,-0.69247 0.84071,-4.72672 4.58129,-8.4672 9.30796,-9.30795 0.0476,-0.008 0.0941,-0.0118 0.13901,-0.01 z m 3.75274,0 c 0.045,-0.002 0.0914,0.001 0.13901,0.01 4.72676,0.84076 8.4682,4.58124 9.309,9.30796 0.0677,0.38058 -0.2118,0.69246 -0.59842,0.69246 H 98.4668 c -0.38663,0 -0.74312,-0.31063 -0.82992,-0.68729 -0.75735,-3.28726 -3.33345,-5.86311 -6.62079,-6.62027 -0.37666,-0.0868 -0.68781,-0.44329 -0.68781,-0.82992 v -1.26452 c 0,-0.3383 0.23878,-0.59477 0.55345,-0.60824 z m -3.74034,5.21311 c 0.30485,-0.0277 0.54106,0.20742 0.54106,0.54571 v 1.34669 c 0,0.38662 -0.29919,0.80391 -0.62994,1.00303 -0.52147,0.31394 -0.95834,0.75028 -1.27227,1.27176 -0.19912,0.33075 -0.6159,0.62994 -1.00253,0.62994 h -1.3472 c -0.38662,0 -0.63861,-0.30852 -0.51728,-0.67541 0.63711,-1.92657 2.16714,-3.45634 4.09381,-4.09329 0.0459,-0.0152 0.0908,-0.0245 0.13435,-0.0284 z m 3.72794,0 c 0.0436,0.004 0.0885,0.0133 0.13436,0.0284 1.92666,0.63695 3.45721,2.16672 4.09432,4.09329 0.12133,0.36689 -0.13065,0.67541 -0.51728,0.67541 h -1.3472 c -0.38662,0 -0.80392,-0.29919 -1.00304,-0.62994 -0.31393,-0.52148 -0.7508,-0.95782 -1.27227,-1.27176 -0.33076,-0.19912 -0.62994,-0.61641 -0.62994,-1.00303 v -1.34669 c 0,-0.33829 0.23621,-0.57343 0.54105,-0.54571 z m -12.58889,7.44296 h 1.264 c 0.38663,0 0.74322,0.31115 0.82993,0.68781 0.75719,3.28756 3.33327,5.86405 6.62078,6.62131 0.37665,0.0867 0.6873,0.4433 0.6873,0.82992 v 1.26349 c 0,0.38662 -0.31188,0.66611 -0.69247,0.59841 -4.72683,-0.84071 -8.46793,-4.58161 -9.30847,-9.30847 -0.0677,-0.3806 0.21231,-0.69247 0.59893,-0.69247 z m 5.15007,0 h 1.34669 c 0.38662,0 0.80345,0.29916 1.00252,0.62994 0.31401,0.52175 0.75103,0.95879 1.27279,1.27279 0.33077,0.19907 0.62994,0.61642 0.62994,1.00304 v 1.34669 c 0,0.38662 -0.30852,0.63856 -0.67541,0.51728 -1.92682,-0.63701 -3.45681,-2.16752 -4.09381,-4.09433 -0.1213,-0.3669 0.13066,-0.67541 0.51728,-0.67541 z m 9.80353,0 h 1.34669 c 0.38663,0 0.63857,0.30851 0.51728,0.67541 -0.63699,1.92681 -2.16751,3.45732 -4.09432,4.09433 -0.36689,0.12128 -0.67541,-0.13066 -0.67541,-0.51728 v -1.34669 c 0,-0.38662 0.29917,-0.80396 0.62994,-1.00304 0.52172,-0.31402 0.95878,-0.75107 1.27279,-1.27279 0.19908,-0.33077 0.61641,-0.62994 1.00303,-0.62994 z m 5.23276,0 h 1.26452 c 0.38662,0 0.66612,0.31188 0.59842,0.69247 -0.84062,4.72686 -4.58209,8.46776 -9.309,9.30847 -0.38059,0.0677 -0.69246,-0.21179 -0.69246,-0.59841 v -1.26349 c 0,-0.38662 0.31115,-0.74313 0.68781,-0.82992 3.2875,-0.75726 5.8636,-3.33375 6.62079,-6.62131 0.0868,-0.37666 0.44329,-0.68781 0.82992,-0.68781 z"
       sodipodi:nodetypes="ccccccssscssscssssssscssssssssssssssscsssssssssssssscsssssssscssssssssssssscssscssscss"
       inkscape:path-effect="#path-effect1036"
       inkscape:original-d="m 74.17009,200.51213 v 29.89482 h 22.13617 l 7.53489,-7.53489 v -22.35993 z m 12.9589,3.69952 c 0.31468,0.0135 0.55346,0.26994 0.55346,0.60823 v 1.26452 c 0,0.38663 -0.31063,0.74322 -0.6873,0.82992 -3.28734,0.75716 -5.86344,3.33301 -6.62078,6.62027 -0.0868,0.37666 -0.4433,0.6873 -0.82993,0.6873 h -1.264 c -0.38662,0 -0.66612,-0.31189 -0.59842,-0.69247 0.84071,-4.72672 4.58129,-8.4672 9.30796,-9.30795 0.0476,-0.008 0.0941,-0.0118 0.13901,-0.01 z m 3.75274,0 c 0.045,-0.002 0.0914,0.001 0.13901,0.01 4.72676,0.84076 8.4682,4.58124 9.309,9.30796 0.0677,0.38058 -0.2118,0.69246 -0.59842,0.69246 H 98.4668 c -0.38663,0 -0.74312,-0.31063 -0.82992,-0.68729 -0.75735,-3.28726 -3.33345,-5.86311 -6.62079,-6.62027 -0.37666,-0.0868 -0.68781,-0.44329 -0.68781,-0.82992 v -1.26452 c 0,-0.3383 0.23878,-0.59477 0.55345,-0.60824 z m -3.74034,5.21311 c 0.30485,-0.0277 0.54106,0.20742 0.54106,0.54571 v 1.34669 c 0,0.38662 -0.29919,0.80391 -0.62994,1.00303 -0.52147,0.31394 -0.95834,0.75028 -1.27227,1.27176 -0.19912,0.33075 -0.6159,0.62994 -1.00253,0.62994 h -1.3472 c -0.38662,0 -0.63861,-0.30852 -0.51728,-0.67541 0.63711,-1.92657 2.16714,-3.45634 4.09381,-4.09329 0.0459,-0.0152 0.0908,-0.0245 0.13435,-0.0284 z m 3.72794,0 c 0.0436,0.004 0.0885,0.0133 0.13436,0.0284 1.92666,0.63695 3.45721,2.16672 4.09432,4.09329 0.12133,0.36689 -0.13065,0.67541 -0.51728,0.67541 h -1.3472 c -0.38662,0 -0.80392,-0.29919 -1.00304,-0.62994 -0.31393,-0.52148 -0.7508,-0.95782 -1.27227,-1.27176 -0.33076,-0.19912 -0.62994,-0.61641 -0.62994,-1.00303 v -1.34669 c 0,-0.33829 0.23621,-0.57343 0.54105,-0.54571 z m -12.58889,7.44296 h 1.264 c 0.38663,0 0.74322,0.31115 0.82993,0.68781 0.75719,3.28756 3.33327,5.86405 6.62078,6.62131 0.37665,0.0867 0.6873,0.4433 0.6873,0.82992 v 1.26349 c 0,0.38662 -0.31188,0.66611 -0.69247,0.59841 -4.72683,-0.84071 -8.46793,-4.58161 -9.30847,-9.30847 -0.0677,-0.3806 0.21231,-0.69247 0.59893,-0.69247 z m 5.15007,0 h 1.34669 c 0.38662,0 0.80345,0.29916 1.00252,0.62994 0.31401,0.52175 0.75103,0.95879 1.27279,1.27279 0.33077,0.19907 0.62994,0.61642 0.62994,1.00304 v 1.34669 c 0,0.38662 -0.30852,0.63856 -0.67541,0.51728 -1.92682,-0.63701 -3.45681,-2.16752 -4.09381,-4.09433 -0.1213,-0.3669 0.13066,-0.67541 0.51728,-0.67541 z m 9.80353,0 h 1.34669 c 0.38663,0 0.63857,0.30851 0.51728,0.67541 -0.63699,1.92681 -2.16751,3.45732 -4.09432,4.09433 -0.36689,0.12128 -0.67541,-0.13066 -0.67541,-0.51728 v -1.34669 c 0,-0.38662 0.29917,-0.80396 0.62994,-1.00304 0.52172,-0.31402 0.95878,-0.75107 1.27279,-1.27279 0.19908,-0.33077 0.61641,-0.62994 1.00303,-0.62994 z m 5.23276,0 h 1.26452 c 0.38662,0 0.66612,0.31188 0.59842,0.69247 -0.84062,4.72686 -4.58209,8.46776 -9.309,9.30847 -0.38059,0.0677 -0.69246,-0.21179 -0.69246,-0.59841 v -1.26349 c 0,-0.38662 0.31115,-0.74313 0.68781,-0.82992 3.2875,-0.75726 5.8636,-3.33375 6.62079,-6.62131 0.0868,-0.37666 0.44329,-0.68781 0.82992,-0.68781 z" />
    <circle
       style="fill:#ffffff;fill-opacity:1;stroke:none;stroke-width:2.56599;stroke-linecap:round;stroke-linejoin:round;stroke-miterlimit:4;stroke-dasharray:none;stroke-opacity:1"
       id="circle1021"
       cx="96.279045"
       cy="222.84485"
       r="9.9385729" />
    <path
       id="circle1015"
       style="fill:#000000;fill-opacity:1;stroke:none;stroke-width:1.95383;stroke-linecap:round;stroke-linejoin:round;stroke-miterlimit:4;stroke-dasharray:none;stroke-opacity:1"
       d="m 95.579975,215.30922 c -3.62149,0.33175 -6.50482,3.21507 -6.83655,6.83657 -0.0353,0.38487 -0.0353,1.01326 0,1.39814 0.33174,3.62149 3.21507,6.50481 6.83656,6.83655 0.38487,0.0353 1.01326,0.0353 1.39814,0 3.621495,-0.33174 6.504805,-3.21507 6.836545,-6.83656 0.0353,-0.38487 0.0353,-1.01326 0,-1.39814 -0.33174,-3.62149 -3.21507,-6.50482 -6.836555,-6.83656 -0.38487,-0.0353 -1.01326,-0.0353 -1.39814,0 z m 0.0762,2.24397 h 1.24575 a 0.70004339,0.70004339 0 0 1 0.70004,0.70004 v 2.56866 a 0.70004339,0.70004339 0 0 0 0.70004,0.70005 h 2.568675 a 0.70004339,0.70004339 0 0 1 0.70004,0.70004 v 1.24575 a 0.70004339,0.70004339 0 0 1 -0.70004,0.70004 h -2.568675 a 0.70004339,0.70004339 0 0 0 -0.70004,0.70004 v 2.56867 a 0.70004339,0.70004339 0 0 1 -0.70004,0.70004 h -1.24575 a 0.70004339,0.70004339 0 0 1 -0.70004,-0.70004 v -2.56867 a 0.70004339,0.70004339 0 0 0 -0.70005,-0.70004 h -2.56866 a 0.70004339,0.70004339 0 0 1 -0.70004,-0.70004 v -1.24575 a 0.70004339,0.70004339 0 0 1 0.70004,-0.70004 h 2.56866 a 0.70004339,0.70004339 0 0 0 0.70005,-0.70005 v -2.56866 a 0.70004339,0.70004339 0 0 1 0.70004,-0.70004 z" />
    <path
       id="path1038"
       style="fill:#000000;fill-opacity:1;stroke:none;stroke-width:14.2408;stroke-linecap:round;stroke-linejoin:round;stroke-miterlimit:4;stroke-dasharray:none;stroke-opacity:1"
       d="m 326.47656,948.29102 a 15,15 0 0 0 -15,15 v 82.98828 a 15,15 0 0 0 15,15 h 44.18946 a 37.56311,37.56311 0 0 1 -9.97657,-13.375 c -0.24227,0.037 -0.49395,0.049 -0.75976,0 -17.86519,-3.1773 -32.0048,-17.3163 -35.18164,-35.1816 -0.25588,-1.4385 0.80243,-2.6172 2.26367,-2.6172 h 4.77734 c 1.46128,0 2.809,1.176 3.13672,2.5996 2.68966,11.678 11.45305,20.9785 22.8125,24.4317 a 37.56311,37.56311 0 0 1 -0.26367,-4.4414 37.56311,37.56311 0 0 1 0.39062,-5.3907 c -6.26995,-2.7571 -11.17632,-8.0904 -13.34375,-14.6464 -0.45845,-1.3868 0.49384,-2.5528 1.95508,-2.5528 h 5.08985 c 1.46124,0 3.03667,1.1307 3.78906,2.3809 1.18681,1.9719 2.83854,3.6238 4.81055,4.8105 0.15848,0.095 0.3142,0.2043 0.46679,0.3242 a 37.56311,37.56311 0 0 1 19.46485,-19.38862 c -0.13353,-0.16603 -0.25699,-0.33451 -0.36133,-0.50782 -1.18651,-1.97095 -2.83769,-3.62009 -4.8086,-4.80664 -1.25011,-0.75258 -2.38086,-2.32977 -2.38085,-3.79101 v -5.08985 c 0,-1.27857 0.89277,-2.16727 2.04492,-2.0625 0.16478,0.0151 0.33448,0.0504 0.50781,0.10742 6.58286,2.17629 11.93246,7.11522 14.67969,13.42188 a 37.56311,37.56311 0 0 1 5.25781,-0.37109 37.56311,37.56311 0 0 1 4.57031,0.27929 c -3.4256,-11.41385 -12.74482,-20.22725 -24.46094,-22.92578 -1.42359,-0.32806 -2.5996,-1.67544 -2.5996,-3.13672 v -4.77929 c 0,-1.27862 0.90249,-2.24792 2.09179,-2.29883 0.17008,-0.008 0.34545,0.003 0.52539,0.0371 17.86491,3.17767 32.00577,17.31492 35.1836,35.17968 0.0562,0.31596 0.0374,0.61533 -0.0234,0.89649 a 37.56311,37.56311 0 0 1 13.29492,9.93749 v -45.03319 a 15,15 0 0 0 -15,-15 z m 33.97852,13.98242 c 1.18934,0.051 2.09179,1.02025 2.0918,2.29883 v 4.77929 c 0,1.46128 -1.17403,2.80904 -2.59766,3.13672 -12.42459,2.86171 -22.16105,12.5972 -25.02344,25.02149 -0.32806,1.42359 -1.67544,2.59763 -3.13672,2.59763 h -4.77734 c -1.46124,0 -2.51759,-1.17875 -2.26172,-2.61717 3.17749,-17.86476 17.31511,-32.00205 35.17969,-35.17968 0.1799,-0.0302 0.35565,-0.0439 0.52539,-0.0371 z m 0.0469,19.70312 c 1.15219,-0.10469 2.04492,0.78393 2.04493,2.0625 v 5.08985 c 0,1.46124 -1.13079,3.03843 -2.38086,3.79101 -1.97091,1.18655 -3.62209,2.83569 -4.8086,4.80664 -0.75258,1.25008 -2.32778,2.38084 -3.78906,2.38084 h -5.0918 c -1.46124,0 -2.41365,-1.16604 -1.95508,-2.55271 2.40798,-7.28153 8.19076,-13.06334 15.47266,-15.47071 0.17348,-0.0574 0.34321,-0.0927 0.50781,-0.10742 z m 34.53516,22.14064 c -0.95742,0 -1.91525,0.033 -2.64258,0.1 -13.68752,1.2539 -24.58411,12.1523 -25.83789,25.8398 -0.13342,1.4547 -0.13342,3.8286 0,5.2832 1.25382,13.6876 12.15037,24.5861 25.83789,25.8399 1.45463,0.1334 3.83049,0.1334 5.28516,0 13.68752,-1.2538 24.58602,-12.1523 25.83984,-25.8399 0.13342,-1.4546 0.13342,-3.8285 0,-5.2832 -1.25382,-13.6875 -12.15236,-24.586 -25.83984,-25.8398 -0.72732,-0.067 -1.68516,-0.1 -2.64258,-0.1 z m -2.35352,8.5801 h 4.70899 a 2.6458333,2.6458333 0 0 1 2.64453,2.6465 v 9.7089 a 2.6458333,2.6458333 0 0 0 2.64648,2.6446 h 9.70899 a 2.6458333,2.6458333 0 0 1 2.64453,2.6465 v 4.7089 a 2.6458333,2.6458333 0 0 1 -2.64453,2.6446 h -9.70899 a 2.6458333,2.6458333 0 0 0 -2.64648,2.6465 v 9.7089 a 2.6458333,2.6458333 0 0 1 -2.64453,2.6446 h -4.70899 a 2.6458333,2.6458333 0 0 1 -2.64648,-2.6446 v -9.7089 a 2.6458333,2.6458333 0 0 0 -2.64453,-2.6465 h -9.70899 a 2.6458333,2.6458333 0 0 1 -2.64648,-2.6446 v -4.7089 a 2.6458333,2.6458333 0 0 1 2.64648,-2.6465 h 9.70899 a 2.6458333,2.6458333 0 0 0 2.64453,-2.6446 v -9.7089 a 2.6458333,2.6458333 0 0 1 2.64648,-2.6465 z"
       transform="scale(0.26458333)" />
  </g>
</svg>
