<?xml version="1.0" encoding="UTF-8" standalone="no"?>
<svg
   xmlns:dc="http://purl.org/dc/elements/1.1/"
   xmlns:cc="http://creativecommons.org/ns#"
   xmlns:rdf="http://www.w3.org/1999/02/22-rdf-syntax-ns#"
   xmlns:svg="http://www.w3.org/2000/svg"
   xmlns="http://www.w3.org/2000/svg"
   xmlns:sodipodi="http://sodipodi.sourceforge.net/DTD/sodipodi-0.dtd"
   xmlns:inkscape="http://www.inkscape.org/namespaces/inkscape"
   width="167.28024mm"
   height="38.711353mm"
   viewBox="0 0 167.28024 38.711353"
   version="1.1"
   id="svg8"
   sodipodi:docname="logo-white.svg"
   inkscape:version="1.0.1 (c497b03c, 2020-09-10)">
  <defs
     id="defs2">
    <rect
       x="78.842201"
       y="175.55856"
       width="123.89489"
       height="65.620216"
       id="rect978" />
    <rect
       x="78.842201"
       y="175.55856"
       width="123.89489"
       height="65.620216"
       id="rect986" />
    <rect
       x="78.842201"
       y="175.55856"
       width="123.89489"
       height="65.620216"
       id="rect1038" />
    <rect
       x="78.842201"
       y="175.55856"
       width="123.89489"
       height="65.620216"
       id="rect1040" />
    <rect
       x="78.842201"
       y="175.55856"
       width="123.89489"
       height="65.620216"
       id="rect1103" />
    <rect
       x="78.842201"
       y="175.55856"
       width="123.89489"
       height="65.620216"
       id="rect1109" />
    <rect
       x="78.842201"
       y="175.55856"
       width="123.89489"
       height="65.620216"
       id="rect1196" />
  </defs>
  <sodipodi:namedview
     id="base"
     pagecolor="#ffffff"
     bordercolor="#666666"
     borderopacity="1.0"
     inkscape:pageopacity="0.0"
     inkscape:pageshadow="2"
     inkscape:zoom="0.16776598"
     inkscape:cx="-148.8973"
     inkscape:cy="258.25058"
     inkscape:document-units="mm"
     inkscape:current-layer="layer1"
     inkscape:document-rotation="0"
     showgrid="false"
     showguides="true"
     inkscape:guide-bbox="true"
     inkscape:snap-bbox="true"
     inkscape:object-paths="true"
     inkscape:snap-intersection-paths="true"
     inkscape:bbox-paths="true"
     inkscape:bbox-nodes="true"
     inkscape:snap-bbox-edge-midpoints="true"
     inkscape:snap-bbox-midpoints="true"
     inkscape:snap-global="true"
     inkscape:window-width="1680"
     inkscape:window-height="1050"
     inkscape:window-x="0"
     inkscape:window-y="0"
     inkscape:window-maximized="0"
     fit-margin-top="0"
     fit-margin-left="0"
     fit-margin-right="0"
     fit-margin-bottom="0" />
  <metadata
     id="metadata5">
    <rdf:RDF>
      <cc:Work
         rdf:about="">
        <dc:format>image/svg+xml</dc:format>
        <dc:type
           rdf:resource="http://purl.org/dc/dcmitype/StillImage" />
        <dc:title></dc:title>
      </cc:Work>
    </rdf:RDF>
  </metadata>
  <g
     inkscape:label="Layer 1"
     inkscape:groupmode="layer"
     id="layer1"
     transform="translate(-267.14958,-166.05134)">
    <path
       id="path1160"
       style="font-style:normal;font-variant:normal;font-weight:600;font-stretch:normal;font-size:16.93329999999999913px;line-height:1.25;font-family:Poppins;-inkscape-font-specification:'Poppins, Semi-Bold';font-variant-ligatures:normal;font-variant-caps:normal;font-variant-numeric:normal;font-variant-east-asian:normal;white-space:pre;fill:#ffffff;fill-opacity:1;stroke:none;stroke-width:3.77953"
       d="m 1037.1152,627.5957 -27.416,27.41602 15.0176,-1.42969 0.8984,0.89844 5.336,-5.33594 1.2949,1.29297 -5.3379,5.33789 1.4297,1.42773 4.1113,-4.11132 1.2969,1.29492 -4.1133,4.11133 1.6328,1.63281 5.6094,-5.60742 1.293,1.29492 -5.6055,5.60742 35.5723,35.57422 1.3847,-1.44336 -31.7168,-31.71875 2.4864,-2.48047 31.6621,31.66211 6.9218,-7.22265 -43.1835,-43.1836 z m 50.6973,0 c -0.7119,-10e-4 -1.2975,0.0107 -1.6348,0.0371 v 0 c -1.3835,0.10772 -3.2796,0.3228 -4.2285,0.4668 -0.5603,0.096 -1.2591,0.20433 -1.545,0.24023 -1.0174,0.16781 -3.4058,0.6838 -5.0293,1.0918 -1.5891,0.40777 -4.4707,1.2346 -4.5507,1.30664 -0.019,0.0189 0.1483,0.0981 0.3769,0.16992 0.3315,0.096 0.5935,0.0713 1.291,-0.14453 0.7661,-0.21581 1.191,-0.25195 3.2832,-0.25195 2.6068,0 3.4529,0.10714 5.8653,0.7793 2.4696,0.68375 4.5608,1.5233 6.9961,2.79492 9.1236,4.81073 14.9083,12.15255 14.5996,18.54687 -0.08,1.52364 -0.3088,2.5076 -0.8809,3.7793 -0.6859,1.53558 -0.7422,1.7744 -0.7422,3.41797 0.015,1.72751 0.252,2.76068 0.9375,4.06836 l 0.4004,0.76758 -15.7207,16.49609 -17.7207,18.49609 -0.3203,-0.24023 c -1.0404,-0.76777 -2.559,-1.19843 -3.8281,-1.06641 -0.9033,0.0839 -2.0595,0.44041 -2.6426,0.8125 -0.2287,0.1561 -2.0131,1.87286 -3.9453,3.81641 -34.4939,34.73095 -47.3773,47.76317 -47.7774,48.29101 -0.263,0.34772 -0.6659,1.04329 -0.8945,1.53516 -0.3776,0.85175 -0.3984,0.96046 -0.3984,2.16016 0,1.13968 0.03,1.34378 0.3418,2.09961 0.4918,1.19962 1.0857,2.06234 2.6406,3.83789 2.3095,2.61528 9.9948,10.54468 10.7266,11.06054 3.5556,2.50734 7.1674,2.59254 9.6484,0.2168 0.869,-0.82787 47.5861,-52.71907 47.9863,-53.29492 1.0518,-1.49964 1.2452,-4.2328 0.4336,-6.06836 -0.1946,-0.43193 -0.4461,-0.88755 -0.5605,-1.01953 -0.063,-0.0736 0.2342,-0.46785 0.8476,-1.16992 l 50.5489,50.55078 c 6.3315,6.3315 23.6562,12.72656 23.6562,12.72656 0,0 -6.3501,-17.35992 -12.6855,-23.69531 l -50.8614,-50.86133 c 2.1816,-2.28674 2.8485,-2.9934 6.0899,-6.39453 l 15.8105,-16.5918 0.6992,0.57617 c 2.6068,2.20747 5.1557,2.80691 8.5743,2.03907 2.2752,-0.51614 3.3735,-0.40881 5.1113,0.46679 1.0976,0.552 2.2501,1.50039 3.4277,2.83203 0.7661,0.86381 3.9239,4.93203 4.0039,5.17188 0.034,0.0839 -0.3993,0.63517 -0.9707,1.22266 -1.6006,1.65562 -2.1512,3.04567 -2.0254,5.12109 0.2971,4.94268 5.522,8.29168 9.6035,6.15625 0.4689,-0.24 1.8406,-1.62 6.4024,-6.38281 5.2135,-5.45859 5.8428,-6.16691 6.1973,-6.88672 1.2233,-2.56736 0.6182,-5.66111 -1.5313,-7.89258 -2.0808,-2.14741 -5.1007,-2.69943 -7.4902,-1.34375 l -0.5586,0.32226 -0.4453,-0.53906 c -0.8804,-1.04371 -2.5623,-3.47863 -3.0996,-4.48633 -0.3085,-0.56375 -0.8708,-1.7394 -1.2481,-2.61523 -1.1777,-2.77119 -2.3417,-5.15907 -3.0391,-6.29883 -1.5663,-2.49528 -3.4424,-4.91849 -5.9121,-7.59375 -6.5054,-7.05422 -17.3428,-18.57263 -18.166,-19.3164 -5.7509,-5.18264 -11.8686,-8.00065 -19.666,-9.06836 -0.9861,-0.13493 -4.2432,-0.24856 -6.3789,-0.25196 z m 466.2539,16.40235 c -1.5787,0 -2.9021,0.51311 -3.9687,1.53711 -1.024,0.98134 -1.5352,2.21762 -1.5352,3.71093 0,1.49335 0.5112,2.75335 1.5352,3.77735 1.0666,0.98134 2.39,1.4707 3.9687,1.4707 1.5787,0 2.8803,-0.48936 3.9043,-1.4707 1.0667,-1.024 1.5996,-2.284 1.5996,-3.77735 0,-1.49331 -0.5329,-2.72959 -1.5996,-3.71093 -1.024,-1.024 -2.3256,-1.53711 -3.9043,-1.53711 z m -335.4375,4.92968 c -4.2667,0 -8.128,0.98071 -11.584,2.94336 -3.4133,1.92 -6.1235,4.6283 -8.1289,8.12696 -1.9626,3.456 -2.9433,7.38268 -2.9433,11.77734 0,4.39466 0.9807,8.31942 2.9433,11.77539 2.0054,3.456 4.7156,6.16625 8.1289,8.12891 3.456,1.92 7.3173,2.8789 11.584,2.8789 5.0347,0 9.4071,-1.25807 13.1191,-3.77539 3.7547,-2.56 6.3778,-6.12218 7.8711,-10.6875 h -10.3027 c -1.024,2.13332 -2.4742,3.75394 -4.3516,4.86328 -1.8346,1.06666 -3.9684,1.59961 -6.4003,1.59961 -2.6027,0 -4.9286,-0.59635 -6.9766,-1.79101 -2.0054,-1.23734 -3.5843,-2.96689 -4.7363,-5.18555 -1.1094,-2.26134 -1.6641,-4.86266 -1.6641,-7.80664 0,-2.98666 0.5547,-5.58991 1.6641,-7.80859 1.152,-2.21866 2.7309,-3.92449 4.7363,-5.11914 2.048,-1.23735 4.3739,-1.85743 6.9766,-1.85743 2.4319,0 4.5657,0.53488 6.4003,1.60157 1.8774,1.06666 3.3276,2.66551 4.3516,4.79882 h 10.3027 c -1.4933,-4.52265 -4.1164,-8.06307 -7.8711,-10.62304 -3.7546,-2.56 -8.1271,-3.83985 -13.1191,-3.83985 z m 129.8496,0.17579 0.832,13.56836 h 6.0801 l 0.7676,-13.56836 z m 46.0762,0.84765 v 8.76758 h -4.2227 v 7.35937 h 4.2227 v 17.0879 c 0,7.33865 3.7761,11.00781 11.3281,11.00781 h 5.6328 v -7.55078 h -4.1601 c -1.3654,0 -2.3461,-0.25558 -2.9434,-0.76758 -0.5547,-0.55466 -0.832,-1.43034 -0.832,-2.625 v -17.15235 h 7.9355 v -7.35937 h -7.9355 v -8.76758 z m 131.5,0 v 8.76758 h -4.2227 v 7.35937 h 4.2227 v 17.0879 c 0,7.33865 3.7761,11.00781 11.3281,11.00781 h 5.6328 v -7.55078 h -4.1601 c -1.3654,0 -2.346,-0.25558 -2.9434,-0.76758 -0.5546,-0.55466 -0.832,-1.43034 -0.832,-2.625 v -17.15235 h 7.9355 v -7.35937 h -7.9355 v -8.76758 z m -264.8945,8.19141 c -3.0294,0 -5.7812,0.74689 -8.2559,2.24023 -2.432,1.49332 -4.3736,3.62705 -5.8242,6.40039 -1.408,2.77332 -2.1113,5.95116 -2.1113,9.53516 0,3.62666 0.7033,6.84806 2.1113,9.66406 1.4506,2.77332 3.3922,4.92885 5.8242,6.46485 2.4747,1.536 5.2067,2.30273 8.1934,2.30273 2.6453,0 4.9692,-0.53295 6.9746,-1.59961 2.048,-1.10934 3.6487,-2.49616 4.8007,-4.16016 v 5.1836 h 9.0235 v -35.45508 h -9.0235 v 5.05664 c -1.1946,-1.62132 -2.7954,-2.96654 -4.8007,-4.0332 -1.9627,-1.06669 -4.2668,-1.59961 -6.9121,-1.59961 z m 110.041,0 c -2.8587,0 -5.355,0.46952 -7.4883,1.4082 -2.0907,0.93866 -3.7113,2.21853 -4.8633,3.83984 -1.1093,1.62135 -1.6641,3.4143 -1.6641,5.37696 0,2.38934 0.5964,4.28734 1.7911,5.69531 1.2373,1.408 2.6875,2.45404 4.3515,3.13672 1.7067,0.68266 3.884,1.34242 6.5293,1.98242 2.56,0.68266 4.4144,1.32258 5.5664,1.91992 1.1947,0.55466 1.793,1.40855 1.793,2.56055 0,1.06666 -0.4913,1.94232 -1.4727,2.625 -0.9386,0.68266 -2.2601,1.02344 -3.9668,1.02344 -1.7493,0 -3.2213,-0.44775 -4.416,-1.34375 -1.152,-0.896 -1.8138,-2.02724 -1.9843,-3.39258 h -9.0235 c 0.128,2.176 0.8531,4.16112 2.1758,5.95312 1.3653,1.792 3.1999,3.22046 5.5039,4.28711 2.304,1.024 4.9053,1.53516 7.8066,1.53516 2.816,0 5.2707,-0.44775 7.3614,-1.34375 2.1333,-0.93866 3.7539,-2.2185 4.8633,-3.83984 1.152,-1.62132 1.7285,-3.45591 1.7285,-5.50391 -0.043,-2.34666 -0.6826,-4.22286 -1.92,-5.63086 -1.1946,-1.45066 -2.625,-2.51849 -4.289,-3.20117 -1.664,-0.68266 -3.776,-1.34438 -6.336,-1.98438 -2.5173,-0.64 -4.3717,-1.25815 -5.5664,-1.85547 -1.1946,-0.63999 -1.7929,-1.55726 -1.7929,-2.75195 0,-1.06666 0.4259,-1.89878 1.2793,-2.49609 0.896,-0.59734 2.156,-0.89649 3.7773,-0.89649 1.7494,0 3.1362,0.42791 4.1602,1.28125 1.0666,0.81066 1.663,1.92013 1.791,3.32813 h 8.5762 c -0.256,-3.584 -1.6429,-6.42106 -4.1602,-8.51172 -2.5173,-2.13334 -5.8874,-3.20117 -10.1113,-3.20117 z m 130.1777,0 c -3.4133,0 -6.4425,0.76869 -9.0879,2.30469 -2.6453,1.49334 -4.7137,3.62707 -6.207,6.40039 -1.4933,2.73065 -2.2402,5.93026 -2.2402,9.59961 0,3.66931 0.7469,6.89072 2.2402,9.66406 1.4933,2.73066 3.5617,4.86439 6.207,6.40039 2.6454,1.49332 5.6746,2.23828 9.0879,2.23828 4.352,0 7.9795,-1.12931 10.8809,-3.39062 2.9013,-2.26135 4.8429,-5.31235 5.8242,-9.15235 h -9.6641 c -1.1093,3.24266 -3.4788,4.86328 -7.1054,4.86328 -2.56,0 -4.5848,-0.91729 -6.0782,-2.75195 -1.4933,-1.87732 -2.2402,-4.50044 -2.2402,-7.87109 0,-3.41335 0.7469,-6.03839 2.2402,-7.87305 1.4934,-1.87732 3.5182,-2.81445 6.0782,-2.81445 1.792,0 3.2858,0.44775 4.4804,1.34375 1.2373,0.85331 2.113,2.04798 2.625,3.58398 h 9.6641 c -0.9813,-3.968 -2.9229,-7.0408 -5.8242,-9.2168 -2.8587,-2.21866 -6.4862,-3.32812 -10.8809,-3.32812 z m 81.8926,0 c -3.4134,0 -6.506,0.76869 -9.2793,2.30469 -2.7734,1.49334 -4.9705,3.62707 -6.5918,6.40039 -1.5787,2.77334 -2.3672,5.97295 -2.3672,9.59961 0,3.62665 0.7668,6.82629 2.3027,9.59961 1.5787,2.77334 3.7342,4.92884 6.4649,6.46484 2.7306,1.49332 5.8015,2.23828 9.2148,2.23828 3.456,0 6.5705,-0.74496 9.3438,-2.23828 2.816,-1.536 5.0349,-3.6915 6.6562,-6.46484 1.664,-2.77332 2.4961,-5.97296 2.4961,-9.59961 0,-3.62666 -0.8103,-6.82627 -2.4316,-9.59961 -1.5787,-2.77332 -3.754,-4.90705 -6.5274,-6.40039 -2.7733,-1.536 -5.8679,-2.30469 -9.2812,-2.30469 z m -273.2324,0.0645 c -2.176,0 -4.181,0.42598 -6.0157,1.2793 -1.792,0.85334 -3.264,2.02817 -4.416,3.52148 v -4.28906 h -8.959 v 35.45508 h 8.959 V 674.5918 c 0,-2.77332 0.7053,-4.88721 2.1133,-6.33789 1.4507,-1.49332 3.4121,-2.23829 5.8867,-2.23829 2.432,0 4.3518,0.74497 5.7598,2.23829 1.408,1.45068 2.1133,3.56457 2.1133,6.33789 v 19.58203 h 8.959 V 674.5918 c 0,-2.77332 0.7052,-4.88721 2.1132,-6.33789 1.4507,-1.49332 3.3903,-2.23829 5.8223,-2.23829 2.432,0 4.3537,0.74497 5.7617,2.23829 1.408,1.45068 2.1113,3.56457 2.1113,6.33789 v 19.58203 h 8.959 V 673.375 c 0,-4.77866 -1.3432,-8.49138 -4.0312,-11.13672 -2.6454,-2.68797 -6.1441,-4.03125 -10.4961,-4.03125 -2.56,0 -4.9493,0.61815 -7.168,1.85547 -2.176,1.23734 -3.8402,2.87973 -4.9922,4.92773 -1.1946,-2.176 -2.8806,-3.84018 -5.0566,-4.99218 -2.176,-1.19466 -4.6505,-1.79102 -7.4238,-1.79102 z m 127.8242,0 c -2.3894,0 -4.5231,0.53295 -6.4004,1.59961 -1.8347,1.06666 -3.3285,2.53867 -4.4805,4.41602 v -5.50391 h -8.959 v 35.45508 h 8.959 v -17.66211 c 0,-3.28532 0.7034,-5.58943 2.1114,-6.91211 1.4506,-1.32266 3.5843,-1.98438 6.4003,-1.98438 h 2.3692 z m 189.9316,0 c -2.2186,0 -4.2672,0.44775 -6.1445,1.34375 -1.8347,0.85332 -3.3483,2.04799 -4.543,3.58399 v -4.41602 h -8.9609 v 35.45508 h 8.9609 V 674.5918 c 0,-2.816 0.7033,-4.97153 2.1114,-6.46485 1.4506,-1.536 3.4139,-2.30468 5.8886,-2.30468 2.432,0 4.3518,0.76868 5.7598,2.30468 1.408,1.49332 2.1113,3.64885 2.1113,6.46485 v 19.58203 h 8.961 V 673.375 c 0,-4.77866 -1.3017,-8.49138 -3.9043,-11.13672 -2.6027,-2.68797 -6.0163,-4.03125 -10.2403,-4.03125 z m -184.2168,0.51172 v 20.80078 c 0,3.15732 0.5964,5.88741 1.791,8.19141 1.2374,2.26131 2.9234,3.98891 5.0567,5.18359 2.1333,1.15198 4.586,1.72852 7.3594,1.72852 2.176,0 4.1809,-0.42598 6.0156,-1.2793 1.8773,-0.896 3.3929,-2.11244 4.5449,-3.64844 v 4.47852 h 9.0234 V 658.7188 h -9.0234 v 19.51953 c 0,2.816 -0.7033,4.9933 -2.1113,6.5293 -1.408,1.49331 -3.3496,2.23828 -5.8242,2.23828 -2.432,0 -4.3518,-0.74497 -5.7598,-2.23828 -1.408,-1.536 -2.1133,-3.7133 -2.1133,-6.5293 V 658.7188 Z m 105.9434,0 v 35.45508 h 8.9609 V 658.7188 Z m 33.623,7.23242 c 2.56,0 4.7136,0.9173 6.4629,2.75195 1.792,1.792 2.6895,4.37349 2.6895,7.74415 0,2.26131 -0.428,4.1811 -1.2813,5.75976 -0.8533,1.57868 -2.0044,2.77333 -3.4551,3.58399 -1.408,0.768 -2.9235,1.15234 -4.5449,1.15234 -2.56,0 -4.6918,-0.89745 -6.3984,-2.68945 -1.664,-1.83466 -2.4961,-4.43599 -2.4961,-7.80664 0,-3.37066 0.8519,-5.95214 2.5586,-7.74415 1.7493,-1.83465 3.9048,-2.75195 6.4648,-2.75195 z m -319.6797,0.0644 c 1.664,10e-6 3.2213,0.42596 4.6719,1.2793 1.4507,0.81066 2.6037,2.00533 3.4571,3.58399 0.8533,1.536 1.2792,3.39236 1.2792,5.56836 0,2.176 -0.4259,4.0522 -1.2792,5.63085 -0.8534,1.536 -2.0064,2.73067 -3.4571,3.58399 -1.4506,0.81068 -3.0079,1.2168 -4.6719,1.2168 -1.6213,0 -3.1567,-0.42596 -4.6074,-1.2793 -1.408,-0.85334 -2.561,-2.06978 -3.457,-3.64844 -0.8533,-1.62131 -1.2793,-3.49947 -1.2793,-5.63281 0,-2.13332 0.426,-3.96791 1.2793,-5.50391 0.896,-1.57868 2.049,-2.77332 3.457,-3.58398 1.408,-0.81066 2.9434,-1.21485 4.6074,-1.21485 z m -198.1543,36.70899 c -0.063,0.13319 -1.7959,3.78666 -2.5976,5.47656 -0.4002,0.57589 -43.0432,43.91631 -43.9121,44.74414 -2.481,2.37562 -1.4238,5.73419 4.6094,14.7461 -0.7318,-0.51587 -4.3429,-4.17183 -6.6524,-6.78711 -1.5549,-1.77555 -2.1488,-2.63827 -2.6406,-3.83789 -0.3107,-0.75583 -0.3438,-0.95993 -0.3438,-2.09961 0,-1.1997 0.023,-1.30841 0.4004,-2.16016 0.2287,-0.49187 0.6296,-1.1874 0.8926,-1.53516 0.4001,-0.52784 9.2112,-9.28471 43.7051,-44.01562 1.9322,-1.94355 3.7165,-3.6605 3.9453,-3.81641 0.4195,-0.26783 2.0372,-0.56546 2.5937,-0.71484 z m 20.2149,3.86914 51.7617,51.76172 c 5.5314,6.36204 15.8555,12.72265 15.8555,12.72265 -10e-5,0 -12.3804,-4.28068 -18.3379,-10.23828 l -51.6895,-51.6875 c 0.4942,-0.53182 1.664,-1.76998 2.4102,-2.55859 z m 500.5566,2.77734 -7.3652,19.00391 -20.3496,1.13086 15.7988,12.87891 -5.2129,19.70312 17.1289,-11.04492 17.1289,11.04492 -5.2109,-19.70312 15.7988,-12.87891 -20.3515,-1.13086 z m -140.2773,1.6543 v 6.59375 h 6.4687 v -6.59375 z m -251.7168,3.28125 v 3.9375 l 5.0937,0.875 v 35.84375 l -5.0937,0.875 v 3.9375 h 16.3437 v -3.9375 l -5.0937,-0.875 v -15.5 l 9.6504,-0.17773 9.1308,20.49023 h 7.5938 v -4.03125 l -3.1563,-0.5625 -7.6875,-16.63281 c 0.7763,-0.20798 1.5265,-0.44356 2.2188,-0.74219 2.125,-0.9375 3.7604,-2.31249 4.9062,-4.125 1.1667,-1.81248 1.75,-4.05209 1.75,-6.71875 0,-2.70833 -0.5937,-5 -1.7812,-6.875 -1.1875,-1.875 -2.9271,-3.3021 -5.2188,-4.28125 -2.2708,-1.00001 -5.0625,-1.5 -8.375,-1.5 z m 228.0605,3.5 v 8.15625 h -5.3418 v 4.5625 h 5.3418 v 20.53125 c 0,3.22915 0.7311,5.58332 2.1895,7.0625 1.4791,1.45832 3.4668,2.1875 5.9668,2.1875 1.125,0 2.3333,-0.10412 3.625,-0.3125 1.3125,-0.20833 2.4166,-0.44791 3.3125,-0.71875 l -0.8438,-4.03125 c -0.5,0.10406 -1.1979,0.22911 -2.0937,0.375 -0.8959,0.12498 -1.7083,0.1875 -2.4375,0.1875 -1.0833,0 -1.9479,-0.3854 -2.5938,-1.15625 -0.6458,-0.77082 -0.9687,-1.96875 -0.9687,-3.59375 v -20.53125 h 7.3437 v -4.5625 h -7.3437 v -8.15625 z m -216.8105,1.3125 h 9.0312 c 3.1459,0 5.4688,0.69792 6.9688,2.09375 1.5,1.39583 2.25,3.29168 2.25,5.6875 0,2.52082 -0.7813,4.4375 -2.3438,5.75 -1.5625,1.3125 -4.0625,1.96875 -7.5,1.96875 h -8.4062 z m 46.25,6.21875 c -2.6042,0 -5.0104,0.73959 -7.2188,2.21875 -2.1875,1.45834 -3.9479,3.45834 -5.2812,6 -1.3125,2.52082 -1.9688,5.38541 -1.9688,8.59375 v 1.375 c 0,3.33332 0.6251,6.27082 1.875,8.8125 1.2709,2.54166 3.0625,4.53125 5.375,5.96875 2.3125,1.41664 5.0313,2.125 8.1563,2.125 2.7917,0 5.1771,-0.39584 7.1562,-1.1875 2,-0.8125 3.6042,-1.80208 4.8125,-2.96875 l -2.4062,-4 c -1.1458,1.04166 -2.5104,1.86458 -4.0938,2.46875 -1.5624,0.58333 -3.3854,0.875 -5.4687,0.875 -1.8958,0 -3.5208,-0.47916 -4.875,-1.4375 -1.3542,-0.95834 -2.3958,-2.27085 -3.125,-3.9375 -0.7084,-1.68751 -1.0834,-3.6146 -1.125,-5.78125 l 0.094,-0.15625 h 21.9375 v -3.84375 c 0,-3.0625 -0.5208,-5.71875 -1.5625,-7.96875 -1.0416,-2.27082 -2.5937,-4.03123 -4.6562,-5.28125 -2.0417,-1.24999 -4.5833,-1.875 -7.625,-1.875 z m 39.7187,0 c -2.1666,0 -4.1041,0.50001 -5.8125,1.5 -1.6874,0.97918 -3.0937,2.36458 -4.2187,4.15625 l -0.4375,-5.03125 h -10.5938 v 3.96875 l 5.0938,0.875 v 24.15625 l -5.0938,0.875 v 3.9375 h 16.3438 v -3.9375 l -5.0938,-0.875 v -19.84375 c 0.8125,-1.47916 1.8959,-2.64583 3.25,-3.5 1.375,-0.85417 2.948,-1.28125 4.7188,-1.28125 2.4166,0 4.2083,0.62498 5.375,1.875 1.1875,1.24999 1.7812,3.3646 1.7812,6.34375 v 16.40625 l -5.0937,0.875 v 3.9375 h 16.3437 v -3.9375 l -5.0937,-0.875 v -16.53125 c 0,-4.45833 -1,-7.75002 -3,-9.875 -2,-2.14584 -4.8229,-3.21875 -8.4688,-3.21875 z m 35.6563,0 c -3.0833,0 -5.7604,0.73959 -8.0313,2.21875 -2.25,1.47918 -3.9896,3.52086 -5.2187,6.125 -1.2292,2.58333 -1.8438,5.54166 -1.8438,8.875 v 0.6875 c 0,3.33332 0.6146,6.30208 1.8438,8.90625 1.2291,2.58333 2.9687,4.61459 5.2187,6.09375 2.2709,1.45832 4.9688,2.1875 8.0938,2.1875 3.1041,0 5.7812,-0.72918 8.0312,-2.1875 2.25,-1.45834 3.9896,-3.47919 5.2188,-6.0625 1.2292,-2.60417 1.8437,-5.58335 1.8437,-8.9375 v -0.6875 c 0,-3.35418 -0.6145,-6.32294 -1.8437,-8.90625 -1.2292,-2.58333 -2.9792,-4.61457 -5.25,-6.09375 -2.25,-1.47916 -4.9375,-2.21875 -8.0625,-2.21875 z m 70.0937,0 c -2.4583,0 -4.6979,0.3229 -6.7187,0.96875 -2.0208,0.62498 -3.7917,1.55207 -5.3125,2.78125 v 7.75 h 4.75 l 0.6562,-4.71875 c 0.8542,-0.60417 1.8021,-1.07292 2.8438,-1.40625 1.0417,-0.35417 2.2708,-0.53125 3.6875,-0.53125 2.25,0 3.9896,0.56249 5.2187,1.6875 1.25,1.12499 1.875,2.70833 1.875,4.75 v 3.3125 h -6.0312 c -3.1042,0 -5.7709,0.44793 -8,1.34375 -2.2292,0.87499 -3.9375,2.11457 -5.125,3.71875 -1.1667,1.58332 -1.75,3.44791 -1.75,5.59375 0,3.12499 0.9167,5.55209 2.75,7.28125 1.833,1.708 4.5114,2.56218 8.0312,2.5625 2.0201,-3.3e-4 3.9153,-0.50034 5.6856,-1.5 1.7916,-1.02082 3.2812,-2.29167 4.4687,-3.8125 0.042,0.72915 0.1147,1.45833 0.2188,2.1875 0.1042,0.72917 0.25,1.55209 0.4375,2.46875 h 8.8437 v -3.9375 l -3.2812,-0.34375 c -0.042,-0.41668 -0.072,-0.83334 -0.092,-1.25 v -1.28125 -16.28125 c 0,-3.64583 -1.1667,-6.44792 -3.5,-8.40625 -2.3333,-1.95832 -5.5521,-2.9375 -9.6563,-2.9375 z m 79.7793,0 c -3.0833,0 -5.7604,0.73959 -8.0312,2.21875 -2.25,1.47918 -3.9896,3.52086 -5.2188,6.125 -1.2291,2.58333 -1.8437,5.54166 -1.8437,8.875 v 0.6875 c 0,3.33332 0.6146,6.30208 1.8437,8.90625 1.2292,2.58333 2.9688,4.61459 5.2188,6.09375 2.2708,1.45832 4.9687,2.1875 8.0937,2.1875 3.1042,0 5.7813,-0.72918 8.0313,-2.1875 2.25,-1.45834 3.9896,-3.47919 5.2187,-6.0625 1.2292,-2.60417 1.8438,-5.58335 1.8438,-8.9375 v -0.6875 c 0,-3.35418 -0.6146,-6.32294 -1.8438,-8.90625 -1.2291,-2.58333 -2.9791,-4.61457 -5.25,-6.09375 -2.25,-1.47916 -4.9375,-2.21875 -8.0625,-2.21875 z m 40.9688,0 c -2.1667,0 -4.1042,0.50001 -5.8125,1.5 -1.6875,0.97918 -3.0937,2.36458 -4.2188,4.15625 l -0.4375,-5.03125 h -10.5937 v 3.96875 l 5.0937,0.875 v 24.15625 l -5.0937,0.875 v 3.9375 h 16.3437 v -3.9375 l -5.0937,-0.875 v -19.84375 c 0.8125,-1.47916 1.8958,-2.64583 3.25,-3.5 1.375,-0.85417 2.9479,-1.28125 4.7187,-1.28125 2.4167,0 4.2084,0.62498 5.375,1.875 1.1875,1.24999 1.7813,3.3646 1.7813,6.34375 v 16.40625 l -5.0938,0.875 v 3.9375 h 16.3438 v -3.9375 l -5.0938,-0.875 v -16.53125 c 0,-4.45833 -1,-7.75002 -3,-9.875 -2,-2.14584 -4.8229,-3.21875 -8.4687,-3.21875 z m -173.5606,0.625 v 3.96875 l 3.5,0.46875 12.0313,29.375 h 5.4062 l 11.4375,-29.375 3.5625,-0.46875 v -3.96875 h -14.1562 v 3.96875 l 4.5312,0.625 -6.9687,19.25 -1,2.71875 h -0.1875 l -0.875,-2.71875 -7.5,-19.25 4.4062,-0.625 v -3.96875 z m 96.7793,0 v 3.96875 l 5.0938,0.875 v 24.15625 l -5.0938,0.875 v 3.9375 h 16.3438 v -3.9375 l -5.0938,-0.875 v -29 z m -189.4355,4.21875 c 1.7083,0 3.125,0.37499 4.25,1.125 1.1458,0.72917 2,1.73958 2.5625,3.03125 0.5833,1.27083 0.875,2.71876 0.875,4.34375 v 0.8125 h -15.5938 l -0.062,-0.15625 c 0.2292,-1.75 0.7084,-3.31251 1.4375,-4.6875 0.7292,-1.37499 1.6563,-2.45831 2.7813,-3.25 1.125,-0.8125 2.375,-1.21875 3.75,-1.21875 z m 75.375,0 c 1.9792,0 3.6354,0.54166 4.9687,1.625 1.3334,1.0625 2.3334,2.53125 3,4.40625 0.6875,1.85416 1.0313,3.96875 1.0313,6.34375 v 0.6875 c 0,2.37498 -0.3438,4.5 -1.0313,6.375 -0.6666,1.85416 -1.6666,3.32291 -3,4.40625 -1.3125,1.0625 -2.9479,1.59375 -4.9062,1.59375 -1.9792,0 -3.6459,-0.53125 -5,-1.59375 -1.3334,-1.08334 -2.3334,-2.55209 -3,-4.40625 -0.6667,-1.875 -1,-4.00002 -1,-6.375 v -0.6875 c 0,-2.375 0.3333,-4.48959 1,-6.34375 0.6666,-1.875 1.6666,-3.34375 3,-4.40625 1.3333,-1.08334 2.9792,-1.625 4.9375,-1.625 z m 149.873,0 c 1.9792,0 3.6354,0.54166 4.9688,1.625 1.3333,1.0625 2.3333,2.53125 3,4.40625 0.6875,1.85416 1.0312,3.96875 1.0312,6.34375 v 0.6875 c 0,2.37498 -0.3437,4.5 -1.0312,6.375 -0.6667,1.85416 -1.6667,3.32291 -3,4.40625 -1.3125,1.0625 -2.9479,1.59375 -4.9063,1.59375 -1.9791,0 -3.6458,-0.53125 -5,-1.59375 -1.3333,-1.08334 -2.3333,-2.55209 -3,-4.40625 -0.6666,-1.875 -1,-4.00002 -1,-6.375 v -0.6875 c 0,-2.375 0.3334,-4.48959 1,-6.34375 0.6667,-1.875 1.6667,-3.34375 3,-4.40625 1.3334,-1.08334 2.9792,-1.625 4.9375,-1.625 z m -79.0293,13.96875 h 6.25 v 6.125 c -0.7291,1.37502 -1.9375,2.5521 -3.625,3.53125 -1.6875,0.97918 -3.5521,1.46875 -5.5937,1.46875 -1.8542,0 -3.2396,-0.3854 -4.1563,-1.15625 -0.9166,-0.79166 -1.375,-1.92709 -1.375,-3.40625 0,-1.66667 0.7084,-3.1771 2.125,-4.53125 1.4167,-1.35418 3.5417,-2.03125 6.375,-2.03125 z"
       transform="scale(0.26458333)" />
  </g>
</svg>
