<?xml version="1.0" standalone="no"?>
<!DOCTYPE svg PUBLIC "-//W3C//DTD SVG 20010904//EN"
 "http://www.w3.org/TR/2001/REC-SVG-20010904/DTD/svg10.dtd">
<svg version="1.0" xmlns="http://www.w3.org/2000/svg"
 width="904.000000pt" height="904.000000pt" viewBox="0 0 904.000000 904.000000"
 preserveAspectRatio="xMidYMid meet">
<metadata>
Created by potrace 1.14, written by Peter Selinger 2001-2017
</metadata>
<g transform="translate(0.000000,904.000000) scale(0.100000,-0.100000)"
fill="#000000" stroke="none">
<path d="M1119 9036 c-2 -2 -22 -5 -44 -7 -22 -1 -47 -6 -55 -10 -8 -4 -31 -9
-50 -12 -42 -6 -167 -45 -195 -60 -11 -6 -22 -12 -25 -12 -6 -1 -108 -56 -159
-85 -19 -10 -37 -23 -40 -27 -3 -5 -29 -25 -57 -45 -45 -33 -142 -130 -199
-199 -36 -44 -93 -135 -129 -205 -36 -73 -89 -214 -79 -214 3 0 0 -7 -7 -15
-7 -8 -10 -15 -6 -15 3 0 2 -10 -3 -22 -5 -13 -12 -50 -17 -83 -11 -74 -12
-6919 -1 -6995 10 -72 35 -181 47 -202 6 -10 10 -22 10 -28 0 -6 7 -26 15 -46
8 -19 14 -36 15 -39 1 -7 73 -139 79 -145 8 -6 29 -41 38 -60 18 -38 258 -280
278 -280 7 0 15 -4 17 -9 10 -29 282 -161 361 -175 15 -2 31 -7 36 -10 9 -6
24 -8 146 -26 33 -5 874 -9 1869 -9 l1810 -1 -64 57 c-96 87 -194 188 -274
283 -39 47 -75 88 -81 92 -5 4 -7 8 -2 8 4 0 -1 8 -10 18 -32 34 -53 62 -53
71 0 5 -3 11 -7 13 -28 12 -178 263 -259 430 -46 94 -49 98 -80 98 -39 0 -99
12 -259 52 -66 17 -124 31 -130 32 -5 2 -17 6 -25 9 -8 3 -37 12 -65 20 -66
20 -209 72 -262 97 -24 11 -47 20 -53 20 -30 0 -490 250 -498 271 -2 5 -8 9
-13 9 -10 0 -69 40 -184 124 -69 50 -86 64 -128 99 -12 10 -44 37 -72 60 -61
50 -292 281 -359 357 -98 113 -306 397 -306 419 0 6 -4 11 -9 11 -5 0 -18 19
-30 43 -22 45 -43 79 -51 87 -13 12 -170 338 -170 353 0 9 -4 17 -8 17 -5 0
-15 21 -24 47 -9 27 -35 100 -58 163 -23 63 -43 122 -45 130 -6 28 -33 125
-39 140 -3 8 -7 26 -10 40 -2 14 -10 48 -16 75 -20 84 -20 88 -27 150 -4 50
-2 68 15 102 21 40 76 83 117 92 11 2 124 4 250 4 l230 0 55 -28 c30 -15 65
-40 78 -54 26 -29 61 -93 68 -122 10 -47 13 -57 24 -99 19 -75 91 -284 101
-295 5 -5 9 -15 9 -23 0 -17 118 -257 160 -327 17 -27 33 -57 37 -65 4 -8 9
-17 13 -20 3 -3 21 -30 40 -60 34 -54 53 -80 78 -105 6 -8 12 -16 12 -20 0 -4
6 -13 13 -20 6 -8 32 -39 57 -70 46 -57 228 -245 293 -303 109 -96 305 -237
432 -309 102 -58 316 -159 400 -188 28 -9 59 -21 70 -25 11 -5 35 -13 53 -19
l32 -10 -5 52 c-23 211 -20 422 10 699 l4 38 -82 40 c-96 47 -141 72 -145 83
-2 4 -8 7 -14 7 -12 0 -102 61 -106 72 -2 4 -8 8 -14 8 -26 0 -251 205 -326
298 -18 22 -44 53 -58 69 -22 25 -84 111 -109 151 -5 9 -22 35 -37 58 -15 23
-28 48 -30 55 -2 8 -6 16 -9 19 -18 14 -125 261 -135 310 -19 91 2 147 69 182
40 21 55 22 288 22 186 0 256 -3 290 -14 24 -8 46 -17 49 -20 3 -3 17 -12 32
-20 44 -25 105 -86 145 -147 20 -32 43 -64 50 -71 7 -7 13 -18 13 -23 0 -19
189 -196 263 -246 76 -52 107 -59 107 -24 0 9 5 22 12 29 7 7 8 12 2 12 -5 0
-5 3 1 8 6 4 21 30 35 57 39 80 142 260 152 263 4 2 8 8 8 13 0 5 12 27 28 48
15 21 34 49 42 61 31 47 123 165 136 176 8 6 14 14 14 17 0 18 304 327 321
327 6 0 7 4 4 10 -3 6 -1 10 4 10 6 0 25 12 42 27 30 27 200 157 235 180 11 7
35 24 56 37 79 52 212 127 327 184 100 50 118 62 106 72 -8 7 -15 17 -15 22 0
33 -183 242 -266 304 -21 16 -41 31 -44 34 -3 3 -30 21 -60 40 -92 58 -178
164 -196 242 -10 39 -11 481 -2 521 9 43 45 97 64 97 7 0 14 5 16 10 5 16 80
19 116 4 18 -7 35 -13 37 -13 17 1 165 -62 252 -108 306 -159 568 -402 751
-695 53 -85 122 -217 122 -233 0 -14 27 -28 39 -21 7 5 88 14 191 22 88 6 485
2 485 -6 0 -1 20 -4 44 -6 38 -4 42 -2 36 13 -3 10 -13 38 -21 63 -9 25 -22
59 -30 77 -8 17 -14 35 -14 41 0 29 -126 287 -189 387 -17 28 -34 58 -37 68
-4 9 -10 17 -15 17 -5 0 -9 6 -9 13 0 7 -9 23 -20 35 -11 12 -20 24 -20 27 0
14 -140 192 -220 278 -123 135 -224 228 -365 336 -22 17 -53 41 -69 54 -16 12
-34 24 -40 27 -14 6 -69 43 -76 50 -3 3 -16 11 -30 18 -14 7 -43 23 -65 37
-22 14 -56 32 -75 42 -19 9 -43 23 -53 31 -9 8 -17 12 -17 8 0 -4 -26 6 -57
22 -96 49 -154 72 -291 118 -56 19 -110 36 -120 38 -9 1 -24 6 -32 9 -8 3 -37
10 -65 17 -73 17 -135 55 -175 107 -19 25 -35 50 -36 57 -2 6 -7 25 -12 41 -4
17 -8 132 -7 256 1 250 6 274 66 320 34 26 94 51 103 42 3 -3 22 -7 43 -8 49
-4 96 -13 126 -24 14 -6 27 -7 30 -4 3 3 12 1 19 -3 7 -5 24 -10 38 -12 14 -2
55 -12 92 -23 37 -12 73 -22 80 -23 7 -2 21 -6 30 -10 9 -4 23 -9 32 -10 8 -1
19 -5 22 -9 4 -4 16 -7 26 -7 10 0 26 -4 36 -9 9 -5 44 -19 77 -31 141 -52
504 -224 525 -249 3 -3 21 -15 40 -25 19 -11 73 -45 119 -75 46 -31 91 -60
100 -66 8 -5 20 -14 26 -20 7 -5 24 -19 39 -30 58 -42 102 -76 141 -109 22
-19 58 -49 80 -68 95 -80 383 -380 409 -427 5 -9 18 -23 28 -32 10 -9 18 -19
18 -23 0 -4 9 -16 20 -28 45 -49 260 -378 260 -399 0 -5 5 -9 12 -9 6 0 9 -3
5 -6 -3 -3 5 -23 18 -44 20 -32 107 -206 110 -220 0 -3 8 -21 17 -40 43 -96
60 -135 64 -149 2 -9 18 -56 35 -106 45 -128 78 -240 103 -356 32 -143 33
-148 35 -201 1 -32 5 -38 44 -57 24 -12 48 -21 54 -21 6 0 13 -3 15 -7 2 -5
35 -24 73 -43 39 -19 72 -37 75 -40 10 -10 65 -41 83 -47 9 -3 17 -9 17 -14 0
-5 4 -9 10 -9 12 0 195 -128 270 -188 128 -103 265 -232 373 -351 l47 -52 -3
1883 c-2 1036 -6 1894 -10 1908 -13 51 -18 76 -23 100 -8 42 -35 122 -60 178
-13 29 -24 54 -24 57 0 22 -147 238 -198 290 -146 151 -313 259 -497 320 -204
69 68 64 -3676 64 -1868 1 -3398 -1 -3400 -3z m2952 -1168 c26 -26 40 -51 45
-80 10 -55 12 -470 3 -483 -4 -5 -8 -14 -9 -20 -5 -29 -31 -74 -61 -103 -44
-45 -97 -71 -188 -93 -103 -24 -296 -89 -381 -126 -151 -67 -391 -196 -398
-215 -2 -4 -9 -8 -15 -8 -11 0 -62 -35 -169 -117 -231 -174 -481 -444 -623
-671 -58 -92 -75 -122 -75 -131 0 -5 -4 -11 -9 -13 -17 -7 -183 -371 -195
-428 -2 -8 -6 -22 -9 -30 -15 -38 -40 -122 -63 -209 -32 -125 -73 -180 -164
-224 -42 -20 -61 -21 -287 -22 -134 0 -243 3 -243 7 0 5 -3 7 -7 7 -23 -4 -37
5 -73 41 -47 48 -58 101 -40 193 7 34 14 71 16 82 2 17 54 223 63 253 1 1 1 3
1 5 -1 3 59 177 67 197 3 8 7 18 8 23 2 4 4 10 5 15 1 4 2 10 1 15 0 4 4 7 10
7 5 0 8 4 5 8 -2 4 2 21 9 37 23 49 64 145 63 148 -2 6 140 272 185 347 82
136 225 340 238 340 4 0 10 8 13 18 4 9 20 33 36 52 17 19 52 60 78 90 62 72
296 305 352 350 24 19 51 43 62 53 10 9 23 17 28 17 6 0 10 4 10 9 0 5 15 18
33 30 17 11 41 28 52 38 11 10 43 34 70 53 28 19 52 38 53 42 2 5 8 6 13 2 5
-3 12 2 15 10 3 9 10 16 15 16 8 0 123 71 146 90 7 5 17 10 23 10 6 0 27 12
46 26 19 15 34 23 34 20 0 -4 13 2 29 13 16 12 34 21 40 21 6 0 11 5 11 12 0
6 3 9 6 5 3 -3 30 8 60 24 30 16 60 29 67 29 7 0 18 5 24 11 13 13 173 80 173
72 0 -3 6 -1 13 5 13 10 149 61 182 68 11 2 31 8 45 13 14 6 45 16 70 22 25 7
50 14 55 15 10 3 38 10 73 18 65 16 173 38 207 43 22 2 41 6 43 8 11 10 81
-25 113 -57z m-15 -1549 c29 -18 40 -34 61 -89 15 -41 9 -476 -7 -537 -8 -29
-17 -53 -22 -53 -4 0 -7 -4 -6 -8 8 -26 -87 -122 -183 -187 -82 -55 -107 -76
-185 -152 -56 -55 -164 -195 -164 -212 0 -5 -8 -15 -17 -20 -10 -6 -14 -11 -9
-11 21 0 -95 -94 -153 -123 l-64 -31 -254 -1 c-223 0 -258 2 -290 17 -39 19
-74 56 -81 86 -7 29 -9 77 -3 87 3 6 6 15 7 21 4 27 80 203 121 281 39 76 147
249 163 263 3 3 21 25 40 50 39 50 41 52 126 141 180 188 431 359 659 449 47
18 85 32 92 33 4 1 24 7 43 14 41 14 82 9 126 -18z"/>
<path d="M6637 4574 c-1 -1 -38 -4 -82 -8 -159 -11 -308 -33 -365 -54 -8 -3
-24 -7 -35 -9 -38 -8 -50 -11 -50 -13 0 -1 -10 -3 -22 -6 -77 -14 -452 -174
-461 -196 -2 -4 -9 -8 -14 -8 -23 0 -243 -147 -325 -216 -12 -11 -41 -35 -64
-54 -53 -44 -158 -150 -212 -214 -23 -26 -55 -62 -70 -80 -36 -41 -191 -272
-208 -311 -8 -16 -16 -32 -20 -35 -8 -6 -69 -137 -99 -210 -12 -30 -26 -64
-31 -75 -14 -33 -61 -179 -64 -200 -1 -11 -4 -21 -5 -22 -1 -2 -3 -6 -4 -10
-1 -5 -6 -26 -11 -48 -5 -22 -9 -42 -10 -45 -2 -7 -18 -102 -21 -125 -1 -11
-3 -20 -4 -20 -7 0 -22 -236 -22 -335 1 -90 9 -241 16 -275 2 -11 7 -42 10
-70 13 -93 17 -110 42 -205 14 -52 27 -102 29 -110 15 -58 66 -194 96 -253 10
-22 19 -42 19 -47 0 -19 157 -292 172 -298 5 -2 8 -8 8 -13 0 -8 32 -56 77
-114 94 -121 250 -282 347 -360 20 -16 43 -35 49 -41 16 -14 157 -116 182
-131 80 -49 158 -93 166 -93 5 0 9 -4 9 -10 0 -5 4 -10 9 -10 5 0 42 -15 83
-34 125 -59 291 -118 423 -152 17 -4 32 -8 35 -9 7 -2 93 -18 110 -21 8 -1 33
-5 55 -8 22 -4 58 -9 80 -13 100 -15 520 -7 615 12 13 2 40 7 60 10 76 11 215
46 305 76 97 32 234 90 315 132 41 22 89 46 105 54 31 16 196 123 205 133 3 3
21 17 40 30 19 13 37 27 40 30 3 3 28 23 55 45 110 88 321 316 383 414 9 14
19 28 23 31 27 21 218 360 203 360 -4 0 0 8 9 18 8 9 19 31 23 47 4 17 10 35
14 40 7 10 68 184 75 215 2 8 11 42 19 75 9 33 19 72 21 88 3 15 8 42 11 60
24 133 28 199 27 417 -1 220 -3 246 -28 385 -22 124 -25 134 -52 230 -41 144
-127 362 -148 377 -7 5 -7 8 0 8 7 0 7 3 0 8 -9 6 -62 101 -89 159 -6 13 -14
23 -18 23 -5 0 -8 4 -8 10 0 9 -58 98 -71 110 -3 3 -20 26 -38 53 -17 26 -36
47 -41 47 -6 0 -10 7 -10 15 0 25 -290 307 -400 389 -58 43 -115 83 -127 89
-13 6 -23 14 -23 19 0 4 -5 8 -10 8 -6 0 -35 16 -65 35 -30 19 -55 32 -55 29
0 -3 -12 3 -27 14 -37 25 -170 86 -258 118 -55 21 -157 55 -175 59 -8 2 -42
11 -75 20 -33 9 -72 18 -88 20 -15 2 -31 6 -35 9 -4 2 -36 7 -72 11 -36 4 -74
9 -85 12 -37 8 -361 23 -368 17z m342 -697 c54 -14 149 -120 137 -154 -3 -6
-2 -14 2 -18 4 -3 8 -196 9 -428 1 -232 3 -429 4 -437 4 -32 62 -101 105 -126
l45 -26 442 -2 c292 -2 451 -6 468 -13 59 -25 113 -88 123 -145 3 -13 5 -23 6
-23 7 0 4 -182 -2 -192 -5 -6 -5 -13 -1 -16 15 -9 7 -239 -9 -277 -21 -48 -65
-93 -113 -115 -36 -17 -74 -18 -475 -19 -434 -1 -435 -1 -479 -24 -50 -27 -75
-53 -98 -102 -14 -30 -17 -92 -19 -460 -1 -234 -5 -438 -9 -455 -13 -59 -62
-115 -125 -143 -28 -12 -82 -15 -272 -15 l-238 0 -47 29 c-29 18 -59 49 -78
78 l-30 49 -1 421 c-1 232 -5 440 -9 463 -9 51 -59 113 -112 139 -35 17 -72
18 -480 20 l-443 1 -47 29 c-29 18 -59 49 -78 78 l-30 49 0 241 c0 264 4 285
63 342 61 58 59 58 532 60 295 1 444 6 464 13 40 16 106 70 106 87 0 8 5 14
12 14 6 0 8 3 5 7 -4 3 -3 11 2 17 12 15 17 68 8 84 -5 6 -5 12 0 12 4 0 8
179 8 398 1 440 2 447 63 507 58 56 96 63 347 60 121 -1 231 -5 244 -8z"/>
</g>
</svg>
