<?xml version="1.0" encoding="UTF-8" standalone="no"?>
<svg
   xmlns:dc="http://purl.org/dc/elements/1.1/"
   xmlns:cc="http://creativecommons.org/ns#"
   xmlns:rdf="http://www.w3.org/1999/02/22-rdf-syntax-ns#"
   xmlns:svg="http://www.w3.org/2000/svg"
   xmlns="http://www.w3.org/2000/svg"
   xmlns:sodipodi="http://sodipodi.sourceforge.net/DTD/sodipodi-0.dtd"
   xmlns:inkscape="http://www.inkscape.org/namespaces/inkscape"
   width="38.701023mm"
   height="38.711674mm"
   viewBox="0 0 38.701023 38.711674"
   version="1.1"
   id="svg8"
   sodipodi:docname="icon.svg"
   inkscape:version="1.0.1 (c497b03c, 2020-09-10)">
  <defs
     id="defs2">
    <rect
       x="78.842201"
       y="175.55856"
       width="123.89489"
       height="65.620216"
       id="rect978" />
    <rect
       x="78.842201"
       y="175.55856"
       width="123.89489"
       height="65.620216"
       id="rect986" />
    <rect
       x="78.842201"
       y="175.55856"
       width="123.89489"
       height="65.620216"
       id="rect1038" />
    <rect
       x="78.842201"
       y="175.55856"
       width="123.89489"
       height="65.620216"
       id="rect1040" />
    <rect
       x="78.842201"
       y="175.55856"
       width="123.89489"
       height="65.620216"
       id="rect1103" />
    <rect
       x="78.842201"
       y="175.55856"
       width="123.89489"
       height="65.620216"
       id="rect1109" />
    <rect
       x="78.842201"
       y="175.55856"
       width="123.89489"
       height="65.620216"
       id="rect1196" />
  </defs>
  <sodipodi:namedview
     id="base"
     pagecolor="#ffffff"
     bordercolor="#666666"
     borderopacity="1.0"
     inkscape:pageopacity="0.0"
     inkscape:pageshadow="2"
     inkscape:zoom="0.73571738"
     inkscape:cx="334.38617"
     inkscape:cy="312.80511"
     inkscape:document-units="mm"
     inkscape:current-layer="layer1"
     inkscape:document-rotation="0"
     showgrid="false"
     showguides="true"
     inkscape:guide-bbox="true"
     inkscape:snap-bbox="true"
     inkscape:object-paths="true"
     inkscape:snap-intersection-paths="true"
     inkscape:bbox-paths="true"
     inkscape:bbox-nodes="true"
     inkscape:snap-bbox-edge-midpoints="true"
     inkscape:snap-bbox-midpoints="true"
     inkscape:snap-global="true"
     inkscape:window-width="1680"
     inkscape:window-height="1022"
     inkscape:window-x="0"
     inkscape:window-y="0"
     inkscape:window-maximized="0"
     fit-margin-top="0"
     fit-margin-left="0"
     fit-margin-right="0"
     fit-margin-bottom="0" />
  <metadata
     id="metadata5">
    <rdf:RDF>
      <cc:Work
         rdf:about="">
        <dc:format>image/svg+xml</dc:format>
        <dc:type
           rdf:resource="http://purl.org/dc/dcmitype/StillImage" />
        <dc:title></dc:title>
      </cc:Work>
    </rdf:RDF>
  </metadata>
  <g
     inkscape:label="Layer 1"
     inkscape:groupmode="layer"
     id="layer1"
     transform="translate(-149.06555,-30.965857)">
    <path
       id="path886"
       style="fill:#000000;fill-opacity:1;stroke:none;stroke-width:0.465;stroke-linecap:butt;stroke-linejoin:miter;stroke-miterlimit:4;stroke-dasharray:none;stroke-opacity:1"
       d="m 149.06554,38.219536 3.97308,-0.3782 0.23788,0.23789 1.41194,-1.41194 0.34238,0.34239 -1.41193,1.41193 0.37819,0.3782 1.08782,-1.08782 0.34239,0.34239 -1.08782,1.08782 0.43228,0.43227 1.48392,-1.48392 0.34238,0.34239 -1.48392,1.48392 26.39339,26.39339 c 1.67522,1.67521 6.25907,3.36723 6.25907,3.36723 0,0 -1.6804,-4.59343 -3.35664,-6.26967 l -28.46853,-28.46853 0.37783,-3.97345 z m 7.43532,2.33569 0.65807,-0.65667 25.6644,25.6644 c 1.46351,1.68329 4.19488,3.36613 4.19488,3.36613 -1e-5,0 -3.27598,-1.13249 -4.85225,-2.70876 z" />
    <path
       id="path938"
       style="fill:#000000;stroke:none;stroke-width:0.0030987;fill-opacity:1"
       d="m 169.7328,30.965876 c -0.18835,-3e-4 -0.34338,0.003 -0.43262,0.01 h -5.2e-4 c -0.36604,0.0285 -0.86785,0.0856 -1.11892,0.1237 -0.14823,0.0254 -0.33278,0.054 -0.40841,0.0635 -0.26921,0.0444 -0.90146,0.18088 -1.33101,0.28883 -0.42047,0.10789 -1.183,0.32665 -1.20417,0.34571 -0.005,0.005 0.0395,0.0257 0.1,0.0447 0.0877,0.0254 0.15702,0.019 0.34157,-0.0381 0.20268,-0.0571 0.31481,-0.0668 0.86839,-0.0668 0.68971,0 0.91379,0.0287 1.55206,0.20654 0.65342,0.18091 1.20667,0.40301 1.851,0.73946 2.41396,1.27284 3.94473,3.21545 3.86305,4.90728 -0.0212,0.40313 -0.0818,0.6631 -0.23316,0.99957 -0.18149,0.40629 -0.19631,0.46973 -0.19631,0.90459 0.004,0.45707 0.0665,0.73034 0.24789,1.07633 l 0.10579,0.20323 -4.15936,4.36443 -4.15935,4.36441 -0.0847,-0.0635 c -0.27528,-0.20314 -0.67734,-0.31713 -1.01312,-0.2822 -0.23898,0.0222 -0.54466,0.11692 -0.69893,0.21537 -0.0605,0.0413 -0.53242,0.49528 -1.04365,1.00951 -9.1265,9.18923 -13.06481,13.16679 -13.17067,13.30645 -0.0696,0.092 -0.17582,0.27576 -0.23631,0.4059 -0.0999,0.22536 -0.10579,0.25416 -0.10579,0.57158 0,0.30154 0.008,0.35558 0.0905,0.55556 0.13014,0.3174 0.28752,0.54581 0.69893,1.01559 0.61105,0.69196 2.64421,2.78987 2.83781,2.92636 0.94077,0.6634 1.89666,0.68598 2.55308,0.0574 0.22992,-0.21904 13.11952,-14.47782 13.22541,-14.63018 0.27829,-0.39678 0.32945,-1.12028 0.11473,-1.60594 -0.0515,-0.11428 -0.11814,-0.23458 -0.14842,-0.2695 -0.0574,-0.0666 -0.0363,-0.089 4.1262,-4.45664 l 4.18356,-4.38984 0.18473,0.15242 c 0.68971,0.58406 1.3644,0.74271 2.26888,0.53955 0.60199,-0.13656 0.89228,-0.10797 1.35207,0.1237 0.29041,0.14605 0.59576,0.39653 0.90734,0.74886 0.20269,0.22855 1.03775,1.30501 1.05892,1.36847 0.009,0.0222 -0.10566,0.16818 -0.25684,0.32362 -0.42351,0.43805 -0.56905,0.8061 -0.53577,1.35522 0.0786,1.30775 1.46106,2.19358 2.54098,1.62858 0.12405,-0.0635 0.48718,-0.42861 1.69416,-1.68877 1.37941,-1.44425 1.54565,-1.63142 1.63943,-1.82187 0.32368,-0.67928 0.16347,-1.49821 -0.40526,-2.08862 -0.55055,-0.56817 -1.34929,-0.71433 -1.98152,-0.35564 l -0.14789,0.0856 -0.11789,-0.14249 c -0.23292,-0.27615 -0.6778,-0.92071 -0.81997,-1.18733 -0.0816,-0.14916 -0.23017,-0.46024 -0.32999,-0.69197 -0.31159,-0.73321 -0.61967,-1.36513 -0.80419,-1.66669 -0.41444,-0.66021 -0.91075,-1.30125 -1.56417,-2.00908 -1.72122,-1.86643 -4.58889,-4.91372 -4.8067,-5.11051 -1.52159,-1.37124 -3.13994,-2.11702 -5.20301,-2.39952 -0.2609,-0.0357 -1.12277,-0.0659 -1.68784,-0.0668 z m -5.41194,19.32264 c 0,0 -0.48401,1.01982 -0.69998,1.47506 -0.10589,0.15237 -11.91763,12.14914 -12.14754,12.36817 -0.65643,0.62855 -0.37684,1.51669 1.21943,3.90109 -0.1936,-0.13649 -1.14889,-1.1034 -1.75994,-1.79536 -0.41141,-0.46978 -0.5688,-0.69819 -0.69893,-1.01559 -0.0822,-0.19998 -0.0905,-0.25402 -0.0905,-0.55556 0,-0.31742 0.006,-0.34622 0.10579,-0.57158 0.0605,-0.13014 0.16671,-0.31389 0.2363,-0.4059 0.10587,-0.13966 2.96631,-2.98622 12.09281,-12.17544 0.51124,-0.51423 0.98311,-0.96826 1.04365,-1.00951 0.15427,-0.0985 0.45995,-0.19315 0.69893,-0.21538 z" />
  </g>
</svg>
